%TF.GenerationSoftware,KiCad,Pcbnew,9.0.7-9.0.7~ubuntu22.04.1*%
%TF.CreationDate,2026-02-13T00:28:08-08:00*%
%TF.ProjectId,AS5047-Devboard,41533530-3437-42d4-9465-76626f617264,rev?*%
%TF.SameCoordinates,Original*%
%TF.FileFunction,Copper,L1,Top*%
%TF.FilePolarity,Positive*%
%FSLAX46Y46*%
G04 Gerber Fmt 4.6, Leading zero omitted, Abs format (unit mm)*
G04 Created by KiCad (PCBNEW 9.0.7-9.0.7~ubuntu22.04.1) date 2026-02-13 00:28:08*
%MOMM*%
%LPD*%
G01*
G04 APERTURE LIST*
G04 Aperture macros list*
%AMRoundRect*
0 Rectangle with rounded corners*
0 $1 Rounding radius*
0 $2 $3 $4 $5 $6 $7 $8 $9 X,Y pos of 4 corners*
0 Add a 4 corners polygon primitive as box body*
4,1,4,$2,$3,$4,$5,$6,$7,$8,$9,$2,$3,0*
0 Add four circle primitives for the rounded corners*
1,1,$1+$1,$2,$3*
1,1,$1+$1,$4,$5*
1,1,$1+$1,$6,$7*
1,1,$1+$1,$8,$9*
0 Add four rect primitives between the rounded corners*
20,1,$1+$1,$2,$3,$4,$5,0*
20,1,$1+$1,$4,$5,$6,$7,0*
20,1,$1+$1,$6,$7,$8,$9,0*
20,1,$1+$1,$8,$9,$2,$3,0*%
G04 Aperture macros list end*
%TA.AperFunction,SMDPad,CuDef*%
%ADD10RoundRect,0.100000X-0.637500X-0.100000X0.637500X-0.100000X0.637500X0.100000X-0.637500X0.100000X0*%
%TD*%
%TA.AperFunction,SMDPad,CuDef*%
%ADD11RoundRect,0.225000X0.250000X-0.225000X0.250000X0.225000X-0.250000X0.225000X-0.250000X-0.225000X0*%
%TD*%
%TA.AperFunction,ComponentPad*%
%ADD12R,1.700000X1.700000*%
%TD*%
%TA.AperFunction,ComponentPad*%
%ADD13C,1.700000*%
%TD*%
%TA.AperFunction,Conductor*%
%ADD14C,0.300000*%
%TD*%
%TA.AperFunction,Conductor*%
%ADD15C,0.500000*%
%TD*%
G04 APERTURE END LIST*
D10*
%TO.P,U1,1,~{CS}*%
%TO.N,/SPI_CS*%
X153037500Y-103782500D03*
%TO.P,U1,2,CLK*%
%TO.N,/SPI_CLK*%
X153037500Y-104432500D03*
%TO.P,U1,3,MISO*%
%TO.N,/SPI_MISO*%
X153037500Y-105082500D03*
%TO.P,U1,4,MOSI*%
%TO.N,/SPI_MOSI*%
X153037500Y-105732500D03*
%TO.P,U1,5,TST*%
%TO.N,GND*%
X153037500Y-106382500D03*
%TO.P,U1,6,B*%
%TO.N,unconnected-(U1-B-Pad6)*%
X153037500Y-107032500D03*
%TO.P,U1,7,A*%
%TO.N,unconnected-(U1-A-Pad7)*%
X153037500Y-107682500D03*
%TO.P,U1,8,W/PWM*%
%TO.N,unconnected-(U1-W{slash}PWM-Pad8)*%
X158762500Y-107682500D03*
%TO.P,U1,9,V*%
%TO.N,unconnected-(U1-V-Pad9)*%
X158762500Y-107032500D03*
%TO.P,U1,10,U*%
%TO.N,unconnected-(U1-U-Pad10)*%
X158762500Y-106382500D03*
%TO.P,U1,11,VDD*%
%TO.N,unconnected-(U1-VDD-Pad11)*%
X158762500Y-105732500D03*
%TO.P,U1,12,VDD3V3*%
%TO.N,+3.3V*%
X158762500Y-105082500D03*
%TO.P,U1,13,GND*%
%TO.N,GND*%
X158762500Y-104432500D03*
%TO.P,U1,14,I/PWM*%
%TO.N,unconnected-(U1-I{slash}PWM-Pad14)*%
X158762500Y-103782500D03*
%TD*%
D11*
%TO.P,C1,1*%
%TO.N,+3.3V*%
X161250000Y-105325000D03*
%TO.P,C1,2*%
%TO.N,GND*%
X161250000Y-103775000D03*
%TD*%
D12*
%TO.P,J1,1,Pin_1*%
%TO.N,+3.3V*%
X140400000Y-99300000D03*
D13*
%TO.P,J1,2,Pin_2*%
%TO.N,/SPI_CS*%
X140400000Y-101840000D03*
%TO.P,J1,3,Pin_3*%
%TO.N,/SPI_CLK*%
X140400000Y-104380000D03*
%TO.P,J1,4,Pin_4*%
%TO.N,/SPI_MISO*%
X140400000Y-106920000D03*
%TO.P,J1,5,Pin_5*%
%TO.N,/SPI_MOSI*%
X140400000Y-109460000D03*
%TO.P,J1,6,Pin_6*%
%TO.N,GND*%
X140400000Y-112000000D03*
%TD*%
D14*
%TO.N,/SPI_MISO*%
X148317500Y-105082500D02*
X146480000Y-106920000D01*
X146480000Y-106920000D02*
X140400000Y-106920000D01*
X153037500Y-105082500D02*
X148317500Y-105082500D01*
%TO.N,/SPI_CS*%
X151582500Y-103782500D02*
X149640000Y-101840000D01*
X153037500Y-103782500D02*
X151582500Y-103782500D01*
X149640000Y-101840000D02*
X140400000Y-101840000D01*
%TO.N,/SPI_CLK*%
X140452500Y-104432500D02*
X140400000Y-104380000D01*
X153037500Y-104432500D02*
X140452500Y-104432500D01*
D15*
%TO.N,+3.3V*%
X164075000Y-105325000D02*
X161250000Y-105325000D01*
X165050000Y-104350000D02*
X164075000Y-105325000D01*
X162800000Y-99300000D02*
X165050000Y-101550000D01*
D14*
X158762500Y-105082500D02*
X161007500Y-105082500D01*
D15*
X140400000Y-99300000D02*
X162800000Y-99300000D01*
D14*
X161007500Y-105082500D02*
X161250000Y-105325000D01*
D15*
X165050000Y-101550000D02*
X165050000Y-104350000D01*
D14*
%TO.N,/SPI_MOSI*%
X145990000Y-109460000D02*
X140400000Y-109460000D01*
X153037500Y-105732500D02*
X149717500Y-105732500D01*
X149717500Y-105732500D02*
X145990000Y-109460000D01*
%TO.N,GND*%
X146000000Y-112000000D02*
X151617500Y-106382500D01*
X140400000Y-112000000D02*
X146000000Y-112000000D01*
X151617500Y-106382500D02*
X153037500Y-106382500D01*
X158762500Y-104432500D02*
X160592500Y-104432500D01*
X160592500Y-104432500D02*
X161250000Y-103775000D01*
%TD*%
%TA.AperFunction,Conductor*%
%TO.N,GND*%
G36*
X172508363Y-85170185D02*
G01*
X172529005Y-85186819D01*
X176363181Y-89020995D01*
X176396666Y-89082318D01*
X176399500Y-89108676D01*
X176399500Y-122191324D01*
X176379815Y-122258363D01*
X176363181Y-122279005D01*
X172529005Y-126113181D01*
X172467682Y-126146666D01*
X172441324Y-126149500D01*
X139358676Y-126149500D01*
X139291637Y-126129815D01*
X139270995Y-126113181D01*
X135436819Y-122279005D01*
X135403334Y-122217682D01*
X135400500Y-122191324D01*
X135400500Y-121028711D01*
X138549500Y-121028711D01*
X138549500Y-121271288D01*
X138581161Y-121511785D01*
X138643947Y-121746104D01*
X138736773Y-121970205D01*
X138736776Y-121970212D01*
X138858064Y-122180289D01*
X138858066Y-122180292D01*
X138858067Y-122180293D01*
X139005733Y-122372736D01*
X139005739Y-122372743D01*
X139177256Y-122544260D01*
X139177262Y-122544265D01*
X139369711Y-122691936D01*
X139579788Y-122813224D01*
X139803900Y-122906054D01*
X140038211Y-122968838D01*
X140218586Y-122992584D01*
X140278711Y-123000500D01*
X140278712Y-123000500D01*
X140521289Y-123000500D01*
X140569388Y-122994167D01*
X140761789Y-122968838D01*
X140996100Y-122906054D01*
X141220212Y-122813224D01*
X141430289Y-122691936D01*
X141622738Y-122544265D01*
X141794265Y-122372738D01*
X141941936Y-122180289D01*
X142063224Y-121970212D01*
X142156054Y-121746100D01*
X142218838Y-121511789D01*
X142250500Y-121271288D01*
X142250500Y-121028712D01*
X142250500Y-121028711D01*
X169549500Y-121028711D01*
X169549500Y-121271288D01*
X169581161Y-121511785D01*
X169643947Y-121746104D01*
X169736773Y-121970205D01*
X169736776Y-121970212D01*
X169858064Y-122180289D01*
X169858066Y-122180292D01*
X169858067Y-122180293D01*
X170005733Y-122372736D01*
X170005739Y-122372743D01*
X170177256Y-122544260D01*
X170177262Y-122544265D01*
X170369711Y-122691936D01*
X170579788Y-122813224D01*
X170803900Y-122906054D01*
X171038211Y-122968838D01*
X171218586Y-122992584D01*
X171278711Y-123000500D01*
X171278712Y-123000500D01*
X171521289Y-123000500D01*
X171569388Y-122994167D01*
X171761789Y-122968838D01*
X171996100Y-122906054D01*
X172220212Y-122813224D01*
X172430289Y-122691936D01*
X172622738Y-122544265D01*
X172794265Y-122372738D01*
X172941936Y-122180289D01*
X173063224Y-121970212D01*
X173156054Y-121746100D01*
X173218838Y-121511789D01*
X173250500Y-121271288D01*
X173250500Y-121028712D01*
X173218838Y-120788211D01*
X173156054Y-120553900D01*
X173063224Y-120329788D01*
X172941936Y-120119711D01*
X172794265Y-119927262D01*
X172794260Y-119927256D01*
X172622743Y-119755739D01*
X172622736Y-119755733D01*
X172430293Y-119608067D01*
X172430292Y-119608066D01*
X172430289Y-119608064D01*
X172220212Y-119486776D01*
X172220205Y-119486773D01*
X171996104Y-119393947D01*
X171761785Y-119331161D01*
X171521289Y-119299500D01*
X171521288Y-119299500D01*
X171278712Y-119299500D01*
X171278711Y-119299500D01*
X171038214Y-119331161D01*
X170803895Y-119393947D01*
X170579794Y-119486773D01*
X170579785Y-119486777D01*
X170369706Y-119608067D01*
X170177263Y-119755733D01*
X170177256Y-119755739D01*
X170005739Y-119927256D01*
X170005733Y-119927263D01*
X169858067Y-120119706D01*
X169736777Y-120329785D01*
X169736773Y-120329794D01*
X169643947Y-120553895D01*
X169581161Y-120788214D01*
X169549500Y-121028711D01*
X142250500Y-121028711D01*
X142218838Y-120788211D01*
X142156054Y-120553900D01*
X142063224Y-120329788D01*
X141941936Y-120119711D01*
X141794265Y-119927262D01*
X141794260Y-119927256D01*
X141622743Y-119755739D01*
X141622736Y-119755733D01*
X141430293Y-119608067D01*
X141430292Y-119608066D01*
X141430289Y-119608064D01*
X141220212Y-119486776D01*
X141220205Y-119486773D01*
X140996104Y-119393947D01*
X140761785Y-119331161D01*
X140521289Y-119299500D01*
X140521288Y-119299500D01*
X140278712Y-119299500D01*
X140278711Y-119299500D01*
X140038214Y-119331161D01*
X139803895Y-119393947D01*
X139579794Y-119486773D01*
X139579785Y-119486777D01*
X139369706Y-119608067D01*
X139177263Y-119755733D01*
X139177256Y-119755739D01*
X139005739Y-119927256D01*
X139005733Y-119927263D01*
X138858067Y-120119706D01*
X138736777Y-120329785D01*
X138736773Y-120329794D01*
X138643947Y-120553895D01*
X138581161Y-120788214D01*
X138549500Y-121028711D01*
X135400500Y-121028711D01*
X135400500Y-111893753D01*
X139050000Y-111893753D01*
X139050000Y-112106246D01*
X139083242Y-112316127D01*
X139083242Y-112316130D01*
X139148904Y-112518217D01*
X139245375Y-112707550D01*
X139284728Y-112761716D01*
X139917037Y-112129408D01*
X139934075Y-112192993D01*
X139999901Y-112307007D01*
X140092993Y-112400099D01*
X140207007Y-112465925D01*
X140270590Y-112482962D01*
X139638282Y-113115269D01*
X139638282Y-113115270D01*
X139692449Y-113154624D01*
X139881782Y-113251095D01*
X140083870Y-113316757D01*
X140293754Y-113350000D01*
X140506246Y-113350000D01*
X140716127Y-113316757D01*
X140716130Y-113316757D01*
X140918217Y-113251095D01*
X141107554Y-113154622D01*
X141161716Y-113115270D01*
X141161717Y-113115270D01*
X140529408Y-112482962D01*
X140592993Y-112465925D01*
X140707007Y-112400099D01*
X140800099Y-112307007D01*
X140865925Y-112192993D01*
X140882962Y-112129408D01*
X141515270Y-112761717D01*
X141515270Y-112761716D01*
X141554622Y-112707554D01*
X141651095Y-112518217D01*
X141716757Y-112316130D01*
X141716757Y-112316127D01*
X141750000Y-112106246D01*
X141750000Y-111893753D01*
X141716757Y-111683872D01*
X141716757Y-111683869D01*
X141651095Y-111481782D01*
X141554624Y-111292449D01*
X141515270Y-111238282D01*
X141515269Y-111238282D01*
X140882962Y-111870590D01*
X140865925Y-111807007D01*
X140800099Y-111692993D01*
X140707007Y-111599901D01*
X140592993Y-111534075D01*
X140529409Y-111517037D01*
X141161716Y-110884728D01*
X141107550Y-110845375D01*
X140918217Y-110748904D01*
X140819287Y-110716760D01*
X140761611Y-110677323D01*
X140734413Y-110612964D01*
X140746328Y-110544118D01*
X140793572Y-110492642D01*
X140819290Y-110480897D01*
X140822445Y-110479873D01*
X140976788Y-110401232D01*
X141116928Y-110299414D01*
X141239414Y-110176928D01*
X141341232Y-110036788D01*
X141396557Y-109928206D01*
X141444531Y-109877409D01*
X141507042Y-109860500D01*
X146042725Y-109860500D01*
X146042727Y-109860500D01*
X146144588Y-109833207D01*
X146235913Y-109780480D01*
X149433892Y-106582501D01*
X151807988Y-106582501D01*
X151815442Y-106639127D01*
X151815444Y-106639133D01*
X151875899Y-106785085D01*
X151972076Y-106910425D01*
X152000985Y-106932607D01*
X152042189Y-106989034D01*
X152049500Y-107030984D01*
X152049500Y-107165760D01*
X152059426Y-107233892D01*
X152059426Y-107233893D01*
X152093230Y-107303041D01*
X152104988Y-107371914D01*
X152093230Y-107411959D01*
X152059426Y-107481106D01*
X152059426Y-107481107D01*
X152049500Y-107549239D01*
X152049500Y-107815760D01*
X152059426Y-107883891D01*
X152110803Y-107988985D01*
X152193514Y-108071696D01*
X152193515Y-108071696D01*
X152193517Y-108071698D01*
X152298607Y-108123073D01*
X152332673Y-108128036D01*
X152366739Y-108133000D01*
X152366740Y-108133000D01*
X153708261Y-108133000D01*
X153730971Y-108129691D01*
X153776393Y-108123073D01*
X153881483Y-108071698D01*
X153964198Y-107988983D01*
X154015573Y-107883893D01*
X154025500Y-107815760D01*
X154025500Y-107549240D01*
X154015573Y-107481107D01*
X153981768Y-107411958D01*
X153970010Y-107343087D01*
X153981769Y-107303040D01*
X153986576Y-107293207D01*
X154015573Y-107233893D01*
X154025500Y-107165760D01*
X154025500Y-107030984D01*
X154045185Y-106963945D01*
X154074015Y-106932607D01*
X154102923Y-106910425D01*
X154199100Y-106785086D01*
X154259555Y-106639131D01*
X154267012Y-106582500D01*
X153719642Y-106582500D01*
X153715548Y-106581298D01*
X153712747Y-106581802D01*
X153712747Y-106582000D01*
X153711647Y-106582000D01*
X153710674Y-106582175D01*
X153708261Y-106582000D01*
X153708260Y-106582000D01*
X152366740Y-106582000D01*
X152366739Y-106582000D01*
X152364326Y-106582175D01*
X152363518Y-106582000D01*
X152362253Y-106582000D01*
X152362253Y-106581726D01*
X152360579Y-106581363D01*
X152355358Y-106582500D01*
X151807990Y-106582500D01*
X151807988Y-106582501D01*
X149433892Y-106582501D01*
X149847074Y-106169319D01*
X149908397Y-106135834D01*
X149934755Y-106133000D01*
X151708394Y-106133000D01*
X151775433Y-106152685D01*
X151801622Y-106175241D01*
X151807988Y-106182500D01*
X152355358Y-106182500D01*
X152364326Y-106182825D01*
X152366739Y-106183000D01*
X152366740Y-106183000D01*
X153708261Y-106183000D01*
X153710674Y-106182825D01*
X153719642Y-106182500D01*
X154267010Y-106182500D01*
X154267011Y-106182498D01*
X154259557Y-106125872D01*
X154259555Y-106125866D01*
X154199100Y-105979914D01*
X154102921Y-105854571D01*
X154074013Y-105832389D01*
X154032811Y-105775961D01*
X154025500Y-105734014D01*
X154025500Y-105599239D01*
X154015573Y-105531108D01*
X154015572Y-105531106D01*
X153981768Y-105461958D01*
X153970010Y-105393087D01*
X153981769Y-105353040D01*
X153997319Y-105321232D01*
X154015573Y-105283893D01*
X154025500Y-105215760D01*
X154025500Y-104949240D01*
X154015573Y-104881107D01*
X153981768Y-104811958D01*
X153970010Y-104743087D01*
X153981769Y-104703040D01*
X154015573Y-104633893D01*
X154025500Y-104565760D01*
X154025500Y-104299240D01*
X154015573Y-104231107D01*
X153981768Y-104161958D01*
X153970010Y-104093087D01*
X153981769Y-104053040D01*
X153983255Y-104050000D01*
X154015573Y-103983893D01*
X154025500Y-103915760D01*
X154025500Y-103649240D01*
X154015573Y-103581107D01*
X153964198Y-103476017D01*
X153964196Y-103476015D01*
X153964196Y-103476014D01*
X153881485Y-103393303D01*
X153776391Y-103341926D01*
X153708261Y-103332000D01*
X153708260Y-103332000D01*
X152366740Y-103332000D01*
X152366739Y-103332000D01*
X152298608Y-103341926D01*
X152242408Y-103369401D01*
X152187948Y-103382000D01*
X151799755Y-103382000D01*
X151732716Y-103362315D01*
X151712074Y-103345681D01*
X149885915Y-101519522D01*
X149885913Y-101519520D01*
X149824582Y-101484110D01*
X149794589Y-101466793D01*
X149743657Y-101453146D01*
X149692727Y-101439500D01*
X149692726Y-101439500D01*
X141507042Y-101439500D01*
X141440003Y-101419815D01*
X141396557Y-101371794D01*
X141341233Y-101263213D01*
X141325937Y-101242160D01*
X141239414Y-101123072D01*
X141116928Y-101000586D01*
X140976788Y-100898768D01*
X140822445Y-100820127D01*
X140657701Y-100766598D01*
X140657699Y-100766597D01*
X140657698Y-100766597D01*
X140526271Y-100745781D01*
X140486611Y-100739500D01*
X140313389Y-100739500D01*
X140273728Y-100745781D01*
X140142302Y-100766597D01*
X139977552Y-100820128D01*
X139823211Y-100898768D01*
X139743256Y-100956859D01*
X139683072Y-101000586D01*
X139683070Y-101000588D01*
X139683069Y-101000588D01*
X139560588Y-101123069D01*
X139560588Y-101123070D01*
X139560586Y-101123072D01*
X139541385Y-101149500D01*
X139458768Y-101263211D01*
X139380128Y-101417552D01*
X139326597Y-101582302D01*
X139304631Y-101720995D01*
X139299500Y-101753389D01*
X139299500Y-101926611D01*
X139326598Y-102097701D01*
X139380127Y-102262445D01*
X139458768Y-102416788D01*
X139560586Y-102556928D01*
X139683072Y-102679414D01*
X139823212Y-102781232D01*
X139977555Y-102859873D01*
X140142299Y-102913402D01*
X140313389Y-102940500D01*
X140313390Y-102940500D01*
X140486610Y-102940500D01*
X140486611Y-102940500D01*
X140657701Y-102913402D01*
X140822445Y-102859873D01*
X140976788Y-102781232D01*
X141116928Y-102679414D01*
X141239414Y-102556928D01*
X141341232Y-102416788D01*
X141396557Y-102308206D01*
X141444531Y-102257409D01*
X141507042Y-102240500D01*
X149422745Y-102240500D01*
X149489784Y-102260185D01*
X149510426Y-102276819D01*
X151053926Y-103820319D01*
X151087411Y-103881642D01*
X151082427Y-103951334D01*
X151040555Y-104007267D01*
X150975091Y-104031684D01*
X150966245Y-104032000D01*
X141533563Y-104032000D01*
X141466524Y-104012315D01*
X141422605Y-103961630D01*
X141422085Y-103961896D01*
X141421013Y-103959793D01*
X141420769Y-103959511D01*
X141420178Y-103958153D01*
X141341231Y-103803211D01*
X141239414Y-103663072D01*
X141116928Y-103540586D01*
X140976788Y-103438768D01*
X140822445Y-103360127D01*
X140657701Y-103306598D01*
X140657699Y-103306597D01*
X140657698Y-103306597D01*
X140526271Y-103285781D01*
X140486611Y-103279500D01*
X140313389Y-103279500D01*
X140273728Y-103285781D01*
X140142302Y-103306597D01*
X139977552Y-103360128D01*
X139823211Y-103438768D01*
X139771947Y-103476014D01*
X139683072Y-103540586D01*
X139683070Y-103540588D01*
X139683069Y-103540588D01*
X139560588Y-103663069D01*
X139560588Y-103663070D01*
X139560586Y-103663072D01*
X139516859Y-103723256D01*
X139458768Y-103803211D01*
X139380128Y-103957552D01*
X139326597Y-104122302D01*
X139299500Y-104293389D01*
X139299500Y-104466610D01*
X139325994Y-104633891D01*
X139326598Y-104637701D01*
X139375492Y-104788181D01*
X139380128Y-104802447D01*
X139391364Y-104824500D01*
X139458768Y-104956788D01*
X139560586Y-105096928D01*
X139683072Y-105219414D01*
X139823212Y-105321232D01*
X139977555Y-105399873D01*
X140142299Y-105453402D01*
X140313389Y-105480500D01*
X140313390Y-105480500D01*
X140486610Y-105480500D01*
X140486611Y-105480500D01*
X140657701Y-105453402D01*
X140822445Y-105399873D01*
X140976788Y-105321232D01*
X141116928Y-105219414D01*
X141239414Y-105096928D01*
X141341232Y-104956788D01*
X141345078Y-104949240D01*
X141369809Y-104900705D01*
X141417783Y-104849909D01*
X141480293Y-104833000D01*
X147701245Y-104833000D01*
X147768284Y-104852685D01*
X147814039Y-104905489D01*
X147823983Y-104974647D01*
X147794958Y-105038203D01*
X147788926Y-105044681D01*
X146350426Y-106483181D01*
X146289103Y-106516666D01*
X146262745Y-106519500D01*
X141507042Y-106519500D01*
X141440003Y-106499815D01*
X141396557Y-106451794D01*
X141341233Y-106343213D01*
X141325937Y-106322160D01*
X141239414Y-106203072D01*
X141116928Y-106080586D01*
X140976788Y-105978768D01*
X140822445Y-105900127D01*
X140657701Y-105846598D01*
X140657699Y-105846597D01*
X140657698Y-105846597D01*
X140526271Y-105825781D01*
X140486611Y-105819500D01*
X140313389Y-105819500D01*
X140273728Y-105825781D01*
X140142302Y-105846597D01*
X139977552Y-105900128D01*
X139823211Y-105978768D01*
X139758891Y-106025500D01*
X139683072Y-106080586D01*
X139683070Y-106080588D01*
X139683069Y-106080588D01*
X139560588Y-106203069D01*
X139560588Y-106203070D01*
X139560586Y-106203072D01*
X139527044Y-106249239D01*
X139458768Y-106343211D01*
X139380128Y-106497552D01*
X139326597Y-106662302D01*
X139299500Y-106833389D01*
X139299500Y-107006610D01*
X139324706Y-107165760D01*
X139326598Y-107177701D01*
X139380127Y-107342445D01*
X139458768Y-107496788D01*
X139560586Y-107636928D01*
X139683072Y-107759414D01*
X139823212Y-107861232D01*
X139977555Y-107939873D01*
X140142299Y-107993402D01*
X140313389Y-108020500D01*
X140313390Y-108020500D01*
X140486610Y-108020500D01*
X140486611Y-108020500D01*
X140657701Y-107993402D01*
X140822445Y-107939873D01*
X140976788Y-107861232D01*
X141116928Y-107759414D01*
X141239414Y-107636928D01*
X141341232Y-107496788D01*
X141396557Y-107388206D01*
X141444531Y-107337409D01*
X141507042Y-107320500D01*
X146532725Y-107320500D01*
X146532727Y-107320500D01*
X146634588Y-107293207D01*
X146725913Y-107240480D01*
X148447074Y-105519319D01*
X148508397Y-105485834D01*
X148534755Y-105483000D01*
X149101245Y-105483000D01*
X149168284Y-105502685D01*
X149214039Y-105555489D01*
X149223983Y-105624647D01*
X149194958Y-105688203D01*
X149188926Y-105694681D01*
X145860426Y-109023181D01*
X145799103Y-109056666D01*
X145772745Y-109059500D01*
X141507042Y-109059500D01*
X141440003Y-109039815D01*
X141396557Y-108991794D01*
X141341233Y-108883213D01*
X141325937Y-108862160D01*
X141239414Y-108743072D01*
X141116928Y-108620586D01*
X140976788Y-108518768D01*
X140822445Y-108440127D01*
X140657701Y-108386598D01*
X140657699Y-108386597D01*
X140657698Y-108386597D01*
X140526271Y-108365781D01*
X140486611Y-108359500D01*
X140313389Y-108359500D01*
X140273728Y-108365781D01*
X140142302Y-108386597D01*
X139977552Y-108440128D01*
X139823211Y-108518768D01*
X139743256Y-108576859D01*
X139683072Y-108620586D01*
X139683070Y-108620588D01*
X139683069Y-108620588D01*
X139560588Y-108743069D01*
X139560588Y-108743070D01*
X139560586Y-108743072D01*
X139516859Y-108803256D01*
X139458768Y-108883211D01*
X139380128Y-109037552D01*
X139326597Y-109202302D01*
X139299500Y-109373389D01*
X139299500Y-109546611D01*
X139326598Y-109717701D01*
X139380127Y-109882445D01*
X139458768Y-110036788D01*
X139560586Y-110176928D01*
X139683072Y-110299414D01*
X139823212Y-110401232D01*
X139977555Y-110479873D01*
X139980708Y-110480897D01*
X139981752Y-110481611D01*
X139982048Y-110481734D01*
X139982022Y-110481795D01*
X140038383Y-110520330D01*
X140065585Y-110584688D01*
X140053674Y-110653535D01*
X140006433Y-110705013D01*
X139980712Y-110716760D01*
X139881783Y-110748904D01*
X139692439Y-110845380D01*
X139638282Y-110884727D01*
X139638282Y-110884728D01*
X140270591Y-111517037D01*
X140207007Y-111534075D01*
X140092993Y-111599901D01*
X139999901Y-111692993D01*
X139934075Y-111807007D01*
X139917037Y-111870591D01*
X139284728Y-111238282D01*
X139284727Y-111238282D01*
X139245380Y-111292439D01*
X139148904Y-111481782D01*
X139083242Y-111683869D01*
X139083242Y-111683872D01*
X139050000Y-111893753D01*
X135400500Y-111893753D01*
X135400500Y-98425321D01*
X139299500Y-98425321D01*
X139299500Y-100174678D01*
X139314032Y-100247735D01*
X139314033Y-100247739D01*
X139314034Y-100247740D01*
X139369399Y-100330601D01*
X139452260Y-100385966D01*
X139452264Y-100385967D01*
X139525321Y-100400499D01*
X139525324Y-100400500D01*
X139525326Y-100400500D01*
X141274676Y-100400500D01*
X141274677Y-100400499D01*
X141347740Y-100385966D01*
X141430601Y-100330601D01*
X141485966Y-100247740D01*
X141500500Y-100174674D01*
X141500500Y-99924500D01*
X141520185Y-99857461D01*
X141572989Y-99811706D01*
X141624500Y-99800500D01*
X162541324Y-99800500D01*
X162608363Y-99820185D01*
X162629005Y-99836819D01*
X164513181Y-101720995D01*
X164546666Y-101782318D01*
X164549500Y-101808676D01*
X164549500Y-104091324D01*
X164529815Y-104158363D01*
X164513181Y-104179005D01*
X163904005Y-104788181D01*
X163842682Y-104821666D01*
X163816324Y-104824500D01*
X161981532Y-104824500D01*
X161914493Y-104804815D01*
X161868738Y-104752011D01*
X161858794Y-104682853D01*
X161887819Y-104619297D01*
X161916435Y-104594962D01*
X161952728Y-104572575D01*
X161952732Y-104572572D01*
X162072572Y-104452732D01*
X162072575Y-104452728D01*
X162161542Y-104308492D01*
X162161547Y-104308481D01*
X162214855Y-104147606D01*
X162224999Y-104048322D01*
X162225000Y-104048309D01*
X162225000Y-104025000D01*
X160273234Y-104025000D01*
X160259941Y-104032257D01*
X160245708Y-104045693D01*
X160218157Y-104055072D01*
X160215802Y-104056359D01*
X160212297Y-104057068D01*
X160052721Y-104086988D01*
X159983203Y-104079995D01*
X159928500Y-104036528D01*
X159925135Y-104031262D01*
X159827921Y-103904571D01*
X159799013Y-103882389D01*
X159757811Y-103825961D01*
X159750500Y-103784014D01*
X159750500Y-103649239D01*
X159740573Y-103581107D01*
X159726827Y-103552989D01*
X159701742Y-103501677D01*
X160275000Y-103501677D01*
X160275000Y-103525000D01*
X161000000Y-103525000D01*
X161500000Y-103525000D01*
X162224999Y-103525000D01*
X162224999Y-103501692D01*
X162224998Y-103501677D01*
X162214855Y-103402392D01*
X162161547Y-103241518D01*
X162161542Y-103241507D01*
X162072575Y-103097271D01*
X162072572Y-103097267D01*
X161952732Y-102977427D01*
X161952728Y-102977424D01*
X161808492Y-102888457D01*
X161808481Y-102888452D01*
X161647606Y-102835144D01*
X161548322Y-102825000D01*
X161500000Y-102825000D01*
X161500000Y-103525000D01*
X161000000Y-103525000D01*
X161000000Y-102825000D01*
X160999999Y-102824999D01*
X160951693Y-102825000D01*
X160951675Y-102825001D01*
X160852392Y-102835144D01*
X160691518Y-102888452D01*
X160691507Y-102888457D01*
X160547271Y-102977424D01*
X160547267Y-102977427D01*
X160427427Y-103097267D01*
X160427424Y-103097271D01*
X160338457Y-103241507D01*
X160338452Y-103241518D01*
X160285144Y-103402393D01*
X160275000Y-103501677D01*
X159701742Y-103501677D01*
X159689198Y-103476017D01*
X159689196Y-103476015D01*
X159689196Y-103476014D01*
X159606485Y-103393303D01*
X159501391Y-103341926D01*
X159433261Y-103332000D01*
X159433260Y-103332000D01*
X158091740Y-103332000D01*
X158091739Y-103332000D01*
X158023608Y-103341926D01*
X157918514Y-103393303D01*
X157835803Y-103476014D01*
X157784426Y-103581108D01*
X157774500Y-103649239D01*
X157774500Y-103784014D01*
X157754815Y-103851053D01*
X157725987Y-103882389D01*
X157697078Y-103904571D01*
X157600899Y-104029913D01*
X157540444Y-104175868D01*
X157532987Y-104232500D01*
X158080358Y-104232500D01*
X158084451Y-104233701D01*
X158087253Y-104233197D01*
X158087253Y-104233000D01*
X158088353Y-104233000D01*
X158089326Y-104232825D01*
X158091739Y-104233000D01*
X158638500Y-104233000D01*
X158705539Y-104252685D01*
X158751294Y-104305489D01*
X158762500Y-104357000D01*
X158762500Y-104508000D01*
X158742815Y-104575039D01*
X158690011Y-104620794D01*
X158638500Y-104632000D01*
X158091739Y-104632000D01*
X158089326Y-104632175D01*
X158080358Y-104632500D01*
X157532990Y-104632500D01*
X157532988Y-104632501D01*
X157540442Y-104689127D01*
X157540444Y-104689133D01*
X157600899Y-104835085D01*
X157697076Y-104960425D01*
X157725985Y-104982607D01*
X157767189Y-105039034D01*
X157774500Y-105080984D01*
X157774500Y-105215760D01*
X157784426Y-105283892D01*
X157784426Y-105283893D01*
X157818230Y-105353041D01*
X157829988Y-105421914D01*
X157818230Y-105461959D01*
X157784426Y-105531106D01*
X157784426Y-105531107D01*
X157774500Y-105599239D01*
X157774500Y-105865760D01*
X157784426Y-105933892D01*
X157784426Y-105933893D01*
X157818230Y-106003041D01*
X157829988Y-106071914D01*
X157818230Y-106111959D01*
X157784426Y-106181106D01*
X157784426Y-106181107D01*
X157774500Y-106249239D01*
X157774500Y-106515760D01*
X157784426Y-106583892D01*
X157784426Y-106583893D01*
X157818230Y-106653041D01*
X157829988Y-106721914D01*
X157818230Y-106761959D01*
X157784426Y-106831106D01*
X157784426Y-106831107D01*
X157774500Y-106899239D01*
X157774500Y-107165760D01*
X157784426Y-107233892D01*
X157784426Y-107233893D01*
X157818230Y-107303041D01*
X157829988Y-107371914D01*
X157818230Y-107411959D01*
X157784426Y-107481106D01*
X157784426Y-107481107D01*
X157774500Y-107549239D01*
X157774500Y-107815760D01*
X157784426Y-107883891D01*
X157835803Y-107988985D01*
X157918514Y-108071696D01*
X157918515Y-108071696D01*
X157918517Y-108071698D01*
X158023607Y-108123073D01*
X158057673Y-108128036D01*
X158091739Y-108133000D01*
X158091740Y-108133000D01*
X159433261Y-108133000D01*
X159455971Y-108129691D01*
X159501393Y-108123073D01*
X159606483Y-108071698D01*
X159689198Y-107988983D01*
X159740573Y-107883893D01*
X159750500Y-107815760D01*
X159750500Y-107549240D01*
X159740573Y-107481107D01*
X159706768Y-107411958D01*
X159695010Y-107343087D01*
X159706769Y-107303040D01*
X159711576Y-107293207D01*
X159740573Y-107233893D01*
X159750500Y-107165760D01*
X159750500Y-106899240D01*
X159740573Y-106831107D01*
X159706768Y-106761958D01*
X159695010Y-106693087D01*
X159706769Y-106653040D01*
X159740573Y-106583893D01*
X159750500Y-106515760D01*
X159750500Y-106249240D01*
X159740573Y-106181107D01*
X159706768Y-106111958D01*
X159695010Y-106043087D01*
X159706769Y-106003040D01*
X159740573Y-105933893D01*
X159750500Y-105865760D01*
X159750500Y-105607000D01*
X159770185Y-105539961D01*
X159822989Y-105494206D01*
X159874500Y-105483000D01*
X160401024Y-105483000D01*
X160468063Y-105502685D01*
X160513818Y-105555489D01*
X160524314Y-105593747D01*
X160530588Y-105652115D01*
X160576781Y-105775961D01*
X160578372Y-105780226D01*
X160660313Y-105889687D01*
X160769774Y-105971628D01*
X160897886Y-106019412D01*
X160954515Y-106025500D01*
X161545484Y-106025499D01*
X161602114Y-106019412D01*
X161730226Y-105971628D01*
X161730229Y-105971626D01*
X161839681Y-105889692D01*
X161839683Y-105889689D01*
X161839687Y-105889687D01*
X161850541Y-105875188D01*
X161906476Y-105833317D01*
X161949807Y-105825500D01*
X164140890Y-105825500D01*
X164140892Y-105825500D01*
X164268186Y-105791392D01*
X164382314Y-105725500D01*
X165347104Y-104760707D01*
X165347109Y-104760704D01*
X165357312Y-104750500D01*
X165357314Y-104750500D01*
X165450500Y-104657314D01*
X165516392Y-104543186D01*
X165550500Y-104415892D01*
X165550500Y-101484108D01*
X165516392Y-101356814D01*
X165450500Y-101242686D01*
X165357314Y-101149500D01*
X163107314Y-98899500D01*
X163050250Y-98866554D01*
X162993187Y-98833608D01*
X162929539Y-98816554D01*
X162865892Y-98799500D01*
X162865891Y-98799500D01*
X141624500Y-98799500D01*
X141557461Y-98779815D01*
X141511706Y-98727011D01*
X141500500Y-98675500D01*
X141500500Y-98425323D01*
X141500499Y-98425321D01*
X141485967Y-98352264D01*
X141485966Y-98352260D01*
X141430601Y-98269399D01*
X141347740Y-98214034D01*
X141347739Y-98214033D01*
X141347735Y-98214032D01*
X141274677Y-98199500D01*
X141274674Y-98199500D01*
X139525326Y-98199500D01*
X139525323Y-98199500D01*
X139452264Y-98214032D01*
X139452260Y-98214033D01*
X139369399Y-98269399D01*
X139314033Y-98352260D01*
X139314032Y-98352264D01*
X139299500Y-98425321D01*
X135400500Y-98425321D01*
X135400500Y-90028711D01*
X138549500Y-90028711D01*
X138549500Y-90271288D01*
X138581161Y-90511785D01*
X138643947Y-90746104D01*
X138736773Y-90970205D01*
X138736776Y-90970212D01*
X138858064Y-91180289D01*
X138858066Y-91180292D01*
X138858067Y-91180293D01*
X139005733Y-91372736D01*
X139005739Y-91372743D01*
X139177256Y-91544260D01*
X139177262Y-91544265D01*
X139369711Y-91691936D01*
X139579788Y-91813224D01*
X139803900Y-91906054D01*
X140038211Y-91968838D01*
X140218586Y-91992584D01*
X140278711Y-92000500D01*
X140278712Y-92000500D01*
X140521289Y-92000500D01*
X140569388Y-91994167D01*
X140761789Y-91968838D01*
X140996100Y-91906054D01*
X141220212Y-91813224D01*
X141430289Y-91691936D01*
X141622738Y-91544265D01*
X141794265Y-91372738D01*
X141941936Y-91180289D01*
X142063224Y-90970212D01*
X142156054Y-90746100D01*
X142218838Y-90511789D01*
X142250500Y-90271288D01*
X142250500Y-90028712D01*
X142250500Y-90028711D01*
X169549500Y-90028711D01*
X169549500Y-90271288D01*
X169581161Y-90511785D01*
X169643947Y-90746104D01*
X169736773Y-90970205D01*
X169736776Y-90970212D01*
X169858064Y-91180289D01*
X169858066Y-91180292D01*
X169858067Y-91180293D01*
X170005733Y-91372736D01*
X170005739Y-91372743D01*
X170177256Y-91544260D01*
X170177262Y-91544265D01*
X170369711Y-91691936D01*
X170579788Y-91813224D01*
X170803900Y-91906054D01*
X171038211Y-91968838D01*
X171218586Y-91992584D01*
X171278711Y-92000500D01*
X171278712Y-92000500D01*
X171521289Y-92000500D01*
X171569388Y-91994167D01*
X171761789Y-91968838D01*
X171996100Y-91906054D01*
X172220212Y-91813224D01*
X172430289Y-91691936D01*
X172622738Y-91544265D01*
X172794265Y-91372738D01*
X172941936Y-91180289D01*
X173063224Y-90970212D01*
X173156054Y-90746100D01*
X173218838Y-90511789D01*
X173250500Y-90271288D01*
X173250500Y-90028712D01*
X173218838Y-89788211D01*
X173156054Y-89553900D01*
X173063224Y-89329788D01*
X172941936Y-89119711D01*
X172794265Y-88927262D01*
X172794260Y-88927256D01*
X172622743Y-88755739D01*
X172622736Y-88755733D01*
X172430293Y-88608067D01*
X172430292Y-88608066D01*
X172430289Y-88608064D01*
X172220212Y-88486776D01*
X172130220Y-88449500D01*
X171996104Y-88393947D01*
X171761785Y-88331161D01*
X171521289Y-88299500D01*
X171521288Y-88299500D01*
X171278712Y-88299500D01*
X171278711Y-88299500D01*
X171038214Y-88331161D01*
X170803895Y-88393947D01*
X170579794Y-88486773D01*
X170579785Y-88486777D01*
X170369706Y-88608067D01*
X170177263Y-88755733D01*
X170177256Y-88755739D01*
X170005739Y-88927256D01*
X170005733Y-88927263D01*
X169858067Y-89119706D01*
X169736777Y-89329785D01*
X169736773Y-89329794D01*
X169643947Y-89553895D01*
X169581161Y-89788214D01*
X169549500Y-90028711D01*
X142250500Y-90028711D01*
X142218838Y-89788211D01*
X142156054Y-89553900D01*
X142063224Y-89329788D01*
X141941936Y-89119711D01*
X141794265Y-88927262D01*
X141794260Y-88927256D01*
X141622743Y-88755739D01*
X141622736Y-88755733D01*
X141430293Y-88608067D01*
X141430292Y-88608066D01*
X141430289Y-88608064D01*
X141220212Y-88486776D01*
X141130220Y-88449500D01*
X140996104Y-88393947D01*
X140761785Y-88331161D01*
X140521289Y-88299500D01*
X140521288Y-88299500D01*
X140278712Y-88299500D01*
X140278711Y-88299500D01*
X140038214Y-88331161D01*
X139803895Y-88393947D01*
X139579794Y-88486773D01*
X139579785Y-88486777D01*
X139369706Y-88608067D01*
X139177263Y-88755733D01*
X139177256Y-88755739D01*
X139005739Y-88927256D01*
X139005733Y-88927263D01*
X138858067Y-89119706D01*
X138736777Y-89329785D01*
X138736773Y-89329794D01*
X138643947Y-89553895D01*
X138581161Y-89788214D01*
X138549500Y-90028711D01*
X135400500Y-90028711D01*
X135400500Y-89108676D01*
X135420185Y-89041637D01*
X135436819Y-89020995D01*
X139270995Y-85186819D01*
X139332318Y-85153334D01*
X139358676Y-85150500D01*
X172441324Y-85150500D01*
X172508363Y-85170185D01*
G37*
%TD.AperFunction*%
%TD*%
M02*
