%TF.GenerationSoftware,KiCad,Pcbnew,9.0.7-9.0.7~ubuntu22.04.1*%
%TF.CreationDate,2026-02-13T00:28:08-08:00*%
%TF.ProjectId,AS5047-Devboard,41533530-3437-42d4-9465-76626f617264,rev?*%
%TF.SameCoordinates,Original*%
%TF.FileFunction,Legend,Top*%
%TF.FilePolarity,Positive*%
%FSLAX46Y46*%
G04 Gerber Fmt 4.6, Leading zero omitted, Abs format (unit mm)*
G04 Created by KiCad (PCBNEW 9.0.7-9.0.7~ubuntu22.04.1) date 2026-02-13 00:28:08*
%MOMM*%
%LPD*%
G01*
G04 APERTURE LIST*
%ADD10C,0.150000*%
%ADD11C,0.120000*%
G04 APERTURE END LIST*
D10*
X155138095Y-101737319D02*
X155138095Y-102546842D01*
X155138095Y-102546842D02*
X155185714Y-102642080D01*
X155185714Y-102642080D02*
X155233333Y-102689700D01*
X155233333Y-102689700D02*
X155328571Y-102737319D01*
X155328571Y-102737319D02*
X155519047Y-102737319D01*
X155519047Y-102737319D02*
X155614285Y-102689700D01*
X155614285Y-102689700D02*
X155661904Y-102642080D01*
X155661904Y-102642080D02*
X155709523Y-102546842D01*
X155709523Y-102546842D02*
X155709523Y-101737319D01*
X156709523Y-102737319D02*
X156138095Y-102737319D01*
X156423809Y-102737319D02*
X156423809Y-101737319D01*
X156423809Y-101737319D02*
X156328571Y-101880176D01*
X156328571Y-101880176D02*
X156233333Y-101975414D01*
X156233333Y-101975414D02*
X156138095Y-102023033D01*
X161183333Y-107459580D02*
X161135714Y-107507200D01*
X161135714Y-107507200D02*
X160992857Y-107554819D01*
X160992857Y-107554819D02*
X160897619Y-107554819D01*
X160897619Y-107554819D02*
X160754762Y-107507200D01*
X160754762Y-107507200D02*
X160659524Y-107411961D01*
X160659524Y-107411961D02*
X160611905Y-107316723D01*
X160611905Y-107316723D02*
X160564286Y-107126247D01*
X160564286Y-107126247D02*
X160564286Y-106983390D01*
X160564286Y-106983390D02*
X160611905Y-106792914D01*
X160611905Y-106792914D02*
X160659524Y-106697676D01*
X160659524Y-106697676D02*
X160754762Y-106602438D01*
X160754762Y-106602438D02*
X160897619Y-106554819D01*
X160897619Y-106554819D02*
X160992857Y-106554819D01*
X160992857Y-106554819D02*
X161135714Y-106602438D01*
X161135714Y-106602438D02*
X161183333Y-106650057D01*
X162135714Y-107554819D02*
X161564286Y-107554819D01*
X161850000Y-107554819D02*
X161850000Y-106554819D01*
X161850000Y-106554819D02*
X161754762Y-106697676D01*
X161754762Y-106697676D02*
X161659524Y-106792914D01*
X161659524Y-106792914D02*
X161564286Y-106840533D01*
D11*
%TO.C,U1*%
X153590000Y-103122500D02*
X158210000Y-103122500D01*
X153590000Y-103322500D02*
X153590000Y-103122500D01*
X153590000Y-108342500D02*
X153590000Y-108142500D01*
X158210000Y-103122500D02*
X158210000Y-103322500D01*
X158210000Y-108142500D02*
X158210000Y-108342500D01*
X158210000Y-108342500D02*
X153590000Y-108342500D01*
X152950000Y-103322500D02*
X152610000Y-102852500D01*
X153290000Y-102852500D01*
X152950000Y-103322500D01*
G36*
X152950000Y-103322500D02*
G01*
X152610000Y-102852500D01*
X153290000Y-102852500D01*
X152950000Y-103322500D01*
G37*
%TO.C,C1*%
X160740000Y-104690580D02*
X160740000Y-104409420D01*
X161760000Y-104690580D02*
X161760000Y-104409420D01*
%TD*%
M02*
