%TF.GenerationSoftware,KiCad,Pcbnew,9.0.7-9.0.7~ubuntu24.04.1*%
%TF.CreationDate,2026-02-22T00:32:16-08:00*%
%TF.ProjectId,AS5047-Devboard,41533530-3437-42d4-9465-76626f617264,rev?*%
%TF.SameCoordinates,Original*%
%TF.FileFunction,Legend,Top*%
%TF.FilePolarity,Positive*%
%FSLAX46Y46*%
G04 Gerber Fmt 4.6, Leading zero omitted, Abs format (unit mm)*
G04 Created by KiCad (PCBNEW 9.0.7-9.0.7~ubuntu24.04.1) date 2026-02-22 00:32:16*
%MOMM*%
%LPD*%
G01*
G04 APERTURE LIST*
%ADD10C,0.100000*%
%ADD11C,0.125000*%
%ADD12C,0.150000*%
%ADD13C,0.120000*%
G04 APERTURE END LIST*
D10*
X151000000Y-101000000D02*
X160000000Y-101000000D01*
X160000000Y-110000000D01*
X151000000Y-110000000D01*
X151000000Y-101000000D01*
D11*
G36*
X154376167Y-99960105D02*
G01*
X154409440Y-99993378D01*
X154449456Y-100073411D01*
X154493545Y-100249765D01*
X154493545Y-100472472D01*
X154449456Y-100648826D01*
X154409440Y-100728857D01*
X154376164Y-100762134D01*
X154303195Y-100798619D01*
X154237467Y-100798619D01*
X154164497Y-100762134D01*
X154131221Y-100728857D01*
X154091205Y-100648826D01*
X154047117Y-100472471D01*
X154047117Y-100249765D01*
X154091205Y-100073410D01*
X154131222Y-99993378D01*
X154164495Y-99960105D01*
X154237467Y-99923619D01*
X154303195Y-99923619D01*
X154376167Y-99960105D01*
G37*
G36*
X151612187Y-100512904D02*
G01*
X151309427Y-100512904D01*
X151460807Y-100058762D01*
X151612187Y-100512904D01*
G37*
G36*
X157328548Y-99960105D02*
G01*
X157361821Y-99993378D01*
X157398307Y-100066350D01*
X157398307Y-100179697D01*
X157361821Y-100252669D01*
X157328548Y-100285942D01*
X157255576Y-100322428D01*
X156951879Y-100322428D01*
X156951879Y-99923619D01*
X157255576Y-99923619D01*
X157328548Y-99960105D01*
G37*
G36*
X157634418Y-101034730D02*
G01*
X150954021Y-101034730D01*
X150954021Y-100865550D01*
X151065132Y-100865550D01*
X151086524Y-100908334D01*
X151131905Y-100923461D01*
X151174689Y-100902069D01*
X151186767Y-100880883D01*
X151267760Y-100637904D01*
X151653854Y-100637904D01*
X151734847Y-100880883D01*
X151746925Y-100902069D01*
X151789709Y-100923461D01*
X151835090Y-100908334D01*
X151856482Y-100865550D01*
X151853433Y-100841354D01*
X151590180Y-100051595D01*
X152017355Y-100051595D01*
X152017355Y-100146833D01*
X152017965Y-100149904D01*
X152017513Y-100151263D01*
X152020158Y-100160923D01*
X152022113Y-100170751D01*
X152023126Y-100171764D01*
X152023953Y-100174784D01*
X152071572Y-100270022D01*
X152077719Y-100277943D01*
X152083280Y-100286265D01*
X152130899Y-100333884D01*
X152139220Y-100339444D01*
X152147142Y-100345592D01*
X152242380Y-100393211D01*
X152248984Y-100395019D01*
X152255173Y-100397943D01*
X152438991Y-100443897D01*
X152519024Y-100483914D01*
X152552297Y-100517187D01*
X152588783Y-100590159D01*
X152588783Y-100655887D01*
X152552297Y-100728857D01*
X152519021Y-100762134D01*
X152446052Y-100798619D01*
X152232855Y-100798619D01*
X152099619Y-100754207D01*
X152075424Y-100751158D01*
X152032640Y-100772550D01*
X152017513Y-100817931D01*
X152038905Y-100860715D01*
X152060091Y-100872793D01*
X152202947Y-100920412D01*
X152212887Y-100921664D01*
X152222712Y-100923619D01*
X152460807Y-100923619D01*
X152463878Y-100923008D01*
X152465237Y-100923461D01*
X152474897Y-100920815D01*
X152484725Y-100918861D01*
X152485738Y-100917847D01*
X152488758Y-100917021D01*
X152583996Y-100869402D01*
X152591911Y-100863258D01*
X152600240Y-100857694D01*
X152647859Y-100810074D01*
X152653422Y-100801746D01*
X152659566Y-100793831D01*
X152707185Y-100698593D01*
X152708011Y-100695573D01*
X152709025Y-100694560D01*
X152710979Y-100684732D01*
X152713625Y-100675072D01*
X152713172Y-100673713D01*
X152713783Y-100670642D01*
X152713783Y-100575404D01*
X152713172Y-100572332D01*
X152713625Y-100570974D01*
X152710979Y-100561313D01*
X152709025Y-100551486D01*
X152708011Y-100550472D01*
X152707185Y-100547453D01*
X152659566Y-100452215D01*
X152653418Y-100444293D01*
X152647858Y-100435972D01*
X152600239Y-100388353D01*
X152591917Y-100382792D01*
X152583996Y-100376645D01*
X152492886Y-100331090D01*
X152970046Y-100331090D01*
X152972401Y-100355363D01*
X152974494Y-100357921D01*
X152974494Y-100361226D01*
X152989363Y-100376095D01*
X153002691Y-100392385D01*
X153005982Y-100392714D01*
X153008319Y-100395051D01*
X153029356Y-100395051D01*
X153050290Y-100397144D01*
X153052848Y-100395051D01*
X153056153Y-100395051D01*
X153076430Y-100381503D01*
X153116876Y-100341057D01*
X153189848Y-100304571D01*
X153398433Y-100304571D01*
X153471405Y-100341057D01*
X153504678Y-100374330D01*
X153541164Y-100447302D01*
X153541164Y-100655887D01*
X153504678Y-100728857D01*
X153471402Y-100762134D01*
X153398433Y-100798619D01*
X153189848Y-100798619D01*
X153116878Y-100762134D01*
X153076431Y-100721686D01*
X153056154Y-100708138D01*
X153008319Y-100708137D01*
X152974494Y-100741962D01*
X152974493Y-100789797D01*
X152988041Y-100810074D01*
X153035660Y-100857694D01*
X153043988Y-100863258D01*
X153051904Y-100869402D01*
X153147142Y-100917021D01*
X153150161Y-100917847D01*
X153151175Y-100918861D01*
X153161002Y-100920815D01*
X153170663Y-100923461D01*
X153172021Y-100923008D01*
X153175093Y-100923619D01*
X153413188Y-100923619D01*
X153416259Y-100923008D01*
X153417618Y-100923461D01*
X153427278Y-100920815D01*
X153437106Y-100918861D01*
X153438119Y-100917847D01*
X153441139Y-100917021D01*
X153536377Y-100869402D01*
X153544292Y-100863258D01*
X153552621Y-100857694D01*
X153600240Y-100810074D01*
X153605803Y-100801746D01*
X153611947Y-100793831D01*
X153659566Y-100698593D01*
X153660392Y-100695573D01*
X153661406Y-100694560D01*
X153663360Y-100684732D01*
X153666006Y-100675072D01*
X153665553Y-100673713D01*
X153666164Y-100670642D01*
X153666164Y-100432547D01*
X153665553Y-100429475D01*
X153666006Y-100428117D01*
X153663360Y-100418456D01*
X153661406Y-100408629D01*
X153660392Y-100407615D01*
X153659566Y-100404596D01*
X153611947Y-100309358D01*
X153605799Y-100301436D01*
X153600239Y-100293115D01*
X153552620Y-100245496D01*
X153547495Y-100242071D01*
X153922117Y-100242071D01*
X153922117Y-100480166D01*
X153923610Y-100487675D01*
X153923983Y-100495324D01*
X153971602Y-100685800D01*
X153974525Y-100691988D01*
X153976334Y-100698593D01*
X154023953Y-100793831D01*
X154030093Y-100801742D01*
X154035660Y-100810074D01*
X154083279Y-100857694D01*
X154091607Y-100863258D01*
X154099523Y-100869402D01*
X154194761Y-100917021D01*
X154197780Y-100917847D01*
X154198794Y-100918861D01*
X154208621Y-100920815D01*
X154218282Y-100923461D01*
X154219640Y-100923008D01*
X154222712Y-100923619D01*
X154317950Y-100923619D01*
X154321021Y-100923008D01*
X154322380Y-100923461D01*
X154332040Y-100920815D01*
X154341868Y-100918861D01*
X154342881Y-100917847D01*
X154345901Y-100917021D01*
X154441139Y-100869402D01*
X154449054Y-100863258D01*
X154457383Y-100857694D01*
X154505002Y-100810074D01*
X154510565Y-100801746D01*
X154516709Y-100793831D01*
X154564328Y-100698593D01*
X154566136Y-100691988D01*
X154569060Y-100685800D01*
X154607456Y-100532216D01*
X154874656Y-100532216D01*
X154879256Y-100541416D01*
X154879256Y-100551703D01*
X154889543Y-100561990D01*
X154896048Y-100575000D01*
X154905805Y-100578252D01*
X154913080Y-100585527D01*
X154936998Y-100590285D01*
X155350688Y-100590285D01*
X155350688Y-100861119D01*
X155355446Y-100885037D01*
X155389270Y-100918861D01*
X155437106Y-100918861D01*
X155470930Y-100885037D01*
X155475688Y-100861119D01*
X155475688Y-100590285D01*
X155556045Y-100590285D01*
X155579963Y-100585527D01*
X155613787Y-100551703D01*
X155613787Y-100503867D01*
X155579963Y-100470043D01*
X155556045Y-100465285D01*
X155475688Y-100465285D01*
X155475688Y-100194452D01*
X155470930Y-100170534D01*
X155437106Y-100136710D01*
X155389270Y-100136710D01*
X155355446Y-100170534D01*
X155350688Y-100194452D01*
X155350688Y-100465285D01*
X155023712Y-100465285D01*
X155233074Y-99837201D01*
X155784018Y-99837201D01*
X155784018Y-99885037D01*
X155817842Y-99918861D01*
X155841760Y-99923619D01*
X156413642Y-99923619D01*
X156022408Y-100836499D01*
X156017360Y-100860357D01*
X156035125Y-100904771D01*
X156079093Y-100923614D01*
X156123507Y-100905849D01*
X156137302Y-100885739D01*
X156565872Y-99885739D01*
X156565980Y-99885224D01*
X156566168Y-99885037D01*
X156566168Y-99884340D01*
X156570921Y-99861881D01*
X156570616Y-99861119D01*
X156826879Y-99861119D01*
X156826879Y-100861119D01*
X156831637Y-100885037D01*
X156865461Y-100918861D01*
X156913297Y-100918861D01*
X156947121Y-100885037D01*
X156951879Y-100861119D01*
X156951879Y-100447428D01*
X157270331Y-100447428D01*
X157273402Y-100446817D01*
X157274761Y-100447270D01*
X157284421Y-100444624D01*
X157294249Y-100442670D01*
X157295262Y-100441656D01*
X157298282Y-100440830D01*
X157393520Y-100393211D01*
X157401441Y-100387063D01*
X157409763Y-100381503D01*
X157457382Y-100333884D01*
X157462942Y-100325562D01*
X157469090Y-100317641D01*
X157516709Y-100222403D01*
X157517535Y-100219383D01*
X157518549Y-100218370D01*
X157520503Y-100208542D01*
X157523149Y-100198882D01*
X157522696Y-100197523D01*
X157523307Y-100194452D01*
X157523307Y-100051595D01*
X157522696Y-100048523D01*
X157523149Y-100047165D01*
X157520503Y-100037504D01*
X157518549Y-100027677D01*
X157517535Y-100026663D01*
X157516709Y-100023644D01*
X157469090Y-99928406D01*
X157462942Y-99920484D01*
X157457382Y-99912163D01*
X157409763Y-99864544D01*
X157401441Y-99858983D01*
X157393520Y-99852836D01*
X157298282Y-99805217D01*
X157295262Y-99804390D01*
X157294249Y-99803377D01*
X157284421Y-99801422D01*
X157274761Y-99798777D01*
X157273402Y-99799229D01*
X157270331Y-99798619D01*
X156889379Y-99798619D01*
X156865461Y-99803377D01*
X156831637Y-99837201D01*
X156826879Y-99861119D01*
X156570616Y-99861119D01*
X156566168Y-99849998D01*
X156566168Y-99837201D01*
X156557636Y-99828669D01*
X156553156Y-99817468D01*
X156541394Y-99812427D01*
X156532344Y-99803377D01*
X156509824Y-99798897D01*
X156509187Y-99798624D01*
X156508942Y-99798721D01*
X156508426Y-99798619D01*
X155841760Y-99798619D01*
X155817842Y-99803377D01*
X155784018Y-99837201D01*
X155233074Y-99837201D01*
X155234386Y-99833265D01*
X155237435Y-99809069D01*
X155216043Y-99766285D01*
X155170662Y-99751158D01*
X155127878Y-99772550D01*
X155115800Y-99793736D01*
X154877705Y-100508021D01*
X154874656Y-100532216D01*
X154607456Y-100532216D01*
X154616679Y-100495325D01*
X154617051Y-100487675D01*
X154618545Y-100480166D01*
X154618545Y-100242071D01*
X154617051Y-100234561D01*
X154616679Y-100226912D01*
X154569060Y-100036437D01*
X154566136Y-100030248D01*
X154564328Y-100023644D01*
X154516709Y-99928406D01*
X154510561Y-99920484D01*
X154505001Y-99912163D01*
X154457382Y-99864544D01*
X154449060Y-99858983D01*
X154441139Y-99852836D01*
X154345901Y-99805217D01*
X154342881Y-99804390D01*
X154341868Y-99803377D01*
X154332040Y-99801422D01*
X154322380Y-99798777D01*
X154321021Y-99799229D01*
X154317950Y-99798619D01*
X154222712Y-99798619D01*
X154219640Y-99799229D01*
X154218282Y-99798777D01*
X154208621Y-99801422D01*
X154198794Y-99803377D01*
X154197780Y-99804390D01*
X154194761Y-99805217D01*
X154099523Y-99852836D01*
X154091601Y-99858983D01*
X154083280Y-99864544D01*
X154035661Y-99912163D01*
X154030100Y-99920484D01*
X154023953Y-99928406D01*
X153976334Y-100023644D01*
X153974525Y-100030248D01*
X153971602Y-100036437D01*
X153923983Y-100226913D01*
X153923610Y-100234561D01*
X153922117Y-100242071D01*
X153547495Y-100242071D01*
X153544298Y-100239935D01*
X153536377Y-100233788D01*
X153441139Y-100186169D01*
X153438119Y-100185342D01*
X153437106Y-100184329D01*
X153427278Y-100182374D01*
X153417618Y-100179729D01*
X153416259Y-100180181D01*
X153413188Y-100179571D01*
X153175093Y-100179571D01*
X153172021Y-100180181D01*
X153170663Y-100179729D01*
X153161002Y-100182374D01*
X153151175Y-100184329D01*
X153150161Y-100185342D01*
X153147142Y-100186169D01*
X153108215Y-100205632D01*
X153136417Y-99923619D01*
X153556045Y-99923619D01*
X153579963Y-99918861D01*
X153613787Y-99885037D01*
X153613787Y-99837201D01*
X153579963Y-99803377D01*
X153556045Y-99798619D01*
X153079855Y-99798619D01*
X153064900Y-99801593D01*
X153061801Y-99801284D01*
X153060304Y-99802508D01*
X153055937Y-99803377D01*
X153041062Y-99818251D01*
X153024779Y-99831574D01*
X153023479Y-99835834D01*
X153022113Y-99837201D01*
X153022113Y-99840315D01*
X153017665Y-99854900D01*
X152970046Y-100331090D01*
X152492886Y-100331090D01*
X152488758Y-100329026D01*
X152482153Y-100327217D01*
X152475965Y-100324294D01*
X152292147Y-100278339D01*
X152212114Y-100238323D01*
X152178841Y-100205050D01*
X152142355Y-100132078D01*
X152142355Y-100066350D01*
X152178841Y-99993378D01*
X152212114Y-99960105D01*
X152285086Y-99923619D01*
X152498283Y-99923619D01*
X152631518Y-99968031D01*
X152655714Y-99971080D01*
X152698498Y-99949688D01*
X152713625Y-99904307D01*
X152692233Y-99861523D01*
X152671047Y-99849445D01*
X152528190Y-99801826D01*
X152518251Y-99800573D01*
X152508426Y-99798619D01*
X152270331Y-99798619D01*
X152267259Y-99799229D01*
X152265901Y-99798777D01*
X152256240Y-99801422D01*
X152246413Y-99803377D01*
X152245399Y-99804390D01*
X152242380Y-99805217D01*
X152147142Y-99852836D01*
X152139220Y-99858983D01*
X152130899Y-99864544D01*
X152083280Y-99912163D01*
X152077719Y-99920484D01*
X152071572Y-99928406D01*
X152023953Y-100023644D01*
X152023126Y-100026663D01*
X152022113Y-100027677D01*
X152020158Y-100037504D01*
X152017513Y-100047165D01*
X152017965Y-100048523D01*
X152017355Y-100051595D01*
X151590180Y-100051595D01*
X151520100Y-99841355D01*
X151508022Y-99820169D01*
X151503845Y-99818080D01*
X151501757Y-99813904D01*
X151482962Y-99807639D01*
X151465238Y-99798777D01*
X151460807Y-99800254D01*
X151456376Y-99798777D01*
X151438652Y-99807639D01*
X151419857Y-99813904D01*
X151417768Y-99818080D01*
X151413592Y-99820169D01*
X151401514Y-99841355D01*
X151068181Y-100841355D01*
X151065132Y-100865550D01*
X150954021Y-100865550D01*
X150954021Y-99640047D01*
X157634418Y-99640047D01*
X157634418Y-101034730D01*
G37*
D12*
X155138095Y-101737319D02*
X155138095Y-102546842D01*
X155138095Y-102546842D02*
X155185714Y-102642080D01*
X155185714Y-102642080D02*
X155233333Y-102689700D01*
X155233333Y-102689700D02*
X155328571Y-102737319D01*
X155328571Y-102737319D02*
X155519047Y-102737319D01*
X155519047Y-102737319D02*
X155614285Y-102689700D01*
X155614285Y-102689700D02*
X155661904Y-102642080D01*
X155661904Y-102642080D02*
X155709523Y-102546842D01*
X155709523Y-102546842D02*
X155709523Y-101737319D01*
X156709523Y-102737319D02*
X156138095Y-102737319D01*
X156423809Y-102737319D02*
X156423809Y-101737319D01*
X156423809Y-101737319D02*
X156328571Y-101880176D01*
X156328571Y-101880176D02*
X156233333Y-101975414D01*
X156233333Y-101975414D02*
X156138095Y-102023033D01*
X161183333Y-107459580D02*
X161135714Y-107507200D01*
X161135714Y-107507200D02*
X160992857Y-107554819D01*
X160992857Y-107554819D02*
X160897619Y-107554819D01*
X160897619Y-107554819D02*
X160754762Y-107507200D01*
X160754762Y-107507200D02*
X160659524Y-107411961D01*
X160659524Y-107411961D02*
X160611905Y-107316723D01*
X160611905Y-107316723D02*
X160564286Y-107126247D01*
X160564286Y-107126247D02*
X160564286Y-106983390D01*
X160564286Y-106983390D02*
X160611905Y-106792914D01*
X160611905Y-106792914D02*
X160659524Y-106697676D01*
X160659524Y-106697676D02*
X160754762Y-106602438D01*
X160754762Y-106602438D02*
X160897619Y-106554819D01*
X160897619Y-106554819D02*
X160992857Y-106554819D01*
X160992857Y-106554819D02*
X161135714Y-106602438D01*
X161135714Y-106602438D02*
X161183333Y-106650057D01*
X162135714Y-107554819D02*
X161564286Y-107554819D01*
X161850000Y-107554819D02*
X161850000Y-106554819D01*
X161850000Y-106554819D02*
X161754762Y-106697676D01*
X161754762Y-106697676D02*
X161659524Y-106792914D01*
X161659524Y-106792914D02*
X161564286Y-106840533D01*
D13*
%TO.C,U1*%
X153590000Y-103122500D02*
X158210000Y-103122500D01*
X153590000Y-103322500D02*
X153590000Y-103122500D01*
X153590000Y-108342500D02*
X153590000Y-108142500D01*
X158210000Y-103122500D02*
X158210000Y-103322500D01*
X158210000Y-108142500D02*
X158210000Y-108342500D01*
X158210000Y-108342500D02*
X153590000Y-108342500D01*
X152950000Y-103322500D02*
X152610000Y-102852500D01*
X153290000Y-102852500D01*
X152950000Y-103322500D01*
G36*
X152950000Y-103322500D02*
G01*
X152610000Y-102852500D01*
X153290000Y-102852500D01*
X152950000Y-103322500D01*
G37*
%TO.C,C1*%
X160740000Y-104690580D02*
X160740000Y-104409420D01*
X161760000Y-104690580D02*
X161760000Y-104409420D01*
%TD*%
M02*
