%TF.GenerationSoftware,KiCad,Pcbnew,9.0.7-9.0.7~ubuntu24.04.1*%
%TF.CreationDate,2026-02-24T14:49:22-08:00*%
%TF.ProjectId,AS5047-Devboard,41533530-3437-42d4-9465-76626f617264,rev?*%
%TF.SameCoordinates,Original*%
%TF.FileFunction,Legend,Bot*%
%TF.FilePolarity,Positive*%
%FSLAX46Y46*%
G04 Gerber Fmt 4.6, Leading zero omitted, Abs format (unit mm)*
G04 Created by KiCad (PCBNEW 9.0.7-9.0.7~ubuntu24.04.1) date 2026-02-24 14:49:22*
%MOMM*%
%LPD*%
G01*
G04 APERTURE LIST*
%ADD10C,0.300000*%
%ADD11C,0.375000*%
%ADD12C,0.187500*%
%ADD13C,0.250000*%
%ADD14C,0.150000*%
%ADD15C,0.120000*%
%ADD16C,0.000000*%
G04 APERTURE END LIST*
D10*
X146088346Y-109907971D02*
X146159774Y-109979400D01*
X146159774Y-109979400D02*
X146374060Y-110050828D01*
X146374060Y-110050828D02*
X146516917Y-110050828D01*
X146516917Y-110050828D02*
X146731203Y-109979400D01*
X146731203Y-109979400D02*
X146874060Y-109836542D01*
X146874060Y-109836542D02*
X146945489Y-109693685D01*
X146945489Y-109693685D02*
X147016917Y-109407971D01*
X147016917Y-109407971D02*
X147016917Y-109193685D01*
X147016917Y-109193685D02*
X146945489Y-108907971D01*
X146945489Y-108907971D02*
X146874060Y-108765114D01*
X146874060Y-108765114D02*
X146731203Y-108622257D01*
X146731203Y-108622257D02*
X146516917Y-108550828D01*
X146516917Y-108550828D02*
X146374060Y-108550828D01*
X146374060Y-108550828D02*
X146159774Y-108622257D01*
X146159774Y-108622257D02*
X146088346Y-108693685D01*
X144731203Y-110050828D02*
X145445489Y-110050828D01*
X145445489Y-110050828D02*
X145445489Y-108550828D01*
X144231203Y-110050828D02*
X144231203Y-108550828D01*
X143374060Y-110050828D02*
X144016917Y-109193685D01*
X143374060Y-108550828D02*
X144231203Y-109407971D01*
D11*
X173931861Y-97926382D02*
X172503290Y-97926382D01*
X174217575Y-98783525D02*
X173217575Y-95783525D01*
X173217575Y-95783525D02*
X172217575Y-98783525D01*
X171360432Y-98640668D02*
X170931861Y-98783525D01*
X170931861Y-98783525D02*
X170217575Y-98783525D01*
X170217575Y-98783525D02*
X169931861Y-98640668D01*
X169931861Y-98640668D02*
X169789003Y-98497810D01*
X169789003Y-98497810D02*
X169646146Y-98212096D01*
X169646146Y-98212096D02*
X169646146Y-97926382D01*
X169646146Y-97926382D02*
X169789003Y-97640668D01*
X169789003Y-97640668D02*
X169931861Y-97497810D01*
X169931861Y-97497810D02*
X170217575Y-97354953D01*
X170217575Y-97354953D02*
X170789003Y-97212096D01*
X170789003Y-97212096D02*
X171074718Y-97069239D01*
X171074718Y-97069239D02*
X171217575Y-96926382D01*
X171217575Y-96926382D02*
X171360432Y-96640668D01*
X171360432Y-96640668D02*
X171360432Y-96354953D01*
X171360432Y-96354953D02*
X171217575Y-96069239D01*
X171217575Y-96069239D02*
X171074718Y-95926382D01*
X171074718Y-95926382D02*
X170789003Y-95783525D01*
X170789003Y-95783525D02*
X170074718Y-95783525D01*
X170074718Y-95783525D02*
X169646146Y-95926382D01*
X166931860Y-95783525D02*
X168360432Y-95783525D01*
X168360432Y-95783525D02*
X168503289Y-97212096D01*
X168503289Y-97212096D02*
X168360432Y-97069239D01*
X168360432Y-97069239D02*
X168074718Y-96926382D01*
X168074718Y-96926382D02*
X167360432Y-96926382D01*
X167360432Y-96926382D02*
X167074718Y-97069239D01*
X167074718Y-97069239D02*
X166931860Y-97212096D01*
X166931860Y-97212096D02*
X166789003Y-97497810D01*
X166789003Y-97497810D02*
X166789003Y-98212096D01*
X166789003Y-98212096D02*
X166931860Y-98497810D01*
X166931860Y-98497810D02*
X167074718Y-98640668D01*
X167074718Y-98640668D02*
X167360432Y-98783525D01*
X167360432Y-98783525D02*
X168074718Y-98783525D01*
X168074718Y-98783525D02*
X168360432Y-98640668D01*
X168360432Y-98640668D02*
X168503289Y-98497810D01*
X164931860Y-95783525D02*
X164646146Y-95783525D01*
X164646146Y-95783525D02*
X164360432Y-95926382D01*
X164360432Y-95926382D02*
X164217575Y-96069239D01*
X164217575Y-96069239D02*
X164074717Y-96354953D01*
X164074717Y-96354953D02*
X163931860Y-96926382D01*
X163931860Y-96926382D02*
X163931860Y-97640668D01*
X163931860Y-97640668D02*
X164074717Y-98212096D01*
X164074717Y-98212096D02*
X164217575Y-98497810D01*
X164217575Y-98497810D02*
X164360432Y-98640668D01*
X164360432Y-98640668D02*
X164646146Y-98783525D01*
X164646146Y-98783525D02*
X164931860Y-98783525D01*
X164931860Y-98783525D02*
X165217575Y-98640668D01*
X165217575Y-98640668D02*
X165360432Y-98497810D01*
X165360432Y-98497810D02*
X165503289Y-98212096D01*
X165503289Y-98212096D02*
X165646146Y-97640668D01*
X165646146Y-97640668D02*
X165646146Y-96926382D01*
X165646146Y-96926382D02*
X165503289Y-96354953D01*
X165503289Y-96354953D02*
X165360432Y-96069239D01*
X165360432Y-96069239D02*
X165217575Y-95926382D01*
X165217575Y-95926382D02*
X164931860Y-95783525D01*
X161360432Y-96783525D02*
X161360432Y-98783525D01*
X162074717Y-95640668D02*
X162789003Y-97783525D01*
X162789003Y-97783525D02*
X160931860Y-97783525D01*
X160074717Y-95783525D02*
X158074717Y-95783525D01*
X158074717Y-95783525D02*
X159360431Y-98783525D01*
X156931860Y-98783525D02*
X156931860Y-95783525D01*
X156931860Y-95783525D02*
X155789003Y-95783525D01*
X155789003Y-95783525D02*
X155503288Y-95926382D01*
X155503288Y-95926382D02*
X155360431Y-96069239D01*
X155360431Y-96069239D02*
X155217574Y-96354953D01*
X155217574Y-96354953D02*
X155217574Y-96783525D01*
X155217574Y-96783525D02*
X155360431Y-97069239D01*
X155360431Y-97069239D02*
X155503288Y-97212096D01*
X155503288Y-97212096D02*
X155789003Y-97354953D01*
X155789003Y-97354953D02*
X156931860Y-97354953D01*
X173789004Y-103613357D02*
X173789004Y-100613357D01*
X173789004Y-100613357D02*
X173074718Y-100613357D01*
X173074718Y-100613357D02*
X172646147Y-100756214D01*
X172646147Y-100756214D02*
X172360432Y-101041928D01*
X172360432Y-101041928D02*
X172217575Y-101327642D01*
X172217575Y-101327642D02*
X172074718Y-101899071D01*
X172074718Y-101899071D02*
X172074718Y-102327642D01*
X172074718Y-102327642D02*
X172217575Y-102899071D01*
X172217575Y-102899071D02*
X172360432Y-103184785D01*
X172360432Y-103184785D02*
X172646147Y-103470500D01*
X172646147Y-103470500D02*
X173074718Y-103613357D01*
X173074718Y-103613357D02*
X173789004Y-103613357D01*
X169646147Y-103470500D02*
X169931861Y-103613357D01*
X169931861Y-103613357D02*
X170503290Y-103613357D01*
X170503290Y-103613357D02*
X170789004Y-103470500D01*
X170789004Y-103470500D02*
X170931861Y-103184785D01*
X170931861Y-103184785D02*
X170931861Y-102041928D01*
X170931861Y-102041928D02*
X170789004Y-101756214D01*
X170789004Y-101756214D02*
X170503290Y-101613357D01*
X170503290Y-101613357D02*
X169931861Y-101613357D01*
X169931861Y-101613357D02*
X169646147Y-101756214D01*
X169646147Y-101756214D02*
X169503290Y-102041928D01*
X169503290Y-102041928D02*
X169503290Y-102327642D01*
X169503290Y-102327642D02*
X170931861Y-102613357D01*
X168503289Y-101613357D02*
X167789003Y-103613357D01*
X167789003Y-103613357D02*
X167074718Y-101613357D01*
X165931861Y-103613357D02*
X165931861Y-100613357D01*
X165931861Y-101756214D02*
X165646147Y-101613357D01*
X165646147Y-101613357D02*
X165074718Y-101613357D01*
X165074718Y-101613357D02*
X164789004Y-101756214D01*
X164789004Y-101756214D02*
X164646147Y-101899071D01*
X164646147Y-101899071D02*
X164503289Y-102184785D01*
X164503289Y-102184785D02*
X164503289Y-103041928D01*
X164503289Y-103041928D02*
X164646147Y-103327642D01*
X164646147Y-103327642D02*
X164789004Y-103470500D01*
X164789004Y-103470500D02*
X165074718Y-103613357D01*
X165074718Y-103613357D02*
X165646147Y-103613357D01*
X165646147Y-103613357D02*
X165931861Y-103470500D01*
X162789003Y-103613357D02*
X163074718Y-103470500D01*
X163074718Y-103470500D02*
X163217575Y-103327642D01*
X163217575Y-103327642D02*
X163360432Y-103041928D01*
X163360432Y-103041928D02*
X163360432Y-102184785D01*
X163360432Y-102184785D02*
X163217575Y-101899071D01*
X163217575Y-101899071D02*
X163074718Y-101756214D01*
X163074718Y-101756214D02*
X162789003Y-101613357D01*
X162789003Y-101613357D02*
X162360432Y-101613357D01*
X162360432Y-101613357D02*
X162074718Y-101756214D01*
X162074718Y-101756214D02*
X161931861Y-101899071D01*
X161931861Y-101899071D02*
X161789003Y-102184785D01*
X161789003Y-102184785D02*
X161789003Y-103041928D01*
X161789003Y-103041928D02*
X161931861Y-103327642D01*
X161931861Y-103327642D02*
X162074718Y-103470500D01*
X162074718Y-103470500D02*
X162360432Y-103613357D01*
X162360432Y-103613357D02*
X162789003Y-103613357D01*
X159217575Y-103613357D02*
X159217575Y-102041928D01*
X159217575Y-102041928D02*
X159360432Y-101756214D01*
X159360432Y-101756214D02*
X159646146Y-101613357D01*
X159646146Y-101613357D02*
X160217575Y-101613357D01*
X160217575Y-101613357D02*
X160503289Y-101756214D01*
X159217575Y-103470500D02*
X159503289Y-103613357D01*
X159503289Y-103613357D02*
X160217575Y-103613357D01*
X160217575Y-103613357D02*
X160503289Y-103470500D01*
X160503289Y-103470500D02*
X160646146Y-103184785D01*
X160646146Y-103184785D02*
X160646146Y-102899071D01*
X160646146Y-102899071D02*
X160503289Y-102613357D01*
X160503289Y-102613357D02*
X160217575Y-102470500D01*
X160217575Y-102470500D02*
X159503289Y-102470500D01*
X159503289Y-102470500D02*
X159217575Y-102327642D01*
X157789003Y-103613357D02*
X157789003Y-101613357D01*
X157789003Y-102184785D02*
X157646146Y-101899071D01*
X157646146Y-101899071D02*
X157503289Y-101756214D01*
X157503289Y-101756214D02*
X157217574Y-101613357D01*
X157217574Y-101613357D02*
X156931860Y-101613357D01*
X154646146Y-103613357D02*
X154646146Y-100613357D01*
X154646146Y-103470500D02*
X154931860Y-103613357D01*
X154931860Y-103613357D02*
X155503288Y-103613357D01*
X155503288Y-103613357D02*
X155789003Y-103470500D01*
X155789003Y-103470500D02*
X155931860Y-103327642D01*
X155931860Y-103327642D02*
X156074717Y-103041928D01*
X156074717Y-103041928D02*
X156074717Y-102184785D01*
X156074717Y-102184785D02*
X155931860Y-101899071D01*
X155931860Y-101899071D02*
X155789003Y-101756214D01*
X155789003Y-101756214D02*
X155503288Y-101613357D01*
X155503288Y-101613357D02*
X154931860Y-101613357D01*
X154931860Y-101613357D02*
X154646146Y-101756214D01*
D10*
X147338346Y-98550828D02*
X146409774Y-98550828D01*
X146409774Y-98550828D02*
X146909774Y-99122257D01*
X146909774Y-99122257D02*
X146695489Y-99122257D01*
X146695489Y-99122257D02*
X146552632Y-99193685D01*
X146552632Y-99193685D02*
X146481203Y-99265114D01*
X146481203Y-99265114D02*
X146409774Y-99407971D01*
X146409774Y-99407971D02*
X146409774Y-99765114D01*
X146409774Y-99765114D02*
X146481203Y-99907971D01*
X146481203Y-99907971D02*
X146552632Y-99979400D01*
X146552632Y-99979400D02*
X146695489Y-100050828D01*
X146695489Y-100050828D02*
X147124060Y-100050828D01*
X147124060Y-100050828D02*
X147266917Y-99979400D01*
X147266917Y-99979400D02*
X147338346Y-99907971D01*
X145981203Y-98550828D02*
X145481203Y-100050828D01*
X145481203Y-100050828D02*
X144981203Y-98550828D01*
X144624061Y-98550828D02*
X143695489Y-98550828D01*
X143695489Y-98550828D02*
X144195489Y-99122257D01*
X144195489Y-99122257D02*
X143981204Y-99122257D01*
X143981204Y-99122257D02*
X143838347Y-99193685D01*
X143838347Y-99193685D02*
X143766918Y-99265114D01*
X143766918Y-99265114D02*
X143695489Y-99407971D01*
X143695489Y-99407971D02*
X143695489Y-99765114D01*
X143695489Y-99765114D02*
X143766918Y-99907971D01*
X143766918Y-99907971D02*
X143838347Y-99979400D01*
X143838347Y-99979400D02*
X143981204Y-100050828D01*
X143981204Y-100050828D02*
X144409775Y-100050828D01*
X144409775Y-100050828D02*
X144552632Y-99979400D01*
X144552632Y-99979400D02*
X144624061Y-99907971D01*
X147445489Y-105050828D02*
X147445489Y-103550828D01*
X147445489Y-103550828D02*
X146945489Y-104622257D01*
X146945489Y-104622257D02*
X146445489Y-103550828D01*
X146445489Y-103550828D02*
X146445489Y-105050828D01*
X145445488Y-103550828D02*
X145159774Y-103550828D01*
X145159774Y-103550828D02*
X145016917Y-103622257D01*
X145016917Y-103622257D02*
X144874060Y-103765114D01*
X144874060Y-103765114D02*
X144802631Y-104050828D01*
X144802631Y-104050828D02*
X144802631Y-104550828D01*
X144802631Y-104550828D02*
X144874060Y-104836542D01*
X144874060Y-104836542D02*
X145016917Y-104979400D01*
X145016917Y-104979400D02*
X145159774Y-105050828D01*
X145159774Y-105050828D02*
X145445488Y-105050828D01*
X145445488Y-105050828D02*
X145588346Y-104979400D01*
X145588346Y-104979400D02*
X145731203Y-104836542D01*
X145731203Y-104836542D02*
X145802631Y-104550828D01*
X145802631Y-104550828D02*
X145802631Y-104050828D01*
X145802631Y-104050828D02*
X145731203Y-103765114D01*
X145731203Y-103765114D02*
X145588346Y-103622257D01*
X145588346Y-103622257D02*
X145445488Y-103550828D01*
X144231202Y-104979400D02*
X144016917Y-105050828D01*
X144016917Y-105050828D02*
X143659774Y-105050828D01*
X143659774Y-105050828D02*
X143516917Y-104979400D01*
X143516917Y-104979400D02*
X143445488Y-104907971D01*
X143445488Y-104907971D02*
X143374059Y-104765114D01*
X143374059Y-104765114D02*
X143374059Y-104622257D01*
X143374059Y-104622257D02*
X143445488Y-104479400D01*
X143445488Y-104479400D02*
X143516917Y-104407971D01*
X143516917Y-104407971D02*
X143659774Y-104336542D01*
X143659774Y-104336542D02*
X143945488Y-104265114D01*
X143945488Y-104265114D02*
X144088345Y-104193685D01*
X144088345Y-104193685D02*
X144159774Y-104122257D01*
X144159774Y-104122257D02*
X144231202Y-103979400D01*
X144231202Y-103979400D02*
X144231202Y-103836542D01*
X144231202Y-103836542D02*
X144159774Y-103693685D01*
X144159774Y-103693685D02*
X144088345Y-103622257D01*
X144088345Y-103622257D02*
X143945488Y-103550828D01*
X143945488Y-103550828D02*
X143588345Y-103550828D01*
X143588345Y-103550828D02*
X143374059Y-103622257D01*
X142731203Y-105050828D02*
X142731203Y-103550828D01*
D12*
X155412359Y-114806678D02*
X155912359Y-114092392D01*
X156269502Y-114806678D02*
X156269502Y-113306678D01*
X156269502Y-113306678D02*
X155698073Y-113306678D01*
X155698073Y-113306678D02*
X155555216Y-113378107D01*
X155555216Y-113378107D02*
X155483787Y-113449535D01*
X155483787Y-113449535D02*
X155412359Y-113592392D01*
X155412359Y-113592392D02*
X155412359Y-113806678D01*
X155412359Y-113806678D02*
X155483787Y-113949535D01*
X155483787Y-113949535D02*
X155555216Y-114020964D01*
X155555216Y-114020964D02*
X155698073Y-114092392D01*
X155698073Y-114092392D02*
X156269502Y-114092392D01*
X154198073Y-114735250D02*
X154340930Y-114806678D01*
X154340930Y-114806678D02*
X154626645Y-114806678D01*
X154626645Y-114806678D02*
X154769502Y-114735250D01*
X154769502Y-114735250D02*
X154840930Y-114592392D01*
X154840930Y-114592392D02*
X154840930Y-114020964D01*
X154840930Y-114020964D02*
X154769502Y-113878107D01*
X154769502Y-113878107D02*
X154626645Y-113806678D01*
X154626645Y-113806678D02*
X154340930Y-113806678D01*
X154340930Y-113806678D02*
X154198073Y-113878107D01*
X154198073Y-113878107D02*
X154126645Y-114020964D01*
X154126645Y-114020964D02*
X154126645Y-114163821D01*
X154126645Y-114163821D02*
X154840930Y-114306678D01*
X153626645Y-113806678D02*
X153269502Y-114806678D01*
X153269502Y-114806678D02*
X152912359Y-113806678D01*
X151555216Y-114806678D02*
X152412359Y-114806678D01*
X151983788Y-114806678D02*
X151983788Y-113306678D01*
X151983788Y-113306678D02*
X152126645Y-113520964D01*
X152126645Y-113520964D02*
X152269502Y-113663821D01*
X152269502Y-113663821D02*
X152412359Y-113735250D01*
X150912360Y-114663821D02*
X150840931Y-114735250D01*
X150840931Y-114735250D02*
X150912360Y-114806678D01*
X150912360Y-114806678D02*
X150983788Y-114735250D01*
X150983788Y-114735250D02*
X150912360Y-114663821D01*
X150912360Y-114663821D02*
X150912360Y-114806678D01*
X149912359Y-113306678D02*
X149769502Y-113306678D01*
X149769502Y-113306678D02*
X149626645Y-113378107D01*
X149626645Y-113378107D02*
X149555217Y-113449535D01*
X149555217Y-113449535D02*
X149483788Y-113592392D01*
X149483788Y-113592392D02*
X149412359Y-113878107D01*
X149412359Y-113878107D02*
X149412359Y-114235250D01*
X149412359Y-114235250D02*
X149483788Y-114520964D01*
X149483788Y-114520964D02*
X149555217Y-114663821D01*
X149555217Y-114663821D02*
X149626645Y-114735250D01*
X149626645Y-114735250D02*
X149769502Y-114806678D01*
X149769502Y-114806678D02*
X149912359Y-114806678D01*
X149912359Y-114806678D02*
X150055217Y-114735250D01*
X150055217Y-114735250D02*
X150126645Y-114663821D01*
X150126645Y-114663821D02*
X150198074Y-114520964D01*
X150198074Y-114520964D02*
X150269502Y-114235250D01*
X150269502Y-114235250D02*
X150269502Y-113878107D01*
X150269502Y-113878107D02*
X150198074Y-113592392D01*
X150198074Y-113592392D02*
X150126645Y-113449535D01*
X150126645Y-113449535D02*
X150055217Y-113378107D01*
X150055217Y-113378107D02*
X149912359Y-113306678D01*
D10*
X146159774Y-111122257D02*
X146302632Y-111050828D01*
X146302632Y-111050828D02*
X146516917Y-111050828D01*
X146516917Y-111050828D02*
X146731203Y-111122257D01*
X146731203Y-111122257D02*
X146874060Y-111265114D01*
X146874060Y-111265114D02*
X146945489Y-111407971D01*
X146945489Y-111407971D02*
X147016917Y-111693685D01*
X147016917Y-111693685D02*
X147016917Y-111907971D01*
X147016917Y-111907971D02*
X146945489Y-112193685D01*
X146945489Y-112193685D02*
X146874060Y-112336542D01*
X146874060Y-112336542D02*
X146731203Y-112479400D01*
X146731203Y-112479400D02*
X146516917Y-112550828D01*
X146516917Y-112550828D02*
X146374060Y-112550828D01*
X146374060Y-112550828D02*
X146159774Y-112479400D01*
X146159774Y-112479400D02*
X146088346Y-112407971D01*
X146088346Y-112407971D02*
X146088346Y-111907971D01*
X146088346Y-111907971D02*
X146374060Y-111907971D01*
X145445489Y-112550828D02*
X145445489Y-111050828D01*
X145445489Y-111050828D02*
X144588346Y-112550828D01*
X144588346Y-112550828D02*
X144588346Y-111050828D01*
X143874060Y-112550828D02*
X143874060Y-111050828D01*
X143874060Y-111050828D02*
X143516917Y-111050828D01*
X143516917Y-111050828D02*
X143302631Y-111122257D01*
X143302631Y-111122257D02*
X143159774Y-111265114D01*
X143159774Y-111265114D02*
X143088345Y-111407971D01*
X143088345Y-111407971D02*
X143016917Y-111693685D01*
X143016917Y-111693685D02*
X143016917Y-111907971D01*
X143016917Y-111907971D02*
X143088345Y-112193685D01*
X143088345Y-112193685D02*
X143159774Y-112336542D01*
X143159774Y-112336542D02*
X143302631Y-112479400D01*
X143302631Y-112479400D02*
X143516917Y-112550828D01*
X143516917Y-112550828D02*
X143874060Y-112550828D01*
X146338346Y-102157971D02*
X146409774Y-102229400D01*
X146409774Y-102229400D02*
X146624060Y-102300828D01*
X146624060Y-102300828D02*
X146766917Y-102300828D01*
X146766917Y-102300828D02*
X146981203Y-102229400D01*
X146981203Y-102229400D02*
X147124060Y-102086542D01*
X147124060Y-102086542D02*
X147195489Y-101943685D01*
X147195489Y-101943685D02*
X147266917Y-101657971D01*
X147266917Y-101657971D02*
X147266917Y-101443685D01*
X147266917Y-101443685D02*
X147195489Y-101157971D01*
X147195489Y-101157971D02*
X147124060Y-101015114D01*
X147124060Y-101015114D02*
X146981203Y-100872257D01*
X146981203Y-100872257D02*
X146766917Y-100800828D01*
X146766917Y-100800828D02*
X146624060Y-100800828D01*
X146624060Y-100800828D02*
X146409774Y-100872257D01*
X146409774Y-100872257D02*
X146338346Y-100943685D01*
X145766917Y-102229400D02*
X145552632Y-102300828D01*
X145552632Y-102300828D02*
X145195489Y-102300828D01*
X145195489Y-102300828D02*
X145052632Y-102229400D01*
X145052632Y-102229400D02*
X144981203Y-102157971D01*
X144981203Y-102157971D02*
X144909774Y-102015114D01*
X144909774Y-102015114D02*
X144909774Y-101872257D01*
X144909774Y-101872257D02*
X144981203Y-101729400D01*
X144981203Y-101729400D02*
X145052632Y-101657971D01*
X145052632Y-101657971D02*
X145195489Y-101586542D01*
X145195489Y-101586542D02*
X145481203Y-101515114D01*
X145481203Y-101515114D02*
X145624060Y-101443685D01*
X145624060Y-101443685D02*
X145695489Y-101372257D01*
X145695489Y-101372257D02*
X145766917Y-101229400D01*
X145766917Y-101229400D02*
X145766917Y-101086542D01*
X145766917Y-101086542D02*
X145695489Y-100943685D01*
X145695489Y-100943685D02*
X145624060Y-100872257D01*
X145624060Y-100872257D02*
X145481203Y-100800828D01*
X145481203Y-100800828D02*
X145124060Y-100800828D01*
X145124060Y-100800828D02*
X144909774Y-100872257D01*
X147195489Y-107550828D02*
X147195489Y-106050828D01*
X147195489Y-106050828D02*
X146695489Y-107122257D01*
X146695489Y-107122257D02*
X146195489Y-106050828D01*
X146195489Y-106050828D02*
X146195489Y-107550828D01*
X145481203Y-107550828D02*
X145481203Y-106050828D01*
X144838345Y-107479400D02*
X144624060Y-107550828D01*
X144624060Y-107550828D02*
X144266917Y-107550828D01*
X144266917Y-107550828D02*
X144124060Y-107479400D01*
X144124060Y-107479400D02*
X144052631Y-107407971D01*
X144052631Y-107407971D02*
X143981202Y-107265114D01*
X143981202Y-107265114D02*
X143981202Y-107122257D01*
X143981202Y-107122257D02*
X144052631Y-106979400D01*
X144052631Y-106979400D02*
X144124060Y-106907971D01*
X144124060Y-106907971D02*
X144266917Y-106836542D01*
X144266917Y-106836542D02*
X144552631Y-106765114D01*
X144552631Y-106765114D02*
X144695488Y-106693685D01*
X144695488Y-106693685D02*
X144766917Y-106622257D01*
X144766917Y-106622257D02*
X144838345Y-106479400D01*
X144838345Y-106479400D02*
X144838345Y-106336542D01*
X144838345Y-106336542D02*
X144766917Y-106193685D01*
X144766917Y-106193685D02*
X144695488Y-106122257D01*
X144695488Y-106122257D02*
X144552631Y-106050828D01*
X144552631Y-106050828D02*
X144195488Y-106050828D01*
X144195488Y-106050828D02*
X143981202Y-106122257D01*
X143052631Y-106050828D02*
X142766917Y-106050828D01*
X142766917Y-106050828D02*
X142624060Y-106122257D01*
X142624060Y-106122257D02*
X142481203Y-106265114D01*
X142481203Y-106265114D02*
X142409774Y-106550828D01*
X142409774Y-106550828D02*
X142409774Y-107050828D01*
X142409774Y-107050828D02*
X142481203Y-107336542D01*
X142481203Y-107336542D02*
X142624060Y-107479400D01*
X142624060Y-107479400D02*
X142766917Y-107550828D01*
X142766917Y-107550828D02*
X143052631Y-107550828D01*
X143052631Y-107550828D02*
X143195489Y-107479400D01*
X143195489Y-107479400D02*
X143338346Y-107336542D01*
X143338346Y-107336542D02*
X143409774Y-107050828D01*
X143409774Y-107050828D02*
X143409774Y-106550828D01*
X143409774Y-106550828D02*
X143338346Y-106265114D01*
X143338346Y-106265114D02*
X143195489Y-106122257D01*
X143195489Y-106122257D02*
X143052631Y-106050828D01*
D13*
X166109336Y-122742238D02*
X166109336Y-120742238D01*
X166109336Y-120742238D02*
X165347431Y-120742238D01*
X165347431Y-120742238D02*
X165156955Y-120837476D01*
X165156955Y-120837476D02*
X165061717Y-120932714D01*
X165061717Y-120932714D02*
X164966479Y-121123190D01*
X164966479Y-121123190D02*
X164966479Y-121408904D01*
X164966479Y-121408904D02*
X165061717Y-121599380D01*
X165061717Y-121599380D02*
X165156955Y-121694619D01*
X165156955Y-121694619D02*
X165347431Y-121789857D01*
X165347431Y-121789857D02*
X166109336Y-121789857D01*
X163823622Y-122742238D02*
X164014098Y-122647000D01*
X164014098Y-122647000D02*
X164109336Y-122551761D01*
X164109336Y-122551761D02*
X164204574Y-122361285D01*
X164204574Y-122361285D02*
X164204574Y-121789857D01*
X164204574Y-121789857D02*
X164109336Y-121599380D01*
X164109336Y-121599380D02*
X164014098Y-121504142D01*
X164014098Y-121504142D02*
X163823622Y-121408904D01*
X163823622Y-121408904D02*
X163537907Y-121408904D01*
X163537907Y-121408904D02*
X163347431Y-121504142D01*
X163347431Y-121504142D02*
X163252193Y-121599380D01*
X163252193Y-121599380D02*
X163156955Y-121789857D01*
X163156955Y-121789857D02*
X163156955Y-122361285D01*
X163156955Y-122361285D02*
X163252193Y-122551761D01*
X163252193Y-122551761D02*
X163347431Y-122647000D01*
X163347431Y-122647000D02*
X163537907Y-122742238D01*
X163537907Y-122742238D02*
X163823622Y-122742238D01*
X162014098Y-122742238D02*
X162204574Y-122647000D01*
X162204574Y-122647000D02*
X162299812Y-122456523D01*
X162299812Y-122456523D02*
X162299812Y-120742238D01*
X160395050Y-122742238D02*
X160395050Y-121694619D01*
X160395050Y-121694619D02*
X160490288Y-121504142D01*
X160490288Y-121504142D02*
X160680764Y-121408904D01*
X160680764Y-121408904D02*
X161061717Y-121408904D01*
X161061717Y-121408904D02*
X161252193Y-121504142D01*
X160395050Y-122647000D02*
X160585526Y-122742238D01*
X160585526Y-122742238D02*
X161061717Y-122742238D01*
X161061717Y-122742238D02*
X161252193Y-122647000D01*
X161252193Y-122647000D02*
X161347431Y-122456523D01*
X161347431Y-122456523D02*
X161347431Y-122266047D01*
X161347431Y-122266047D02*
X161252193Y-122075571D01*
X161252193Y-122075571D02*
X161061717Y-121980333D01*
X161061717Y-121980333D02*
X160585526Y-121980333D01*
X160585526Y-121980333D02*
X160395050Y-121885095D01*
X159442669Y-122742238D02*
X159442669Y-121408904D01*
X159442669Y-121789857D02*
X159347431Y-121599380D01*
X159347431Y-121599380D02*
X159252193Y-121504142D01*
X159252193Y-121504142D02*
X159061717Y-121408904D01*
X159061717Y-121408904D02*
X158871240Y-121408904D01*
X155537907Y-122742238D02*
X156204574Y-121789857D01*
X156680764Y-122742238D02*
X156680764Y-120742238D01*
X156680764Y-120742238D02*
X155918859Y-120742238D01*
X155918859Y-120742238D02*
X155728383Y-120837476D01*
X155728383Y-120837476D02*
X155633145Y-120932714D01*
X155633145Y-120932714D02*
X155537907Y-121123190D01*
X155537907Y-121123190D02*
X155537907Y-121408904D01*
X155537907Y-121408904D02*
X155633145Y-121599380D01*
X155633145Y-121599380D02*
X155728383Y-121694619D01*
X155728383Y-121694619D02*
X155918859Y-121789857D01*
X155918859Y-121789857D02*
X156680764Y-121789857D01*
X154395050Y-122742238D02*
X154585526Y-122647000D01*
X154585526Y-122647000D02*
X154680764Y-122551761D01*
X154680764Y-122551761D02*
X154776002Y-122361285D01*
X154776002Y-122361285D02*
X154776002Y-121789857D01*
X154776002Y-121789857D02*
X154680764Y-121599380D01*
X154680764Y-121599380D02*
X154585526Y-121504142D01*
X154585526Y-121504142D02*
X154395050Y-121408904D01*
X154395050Y-121408904D02*
X154109335Y-121408904D01*
X154109335Y-121408904D02*
X153918859Y-121504142D01*
X153918859Y-121504142D02*
X153823621Y-121599380D01*
X153823621Y-121599380D02*
X153728383Y-121789857D01*
X153728383Y-121789857D02*
X153728383Y-122361285D01*
X153728383Y-122361285D02*
X153823621Y-122551761D01*
X153823621Y-122551761D02*
X153918859Y-122647000D01*
X153918859Y-122647000D02*
X154109335Y-122742238D01*
X154109335Y-122742238D02*
X154395050Y-122742238D01*
X152871240Y-122742238D02*
X152871240Y-120742238D01*
X152871240Y-121504142D02*
X152680764Y-121408904D01*
X152680764Y-121408904D02*
X152299811Y-121408904D01*
X152299811Y-121408904D02*
X152109335Y-121504142D01*
X152109335Y-121504142D02*
X152014097Y-121599380D01*
X152014097Y-121599380D02*
X151918859Y-121789857D01*
X151918859Y-121789857D02*
X151918859Y-122361285D01*
X151918859Y-122361285D02*
X152014097Y-122551761D01*
X152014097Y-122551761D02*
X152109335Y-122647000D01*
X152109335Y-122647000D02*
X152299811Y-122742238D01*
X152299811Y-122742238D02*
X152680764Y-122742238D01*
X152680764Y-122742238D02*
X152871240Y-122647000D01*
X150776002Y-122742238D02*
X150966478Y-122647000D01*
X150966478Y-122647000D02*
X151061716Y-122551761D01*
X151061716Y-122551761D02*
X151156954Y-122361285D01*
X151156954Y-122361285D02*
X151156954Y-121789857D01*
X151156954Y-121789857D02*
X151061716Y-121599380D01*
X151061716Y-121599380D02*
X150966478Y-121504142D01*
X150966478Y-121504142D02*
X150776002Y-121408904D01*
X150776002Y-121408904D02*
X150490287Y-121408904D01*
X150490287Y-121408904D02*
X150299811Y-121504142D01*
X150299811Y-121504142D02*
X150204573Y-121599380D01*
X150204573Y-121599380D02*
X150109335Y-121789857D01*
X150109335Y-121789857D02*
X150109335Y-122361285D01*
X150109335Y-122361285D02*
X150204573Y-122551761D01*
X150204573Y-122551761D02*
X150299811Y-122647000D01*
X150299811Y-122647000D02*
X150490287Y-122742238D01*
X150490287Y-122742238D02*
X150776002Y-122742238D01*
X149537906Y-121408904D02*
X148776002Y-121408904D01*
X149252192Y-120742238D02*
X149252192Y-122456523D01*
X149252192Y-122456523D02*
X149156954Y-122647000D01*
X149156954Y-122647000D02*
X148966478Y-122742238D01*
X148966478Y-122742238D02*
X148776002Y-122742238D01*
X148109335Y-122742238D02*
X148109335Y-121408904D01*
X148109335Y-120742238D02*
X148204573Y-120837476D01*
X148204573Y-120837476D02*
X148109335Y-120932714D01*
X148109335Y-120932714D02*
X148014097Y-120837476D01*
X148014097Y-120837476D02*
X148109335Y-120742238D01*
X148109335Y-120742238D02*
X148109335Y-120932714D01*
X146299811Y-122647000D02*
X146490287Y-122742238D01*
X146490287Y-122742238D02*
X146871240Y-122742238D01*
X146871240Y-122742238D02*
X147061716Y-122647000D01*
X147061716Y-122647000D02*
X147156954Y-122551761D01*
X147156954Y-122551761D02*
X147252192Y-122361285D01*
X147252192Y-122361285D02*
X147252192Y-121789857D01*
X147252192Y-121789857D02*
X147156954Y-121599380D01*
X147156954Y-121599380D02*
X147061716Y-121504142D01*
X147061716Y-121504142D02*
X146871240Y-121408904D01*
X146871240Y-121408904D02*
X146490287Y-121408904D01*
X146490287Y-121408904D02*
X146299811Y-121504142D01*
X145537906Y-122647000D02*
X145347430Y-122742238D01*
X145347430Y-122742238D02*
X144966478Y-122742238D01*
X144966478Y-122742238D02*
X144776001Y-122647000D01*
X144776001Y-122647000D02*
X144680763Y-122456523D01*
X144680763Y-122456523D02*
X144680763Y-122361285D01*
X144680763Y-122361285D02*
X144776001Y-122170809D01*
X144776001Y-122170809D02*
X144966478Y-122075571D01*
X144966478Y-122075571D02*
X145252192Y-122075571D01*
X145252192Y-122075571D02*
X145442668Y-121980333D01*
X145442668Y-121980333D02*
X145537906Y-121789857D01*
X145537906Y-121789857D02*
X145537906Y-121694619D01*
X145537906Y-121694619D02*
X145442668Y-121504142D01*
X145442668Y-121504142D02*
X145252192Y-121408904D01*
X145252192Y-121408904D02*
X144966478Y-121408904D01*
X144966478Y-121408904D02*
X144776001Y-121504142D01*
D12*
X156483787Y-116056678D02*
X156340930Y-116056678D01*
X156340930Y-116056678D02*
X156198073Y-116128107D01*
X156198073Y-116128107D02*
X156126645Y-116199535D01*
X156126645Y-116199535D02*
X156055216Y-116342392D01*
X156055216Y-116342392D02*
X155983787Y-116628107D01*
X155983787Y-116628107D02*
X155983787Y-116985250D01*
X155983787Y-116985250D02*
X156055216Y-117270964D01*
X156055216Y-117270964D02*
X156126645Y-117413821D01*
X156126645Y-117413821D02*
X156198073Y-117485250D01*
X156198073Y-117485250D02*
X156340930Y-117556678D01*
X156340930Y-117556678D02*
X156483787Y-117556678D01*
X156483787Y-117556678D02*
X156626645Y-117485250D01*
X156626645Y-117485250D02*
X156698073Y-117413821D01*
X156698073Y-117413821D02*
X156769502Y-117270964D01*
X156769502Y-117270964D02*
X156840930Y-116985250D01*
X156840930Y-116985250D02*
X156840930Y-116628107D01*
X156840930Y-116628107D02*
X156769502Y-116342392D01*
X156769502Y-116342392D02*
X156698073Y-116199535D01*
X156698073Y-116199535D02*
X156626645Y-116128107D01*
X156626645Y-116128107D02*
X156483787Y-116056678D01*
X155412359Y-116199535D02*
X155340931Y-116128107D01*
X155340931Y-116128107D02*
X155198074Y-116056678D01*
X155198074Y-116056678D02*
X154840931Y-116056678D01*
X154840931Y-116056678D02*
X154698074Y-116128107D01*
X154698074Y-116128107D02*
X154626645Y-116199535D01*
X154626645Y-116199535D02*
X154555216Y-116342392D01*
X154555216Y-116342392D02*
X154555216Y-116485250D01*
X154555216Y-116485250D02*
X154626645Y-116699535D01*
X154626645Y-116699535D02*
X155483788Y-117556678D01*
X155483788Y-117556678D02*
X154555216Y-117556678D01*
X152840931Y-115985250D02*
X154126645Y-117913821D01*
X152412359Y-116199535D02*
X152340931Y-116128107D01*
X152340931Y-116128107D02*
X152198074Y-116056678D01*
X152198074Y-116056678D02*
X151840931Y-116056678D01*
X151840931Y-116056678D02*
X151698074Y-116128107D01*
X151698074Y-116128107D02*
X151626645Y-116199535D01*
X151626645Y-116199535D02*
X151555216Y-116342392D01*
X151555216Y-116342392D02*
X151555216Y-116485250D01*
X151555216Y-116485250D02*
X151626645Y-116699535D01*
X151626645Y-116699535D02*
X152483788Y-117556678D01*
X152483788Y-117556678D02*
X151555216Y-117556678D01*
X150626645Y-116056678D02*
X150483788Y-116056678D01*
X150483788Y-116056678D02*
X150340931Y-116128107D01*
X150340931Y-116128107D02*
X150269503Y-116199535D01*
X150269503Y-116199535D02*
X150198074Y-116342392D01*
X150198074Y-116342392D02*
X150126645Y-116628107D01*
X150126645Y-116628107D02*
X150126645Y-116985250D01*
X150126645Y-116985250D02*
X150198074Y-117270964D01*
X150198074Y-117270964D02*
X150269503Y-117413821D01*
X150269503Y-117413821D02*
X150340931Y-117485250D01*
X150340931Y-117485250D02*
X150483788Y-117556678D01*
X150483788Y-117556678D02*
X150626645Y-117556678D01*
X150626645Y-117556678D02*
X150769503Y-117485250D01*
X150769503Y-117485250D02*
X150840931Y-117413821D01*
X150840931Y-117413821D02*
X150912360Y-117270964D01*
X150912360Y-117270964D02*
X150983788Y-116985250D01*
X150983788Y-116985250D02*
X150983788Y-116628107D01*
X150983788Y-116628107D02*
X150912360Y-116342392D01*
X150912360Y-116342392D02*
X150840931Y-116199535D01*
X150840931Y-116199535D02*
X150769503Y-116128107D01*
X150769503Y-116128107D02*
X150626645Y-116056678D01*
X149555217Y-116199535D02*
X149483789Y-116128107D01*
X149483789Y-116128107D02*
X149340932Y-116056678D01*
X149340932Y-116056678D02*
X148983789Y-116056678D01*
X148983789Y-116056678D02*
X148840932Y-116128107D01*
X148840932Y-116128107D02*
X148769503Y-116199535D01*
X148769503Y-116199535D02*
X148698074Y-116342392D01*
X148698074Y-116342392D02*
X148698074Y-116485250D01*
X148698074Y-116485250D02*
X148769503Y-116699535D01*
X148769503Y-116699535D02*
X149626646Y-117556678D01*
X149626646Y-117556678D02*
X148698074Y-117556678D01*
X147412361Y-116056678D02*
X147698075Y-116056678D01*
X147698075Y-116056678D02*
X147840932Y-116128107D01*
X147840932Y-116128107D02*
X147912361Y-116199535D01*
X147912361Y-116199535D02*
X148055218Y-116413821D01*
X148055218Y-116413821D02*
X148126646Y-116699535D01*
X148126646Y-116699535D02*
X148126646Y-117270964D01*
X148126646Y-117270964D02*
X148055218Y-117413821D01*
X148055218Y-117413821D02*
X147983789Y-117485250D01*
X147983789Y-117485250D02*
X147840932Y-117556678D01*
X147840932Y-117556678D02*
X147555218Y-117556678D01*
X147555218Y-117556678D02*
X147412361Y-117485250D01*
X147412361Y-117485250D02*
X147340932Y-117413821D01*
X147340932Y-117413821D02*
X147269503Y-117270964D01*
X147269503Y-117270964D02*
X147269503Y-116913821D01*
X147269503Y-116913821D02*
X147340932Y-116770964D01*
X147340932Y-116770964D02*
X147412361Y-116699535D01*
X147412361Y-116699535D02*
X147555218Y-116628107D01*
X147555218Y-116628107D02*
X147840932Y-116628107D01*
X147840932Y-116628107D02*
X147983789Y-116699535D01*
X147983789Y-116699535D02*
X148055218Y-116770964D01*
X148055218Y-116770964D02*
X148126646Y-116913821D01*
D14*
X140733333Y-96374819D02*
X140733333Y-97089104D01*
X140733333Y-97089104D02*
X140780952Y-97231961D01*
X140780952Y-97231961D02*
X140876190Y-97327200D01*
X140876190Y-97327200D02*
X141019047Y-97374819D01*
X141019047Y-97374819D02*
X141114285Y-97374819D01*
X139733333Y-97374819D02*
X140304761Y-97374819D01*
X140019047Y-97374819D02*
X140019047Y-96374819D01*
X140019047Y-96374819D02*
X140114285Y-96517676D01*
X140114285Y-96517676D02*
X140209523Y-96612914D01*
X140209523Y-96612914D02*
X140304761Y-96660533D01*
D15*
%TO.C,J1*%
X139020000Y-100570000D02*
X139020000Y-113380000D01*
X141780000Y-97920000D02*
X140400000Y-97920000D01*
X141780000Y-99300000D02*
X141780000Y-97920000D01*
X141780000Y-100570000D02*
X139020000Y-100570000D01*
X141780000Y-100570000D02*
X141780000Y-113380000D01*
X141780000Y-113380000D02*
X139020000Y-113380000D01*
D16*
%TO.C,G\u002A\u002A\u002A*%
G36*
X162417773Y-111691718D02*
G01*
X162388599Y-111764595D01*
X162383351Y-111777310D01*
X162331171Y-111875432D01*
X162264172Y-111961376D01*
X162184567Y-112033101D01*
X162094573Y-112088568D01*
X161996405Y-112125737D01*
X161932992Y-112136936D01*
X161858848Y-112140763D01*
X161784225Y-112137068D01*
X161718839Y-112125847D01*
X161636404Y-112096752D01*
X161545423Y-112045542D01*
X161464068Y-111978738D01*
X161395110Y-111899112D01*
X161341318Y-111809432D01*
X161305463Y-111712471D01*
X161304988Y-111710588D01*
X161298864Y-111672895D01*
X161294111Y-111618545D01*
X161290729Y-111551737D01*
X161288719Y-111476674D01*
X161288095Y-111399333D01*
X161363413Y-111399333D01*
X161363701Y-111478858D01*
X161364766Y-111547417D01*
X161366781Y-111600576D01*
X161369914Y-111641344D01*
X161374335Y-111672730D01*
X161380214Y-111697742D01*
X161386293Y-111716901D01*
X161426747Y-111804475D01*
X161484127Y-111884725D01*
X161555116Y-111954279D01*
X161636400Y-112009768D01*
X161724661Y-112047821D01*
X161737794Y-112051591D01*
X161810763Y-112064058D01*
X161888377Y-112065802D01*
X161959427Y-112056410D01*
X161969733Y-112053794D01*
X162045615Y-112024082D01*
X162120732Y-111978128D01*
X162190334Y-111919829D01*
X162249674Y-111853084D01*
X162294003Y-111781789D01*
X162310984Y-111744322D01*
X162324799Y-111705801D01*
X162334901Y-111664716D01*
X162341827Y-111617344D01*
X162346110Y-111559967D01*
X162348288Y-111488863D01*
X162348895Y-111400312D01*
X162348461Y-111342048D01*
X162346992Y-111277258D01*
X162344669Y-111219678D01*
X162341688Y-111173969D01*
X162338243Y-111144792D01*
X162315006Y-111064023D01*
X162272073Y-110979419D01*
X162213954Y-110903421D01*
X162143428Y-110838539D01*
X162063273Y-110787283D01*
X161976270Y-110752162D01*
X161885197Y-110735685D01*
X161843971Y-110734797D01*
X161749652Y-110747308D01*
X161659373Y-110779151D01*
X161575534Y-110829031D01*
X161500534Y-110895653D01*
X161436773Y-110977721D01*
X161418512Y-111007648D01*
X161400450Y-111042963D01*
X161386742Y-111079660D01*
X161376813Y-111121039D01*
X161370090Y-111170397D01*
X161365998Y-111231033D01*
X161363964Y-111306245D01*
X161363413Y-111399333D01*
X161288095Y-111399333D01*
X161288081Y-111397555D01*
X161288814Y-111318582D01*
X161290919Y-111243954D01*
X161294395Y-111177873D01*
X161299243Y-111124539D01*
X161305463Y-111088153D01*
X161333986Y-111006671D01*
X161386774Y-110913226D01*
X161458500Y-110827814D01*
X161471475Y-110815201D01*
X161556267Y-110748215D01*
X161647147Y-110700068D01*
X161741989Y-110670283D01*
X161838672Y-110658386D01*
X161935072Y-110663901D01*
X162029064Y-110686354D01*
X162118526Y-110725267D01*
X162201334Y-110780167D01*
X162275364Y-110850577D01*
X162338494Y-110936023D01*
X162388599Y-111036029D01*
X162417773Y-111108906D01*
X162417773Y-111400312D01*
X162417773Y-111691718D01*
G37*
G36*
X167716053Y-111434491D02*
G01*
X167715868Y-111512563D01*
X167715285Y-111573576D01*
X167714095Y-111620542D01*
X167712086Y-111656469D01*
X167709050Y-111684369D01*
X167704776Y-111707251D01*
X167699054Y-111728124D01*
X167691675Y-111749999D01*
X167672760Y-111796151D01*
X167623373Y-111882864D01*
X167560403Y-111962360D01*
X167487802Y-112030005D01*
X167409519Y-112081164D01*
X167387853Y-112091264D01*
X167345735Y-112107856D01*
X167302796Y-112122046D01*
X167250102Y-112133419D01*
X167170604Y-112140386D01*
X167089601Y-112137907D01*
X167017128Y-112125847D01*
X166934694Y-112096752D01*
X166843713Y-112045542D01*
X166762358Y-111978738D01*
X166693399Y-111899112D01*
X166639607Y-111809432D01*
X166603752Y-111712471D01*
X166603278Y-111710588D01*
X166597153Y-111672895D01*
X166592400Y-111618545D01*
X166589019Y-111551737D01*
X166587009Y-111476674D01*
X166586384Y-111399333D01*
X166661703Y-111399333D01*
X166661990Y-111478858D01*
X166663056Y-111547417D01*
X166665071Y-111600576D01*
X166668204Y-111641344D01*
X166672625Y-111672730D01*
X166678503Y-111697742D01*
X166684582Y-111716901D01*
X166725036Y-111804475D01*
X166782416Y-111884725D01*
X166853406Y-111954279D01*
X166934689Y-112009768D01*
X167022950Y-112047821D01*
X167036084Y-112051591D01*
X167109053Y-112064058D01*
X167186667Y-112065802D01*
X167257716Y-112056410D01*
X167268022Y-112053794D01*
X167343905Y-112024082D01*
X167419021Y-111978128D01*
X167488623Y-111919829D01*
X167547963Y-111853084D01*
X167592293Y-111781789D01*
X167609274Y-111744322D01*
X167623088Y-111705801D01*
X167633191Y-111664716D01*
X167640116Y-111617344D01*
X167644400Y-111559967D01*
X167646578Y-111488863D01*
X167647185Y-111400312D01*
X167646751Y-111342048D01*
X167645281Y-111277258D01*
X167642959Y-111219678D01*
X167639978Y-111173969D01*
X167636532Y-111144792D01*
X167613296Y-111064023D01*
X167570362Y-110979419D01*
X167512243Y-110903421D01*
X167441717Y-110838539D01*
X167361563Y-110787283D01*
X167274560Y-110752162D01*
X167183486Y-110735685D01*
X167142260Y-110734797D01*
X167047941Y-110747308D01*
X166957663Y-110779151D01*
X166873824Y-110829031D01*
X166798824Y-110895653D01*
X166735062Y-110977721D01*
X166716802Y-111007648D01*
X166698740Y-111042963D01*
X166685032Y-111079660D01*
X166675103Y-111121039D01*
X166668379Y-111170397D01*
X166664288Y-111231033D01*
X166662253Y-111306245D01*
X166661703Y-111399333D01*
X166586384Y-111399333D01*
X166586370Y-111397555D01*
X166587103Y-111318582D01*
X166589208Y-111243954D01*
X166592685Y-111177873D01*
X166597533Y-111124539D01*
X166603752Y-111088153D01*
X166630524Y-111012380D01*
X166678239Y-110925297D01*
X166739904Y-110845241D01*
X166811845Y-110776867D01*
X166890392Y-110724828D01*
X166941554Y-110701015D01*
X167042167Y-110670447D01*
X167143577Y-110659311D01*
X167243595Y-110666718D01*
X167340027Y-110691775D01*
X167430681Y-110733592D01*
X167513365Y-110791277D01*
X167585887Y-110863938D01*
X167646054Y-110950685D01*
X167691675Y-111050625D01*
X167694641Y-111059111D01*
X167701376Y-111080260D01*
X167706532Y-111101532D01*
X167710319Y-111125937D01*
X167712946Y-111156486D01*
X167714624Y-111196188D01*
X167715563Y-111248053D01*
X167715973Y-111315091D01*
X167716062Y-111400312D01*
X167716053Y-111434491D01*
G37*
G36*
X166109585Y-116406587D02*
G01*
X166100173Y-116449349D01*
X166097906Y-116454839D01*
X166075712Y-116493074D01*
X166040737Y-116539124D01*
X165996590Y-116588872D01*
X165946882Y-116638204D01*
X165895223Y-116683004D01*
X165840049Y-116723925D01*
X165718190Y-116795532D01*
X165585795Y-116850802D01*
X165446188Y-116888480D01*
X165302692Y-116907306D01*
X165276860Y-116909111D01*
X165232730Y-116913852D01*
X165224218Y-116915832D01*
X165207443Y-116919734D01*
X165199375Y-116927070D01*
X165195938Y-116938616D01*
X165184578Y-116965792D01*
X165167161Y-117003629D01*
X165145637Y-117047747D01*
X165142041Y-117054862D01*
X165082736Y-117154171D01*
X165014193Y-117236166D01*
X164933732Y-117303565D01*
X164838673Y-117359085D01*
X164814417Y-117370414D01*
X164760160Y-117392891D01*
X164707222Y-117411605D01*
X164664248Y-117423369D01*
X164597125Y-117433087D01*
X164516145Y-117438199D01*
X164430773Y-117438429D01*
X164349215Y-117433758D01*
X164279675Y-117424170D01*
X164229283Y-117411092D01*
X164163474Y-117387874D01*
X164097749Y-117359022D01*
X164090816Y-117355596D01*
X163996897Y-117299457D01*
X163917369Y-117231246D01*
X163849557Y-117148247D01*
X163790784Y-117047747D01*
X163771933Y-117009224D01*
X163753853Y-116970242D01*
X163741574Y-116941316D01*
X163737047Y-116926838D01*
X163732177Y-116920330D01*
X163718408Y-116915832D01*
X163810850Y-116915832D01*
X163847298Y-116990008D01*
X163864021Y-117023355D01*
X163889946Y-117070314D01*
X163915950Y-117108866D01*
X163947109Y-117146179D01*
X163988497Y-117189421D01*
X164038371Y-117232720D01*
X164116992Y-117283386D01*
X164204290Y-117323792D01*
X164293367Y-117350298D01*
X164347483Y-117358550D01*
X164423962Y-117363819D01*
X164505247Y-117364092D01*
X164582868Y-117359384D01*
X164648353Y-117349708D01*
X164655972Y-117347943D01*
X164701635Y-117334146D01*
X164753944Y-117314470D01*
X164803028Y-117292561D01*
X164871418Y-117251994D01*
X164952952Y-117183689D01*
X165024195Y-117100222D01*
X165082183Y-117004650D01*
X165126654Y-116915832D01*
X165086189Y-116907476D01*
X165074143Y-116904975D01*
X165004260Y-116889591D01*
X164948545Y-116875166D01*
X164901088Y-116859821D01*
X164855976Y-116841677D01*
X164807301Y-116818858D01*
X164762011Y-116795468D01*
X164724125Y-116772487D01*
X164688838Y-116746128D01*
X164650592Y-116712233D01*
X164603831Y-116666646D01*
X164501029Y-116563942D01*
X164442559Y-116630129D01*
X164367037Y-116705788D01*
X164262576Y-116784273D01*
X164147676Y-116844447D01*
X164023015Y-116885968D01*
X163889274Y-116908495D01*
X163810850Y-116915832D01*
X163718408Y-116915832D01*
X163707388Y-116912232D01*
X163661547Y-116905832D01*
X163539936Y-116886200D01*
X163401285Y-116844712D01*
X163268955Y-116784486D01*
X163145251Y-116706793D01*
X163032477Y-116612903D01*
X162932939Y-116504087D01*
X162913274Y-116478003D01*
X162880636Y-116422372D01*
X162862953Y-116366554D01*
X162857590Y-116303539D01*
X162858216Y-116287500D01*
X162932247Y-116287500D01*
X162933908Y-116322331D01*
X162935527Y-116337128D01*
X162943438Y-116371680D01*
X162958664Y-116405561D01*
X162983453Y-116442322D01*
X163020051Y-116485519D01*
X163070704Y-116538704D01*
X163128456Y-116593083D01*
X163243410Y-116679566D01*
X163368223Y-116747546D01*
X163501900Y-116796612D01*
X163643445Y-116826352D01*
X163791865Y-116836357D01*
X163807973Y-116836236D01*
X163936826Y-116825512D01*
X164055391Y-116797040D01*
X164164788Y-116750234D01*
X164266138Y-116684511D01*
X164360564Y-116599286D01*
X164449185Y-116493977D01*
X164459453Y-116480517D01*
X164483064Y-116452161D01*
X164500959Y-116434320D01*
X164509891Y-116430397D01*
X164513797Y-116435435D01*
X164528761Y-116455137D01*
X164551451Y-116485217D01*
X164578722Y-116521513D01*
X164650528Y-116606325D01*
X164743752Y-116689157D01*
X164846900Y-116753733D01*
X164960952Y-116800768D01*
X165007968Y-116812865D01*
X165083241Y-116824836D01*
X165167422Y-116831993D01*
X165253770Y-116834023D01*
X165335546Y-116830612D01*
X165406008Y-116821448D01*
X165517293Y-116793209D01*
X165637861Y-116747236D01*
X165750436Y-116688087D01*
X165851900Y-116617679D01*
X165939135Y-116537929D01*
X166009023Y-116450753D01*
X166017274Y-116437013D01*
X166034116Y-116387269D01*
X166033653Y-116337933D01*
X166017780Y-116292861D01*
X165988389Y-116255910D01*
X165947373Y-116230936D01*
X165896626Y-116221795D01*
X165850129Y-116231715D01*
X165804269Y-116261552D01*
X165762245Y-116310008D01*
X165739435Y-116339899D01*
X165677483Y-116402534D01*
X165601754Y-116460752D01*
X165517301Y-116511341D01*
X165429175Y-116551090D01*
X165342429Y-116576791D01*
X165328358Y-116579515D01*
X165256066Y-116588601D01*
X165177784Y-116591944D01*
X165102274Y-116589425D01*
X165038299Y-116580926D01*
X164981269Y-116565544D01*
X164889389Y-116524047D01*
X164807510Y-116464638D01*
X164736650Y-116388298D01*
X164677822Y-116296005D01*
X164632041Y-116188741D01*
X164621124Y-116155686D01*
X164610434Y-116117503D01*
X164607218Y-116092081D01*
X164611140Y-116075242D01*
X164621861Y-116062807D01*
X164625212Y-116059306D01*
X164634659Y-116033708D01*
X164637756Y-115988906D01*
X164637756Y-115928197D01*
X164709283Y-115908876D01*
X164744447Y-115898371D01*
X164853791Y-115853978D01*
X164967561Y-115791202D01*
X165083894Y-115711284D01*
X165200924Y-115615463D01*
X165316788Y-115504977D01*
X165390486Y-115426142D01*
X165514473Y-115276122D01*
X165623661Y-115120208D01*
X165716002Y-114961445D01*
X165789447Y-114802875D01*
X165826137Y-114702451D01*
X165860685Y-114576398D01*
X165879037Y-114459617D01*
X165881256Y-114352915D01*
X165867405Y-114257096D01*
X165837547Y-114172965D01*
X165791745Y-114101329D01*
X165730061Y-114042992D01*
X165689035Y-114015861D01*
X165626842Y-113980785D01*
X165553846Y-113944154D01*
X165475152Y-113908390D01*
X165395865Y-113875910D01*
X165321091Y-113849137D01*
X165269874Y-113833049D01*
X165088995Y-113786251D01*
X164901937Y-113753550D01*
X164705055Y-113734413D01*
X164494702Y-113728307D01*
X164400806Y-113729645D01*
X164201457Y-113741819D01*
X164013316Y-113767217D01*
X163832189Y-113806499D01*
X163653882Y-113860323D01*
X163653445Y-113860473D01*
X163573142Y-113890641D01*
X163492814Y-113925391D01*
X163416532Y-113962616D01*
X163348369Y-114000207D01*
X163292399Y-114036054D01*
X163252693Y-114068049D01*
X163215744Y-114110903D01*
X163174441Y-114184865D01*
X163148142Y-114270788D01*
X163137499Y-114366285D01*
X163143164Y-114468969D01*
X163163061Y-114576488D01*
X163203698Y-114715349D01*
X163260132Y-114856196D01*
X163330662Y-114996939D01*
X163413588Y-115135489D01*
X163507212Y-115269758D01*
X163609832Y-115397657D01*
X163719748Y-115517096D01*
X163835262Y-115625986D01*
X163954672Y-115722240D01*
X164076280Y-115803766D01*
X164198384Y-115868478D01*
X164319286Y-115914284D01*
X164394680Y-115936738D01*
X164363157Y-115974980D01*
X164354695Y-115985415D01*
X164340876Y-116005789D01*
X164338911Y-116020046D01*
X164346940Y-116035074D01*
X164349010Y-116038159D01*
X164359950Y-116065724D01*
X164359305Y-116099223D01*
X164346515Y-116142188D01*
X164321018Y-116198149D01*
X164287143Y-116260496D01*
X164222058Y-116356137D01*
X164150286Y-116432539D01*
X164071016Y-116490505D01*
X163983432Y-116530837D01*
X163960442Y-116538335D01*
X163926155Y-116546988D01*
X163889649Y-116552111D01*
X163844612Y-116554465D01*
X163784732Y-116554814D01*
X163697962Y-116551169D01*
X163598833Y-116536637D01*
X163507175Y-116509649D01*
X163416636Y-116468720D01*
X163407668Y-116463853D01*
X163356313Y-116430862D01*
X163305420Y-116390715D01*
X163259572Y-116347648D01*
X163223354Y-116305900D01*
X163201348Y-116269706D01*
X163180089Y-116237438D01*
X163142718Y-116210415D01*
X163096855Y-116195751D01*
X163047718Y-116194227D01*
X163000527Y-116206623D01*
X162960500Y-116233719D01*
X162948542Y-116246293D01*
X162936263Y-116265024D01*
X162932247Y-116287500D01*
X162858216Y-116287500D01*
X162858551Y-116278904D01*
X162871608Y-116221030D01*
X162900597Y-116176569D01*
X162946351Y-116144537D01*
X163009702Y-116123950D01*
X163052618Y-116118183D01*
X163121085Y-116122859D01*
X163182438Y-116144305D01*
X163233389Y-116181161D01*
X163270649Y-116232062D01*
X163283040Y-116253017D01*
X163325773Y-116303582D01*
X163383563Y-116352443D01*
X163452178Y-116396715D01*
X163527386Y-116433515D01*
X163604956Y-116459957D01*
X163634801Y-116467201D01*
X163745661Y-116483214D01*
X163849606Y-116480647D01*
X163945435Y-116459730D01*
X164031950Y-116420692D01*
X164107951Y-116363762D01*
X164124160Y-116347482D01*
X164165580Y-116298112D01*
X164207382Y-116239306D01*
X164244591Y-116178368D01*
X164272229Y-116122603D01*
X164274326Y-116117543D01*
X164283023Y-116092575D01*
X164282485Y-116077273D01*
X164272790Y-116063488D01*
X164261582Y-116042460D01*
X164256279Y-116012919D01*
X164255682Y-116001650D01*
X164251545Y-115989681D01*
X164240731Y-115978113D01*
X164220125Y-115964573D01*
X164186609Y-115946686D01*
X164137068Y-115922077D01*
X164132081Y-115919619D01*
X164021670Y-115859504D01*
X163917430Y-115790735D01*
X163814411Y-115709752D01*
X163707668Y-115612993D01*
X163618192Y-115522574D01*
X163492653Y-115378414D01*
X163380366Y-115227621D01*
X163282786Y-115072578D01*
X163201367Y-114915668D01*
X163137563Y-114759274D01*
X163092830Y-114605777D01*
X163083025Y-114559666D01*
X163065488Y-114434345D01*
X163064493Y-114321752D01*
X163080251Y-114221245D01*
X163112972Y-114132178D01*
X163162868Y-114053907D01*
X163230149Y-113985788D01*
X163315027Y-113927176D01*
X163477296Y-113845011D01*
X163656130Y-113776578D01*
X163848978Y-113723133D01*
X164055209Y-113684821D01*
X164274192Y-113661785D01*
X164505299Y-113654171D01*
X164672018Y-113657802D01*
X164854371Y-113671478D01*
X165026432Y-113695974D01*
X165192862Y-113731981D01*
X165358324Y-113780186D01*
X165402866Y-113795695D01*
X165481953Y-113827022D01*
X165562130Y-113862904D01*
X165639131Y-113901177D01*
X165708690Y-113939672D01*
X165766538Y-113976226D01*
X165808411Y-114008670D01*
X165864108Y-114070364D01*
X165911932Y-114152252D01*
X165943055Y-114245689D01*
X165957500Y-114349908D01*
X165955288Y-114464136D01*
X165936442Y-114587605D01*
X165900981Y-114719544D01*
X165848929Y-114859184D01*
X165780307Y-115005753D01*
X165736836Y-115086006D01*
X165644129Y-115234544D01*
X165540065Y-115375911D01*
X165426684Y-115508133D01*
X165306025Y-115629234D01*
X165180129Y-115737241D01*
X165051034Y-115830180D01*
X164920780Y-115906076D01*
X164791407Y-115962955D01*
X164775917Y-115968784D01*
X164745125Y-115983066D01*
X164727876Y-115997694D01*
X164718970Y-116016512D01*
X164710045Y-116046813D01*
X164699669Y-116081548D01*
X164695950Y-116111087D01*
X164703708Y-116160453D01*
X164724359Y-116216268D01*
X164755582Y-116274840D01*
X164795053Y-116332481D01*
X164840451Y-116385503D01*
X164889453Y-116430214D01*
X164939737Y-116462927D01*
X165021079Y-116495602D01*
X165122791Y-116515761D01*
X165230170Y-116516455D01*
X165341411Y-116497527D01*
X165373102Y-116488911D01*
X165436115Y-116467343D01*
X165492114Y-116440186D01*
X165545858Y-116404476D01*
X165602109Y-116357246D01*
X165665624Y-116295531D01*
X165681695Y-116279349D01*
X165723168Y-116239088D01*
X165760925Y-116204427D01*
X165791344Y-116178626D01*
X165810801Y-116164943D01*
X165840328Y-116154801D01*
X165887990Y-116148446D01*
X165937916Y-116149669D01*
X165980183Y-116158826D01*
X165998771Y-116167875D01*
X166037719Y-116197079D01*
X166072991Y-116235015D01*
X166097119Y-116274309D01*
X166106021Y-116304800D01*
X166111473Y-116354908D01*
X166110291Y-116387269D01*
X166109585Y-116406587D01*
G37*
G36*
X170893950Y-107625836D02*
G01*
X170892594Y-107735557D01*
X170889006Y-107840295D01*
X170883187Y-107935020D01*
X170875140Y-108014705D01*
X170855112Y-108150147D01*
X170806560Y-108390758D01*
X170743297Y-108617423D01*
X170665485Y-108829664D01*
X170573289Y-109027001D01*
X170466873Y-109208957D01*
X170456794Y-109224199D01*
X170408267Y-109293133D01*
X170353324Y-109365440D01*
X170296301Y-109435736D01*
X170241531Y-109498636D01*
X170193348Y-109548758D01*
X170151977Y-109588693D01*
X170165418Y-109686514D01*
X170166280Y-109692869D01*
X170179083Y-109812652D01*
X170188095Y-109950036D01*
X170193378Y-110101961D01*
X170194524Y-110217544D01*
X170194998Y-110265367D01*
X170193018Y-110437194D01*
X170187502Y-110614381D01*
X170178515Y-110793870D01*
X170166119Y-110972599D01*
X170150380Y-111147509D01*
X170131361Y-111315540D01*
X170093652Y-111575815D01*
X170021913Y-111950054D01*
X169930601Y-112316901D01*
X169819956Y-112675850D01*
X169690223Y-113026393D01*
X169541644Y-113368025D01*
X169374461Y-113700240D01*
X169188917Y-114022532D01*
X168985255Y-114334394D01*
X168763718Y-114635319D01*
X168524548Y-114924803D01*
X168267989Y-115202338D01*
X168158900Y-115311406D01*
X167924278Y-115530366D01*
X167678489Y-115740095D01*
X167425193Y-115937674D01*
X167168051Y-116120185D01*
X166910722Y-116284708D01*
X166815353Y-116342241D01*
X166764257Y-116455798D01*
X166721365Y-116545510D01*
X166616937Y-116729181D01*
X166495464Y-116902525D01*
X166358508Y-117063794D01*
X166207629Y-117211238D01*
X166044387Y-117343108D01*
X165870345Y-117457655D01*
X165758031Y-117519205D01*
X165565119Y-117606229D01*
X165359995Y-117677149D01*
X165144068Y-117731571D01*
X164918747Y-117769099D01*
X164685441Y-117789340D01*
X164669021Y-117790100D01*
X164605212Y-117792473D01*
X164543615Y-117793955D01*
X164490545Y-117794426D01*
X164452316Y-117793766D01*
X164431342Y-117792830D01*
X164380030Y-117790490D01*
X164321303Y-117787765D01*
X164264172Y-117785072D01*
X164190844Y-117780332D01*
X163994472Y-117756200D01*
X163796063Y-117716191D01*
X163600732Y-117661656D01*
X163413596Y-117593945D01*
X163239770Y-117514412D01*
X163062171Y-117411795D01*
X162891797Y-117289541D01*
X162733225Y-117150481D01*
X162587519Y-116995644D01*
X162455743Y-116826060D01*
X162338961Y-116642757D01*
X162313037Y-116596645D01*
X162289721Y-116553398D01*
X162272071Y-116518749D01*
X162262627Y-116497532D01*
X162256161Y-116484666D01*
X162242120Y-116469394D01*
X162218170Y-116451841D01*
X162181212Y-116429783D01*
X162128146Y-116400994D01*
X162091333Y-116381325D01*
X161816214Y-116222802D01*
X161543901Y-116045989D01*
X161277395Y-115853273D01*
X161019698Y-115647041D01*
X160773813Y-115429680D01*
X160542741Y-115203576D01*
X160329485Y-114971116D01*
X160273605Y-114905675D01*
X160050317Y-114624277D01*
X159845262Y-114332177D01*
X159658541Y-114029627D01*
X159490254Y-113716878D01*
X159340503Y-113394180D01*
X159209389Y-113061784D01*
X159097012Y-112719942D01*
X159003474Y-112368905D01*
X158928876Y-112008923D01*
X158873319Y-111640248D01*
X158836903Y-111263131D01*
X158832584Y-111197305D01*
X158825985Y-111075529D01*
X158820699Y-110949063D01*
X158816790Y-110821596D01*
X158814322Y-110696813D01*
X158813358Y-110578401D01*
X158813598Y-110535505D01*
X158888756Y-110535505D01*
X158889199Y-110639012D01*
X158890853Y-110750661D01*
X158893626Y-110866849D01*
X158897426Y-110983971D01*
X158902161Y-111098423D01*
X158907739Y-111206600D01*
X158914067Y-111304899D01*
X158921054Y-111389716D01*
X158952896Y-111669510D01*
X159012159Y-112039569D01*
X159089990Y-112399443D01*
X159186383Y-112749118D01*
X159301333Y-113088583D01*
X159434836Y-113417822D01*
X159586885Y-113736824D01*
X159757476Y-114045575D01*
X159946605Y-114344061D01*
X160154265Y-114632269D01*
X160279690Y-114790022D01*
X160503719Y-115046525D01*
X160744324Y-115292939D01*
X160999362Y-115527338D01*
X161266693Y-115747795D01*
X161544174Y-115952384D01*
X161829663Y-116139180D01*
X161867748Y-116162282D01*
X161918259Y-116192333D01*
X161971969Y-116223795D01*
X162025816Y-116254923D01*
X162076738Y-116283972D01*
X162121674Y-116309198D01*
X162157562Y-116328856D01*
X162181340Y-116341202D01*
X162189946Y-116344489D01*
X162188815Y-116340379D01*
X162182224Y-116319453D01*
X162170735Y-116283985D01*
X162155483Y-116237471D01*
X162137606Y-116183406D01*
X162124483Y-116142992D01*
X162077213Y-115977102D01*
X162041863Y-115813014D01*
X162017625Y-115645443D01*
X162003690Y-115469108D01*
X161999251Y-115278725D01*
X162000873Y-115209980D01*
X162074683Y-115209980D01*
X162075217Y-115328927D01*
X162078478Y-115444800D01*
X162084386Y-115553102D01*
X162092858Y-115649339D01*
X162103811Y-115729015D01*
X162120717Y-115818702D01*
X162176894Y-116049081D01*
X162249032Y-116266392D01*
X162336924Y-116470311D01*
X162440358Y-116660516D01*
X162559126Y-116836682D01*
X162693019Y-116998487D01*
X162841826Y-117145608D01*
X163005338Y-117277721D01*
X163183346Y-117394503D01*
X163306813Y-117461340D01*
X163490744Y-117542523D01*
X163685715Y-117609054D01*
X163888437Y-117660004D01*
X164095617Y-117694442D01*
X164303964Y-117711436D01*
X164308516Y-117711611D01*
X164363209Y-117713834D01*
X164412430Y-117716036D01*
X164450941Y-117717970D01*
X164473509Y-117719392D01*
X164477122Y-117719658D01*
X164513802Y-117720382D01*
X164566240Y-117719253D01*
X164629768Y-117716559D01*
X164699716Y-117712590D01*
X164771418Y-117707638D01*
X164840204Y-117701991D01*
X164901406Y-117695940D01*
X164950355Y-117689774D01*
X164959446Y-117688408D01*
X165173706Y-117646834D01*
X165380545Y-117588703D01*
X165578019Y-117514836D01*
X165764180Y-117426055D01*
X165937085Y-117323179D01*
X166094786Y-117207031D01*
X166116593Y-117188545D01*
X166168508Y-117141268D01*
X166226446Y-117085142D01*
X166285991Y-117024703D01*
X166342725Y-116964485D01*
X166392230Y-116909022D01*
X166430089Y-116862849D01*
X166474351Y-116802478D01*
X166576937Y-116642364D01*
X166669574Y-116468464D01*
X166750252Y-116285161D01*
X166816961Y-116096840D01*
X166867693Y-115907886D01*
X166887958Y-115809011D01*
X166912592Y-115650915D01*
X166928423Y-115487560D01*
X166935413Y-115316960D01*
X166933522Y-115137132D01*
X166922713Y-114946090D01*
X166902948Y-114741849D01*
X166874188Y-114522424D01*
X166836394Y-114285831D01*
X166830896Y-114254196D01*
X166769656Y-113935912D01*
X166699289Y-113626105D01*
X166620267Y-113326002D01*
X166533063Y-113036827D01*
X166438147Y-112759805D01*
X166335992Y-112496162D01*
X166227070Y-112247122D01*
X166111853Y-112013912D01*
X165990812Y-111797755D01*
X165864420Y-111599878D01*
X165733148Y-111421505D01*
X165703809Y-111385868D01*
X165643175Y-111317706D01*
X165574652Y-111246097D01*
X165502409Y-111175084D01*
X165430615Y-111108712D01*
X165363437Y-111051026D01*
X165305042Y-111006070D01*
X165258993Y-110974537D01*
X165106194Y-110884654D01*
X164950750Y-110815371D01*
X164793165Y-110766787D01*
X164633942Y-110738999D01*
X164473588Y-110732107D01*
X164312606Y-110746207D01*
X164151500Y-110781399D01*
X164114807Y-110792915D01*
X164028774Y-110826266D01*
X163935751Y-110869447D01*
X163841611Y-110919432D01*
X163752226Y-110973195D01*
X163673467Y-111027711D01*
X163656507Y-111040670D01*
X163525237Y-111152781D01*
X163395438Y-111284231D01*
X163268426Y-111433379D01*
X163145520Y-111598582D01*
X163028035Y-111778199D01*
X162917288Y-111970587D01*
X162863933Y-112072573D01*
X162751214Y-112309287D01*
X162644397Y-112562932D01*
X162544201Y-112830972D01*
X162451345Y-113110869D01*
X162366546Y-113400086D01*
X162290524Y-113696087D01*
X162223996Y-113996334D01*
X162167681Y-114298291D01*
X162122297Y-114599419D01*
X162088563Y-114897183D01*
X162082133Y-114980845D01*
X162076961Y-115092454D01*
X162074683Y-115209980D01*
X162000873Y-115209980D01*
X162003719Y-115089338D01*
X162018828Y-114863403D01*
X162044049Y-114624963D01*
X162078797Y-114376903D01*
X162122487Y-114122111D01*
X162174534Y-113863472D01*
X162234352Y-113603874D01*
X162301356Y-113346203D01*
X162374960Y-113093346D01*
X162454580Y-112848190D01*
X162539630Y-112613621D01*
X162550509Y-112585436D01*
X162660483Y-112319310D01*
X162776210Y-112072276D01*
X162897559Y-111844498D01*
X163024398Y-111636138D01*
X163156595Y-111447360D01*
X163294020Y-111278326D01*
X163436540Y-111129200D01*
X163584024Y-111000146D01*
X163736341Y-110891325D01*
X163893358Y-110802902D01*
X164054944Y-110735038D01*
X164084869Y-110724762D01*
X164164931Y-110700317D01*
X164239979Y-110683068D01*
X164316509Y-110671977D01*
X164401017Y-110666011D01*
X164500001Y-110664135D01*
X164581043Y-110664866D01*
X164656543Y-110668290D01*
X164722900Y-110675364D01*
X164786408Y-110687020D01*
X164853362Y-110704191D01*
X164930059Y-110727808D01*
X165037039Y-110767595D01*
X165191533Y-110843451D01*
X165342607Y-110939749D01*
X165489882Y-111056148D01*
X165632981Y-111192312D01*
X165771527Y-111347901D01*
X165905141Y-111522578D01*
X166033446Y-111716005D01*
X166043587Y-111732597D01*
X166088108Y-111809426D01*
X166137851Y-111900559D01*
X166190685Y-112001708D01*
X166244481Y-112108587D01*
X166297110Y-112216908D01*
X166346442Y-112322385D01*
X166390347Y-112420729D01*
X166426696Y-112507655D01*
X166446838Y-112558734D01*
X166545400Y-112828002D01*
X166637537Y-113112334D01*
X166721898Y-113407075D01*
X166797135Y-113707568D01*
X166861899Y-114009159D01*
X166875990Y-114082019D01*
X166923036Y-114347320D01*
X166959883Y-114595664D01*
X166986546Y-114828323D01*
X167003042Y-115046572D01*
X167009388Y-115251682D01*
X167008108Y-115316960D01*
X167005600Y-115444929D01*
X166991695Y-115627583D01*
X166967690Y-115800919D01*
X166933601Y-115966210D01*
X166889444Y-116124729D01*
X166883900Y-116142551D01*
X166873105Y-116179359D01*
X166866350Y-116205587D01*
X166864913Y-116216454D01*
X166865786Y-116216525D01*
X166879494Y-116209986D01*
X166907324Y-116193664D01*
X166946542Y-116169333D01*
X166994418Y-116138769D01*
X167048219Y-116103745D01*
X167105214Y-116066037D01*
X167162672Y-116027419D01*
X167217860Y-115989666D01*
X167268047Y-115954552D01*
X167419156Y-115844201D01*
X167717551Y-115606861D01*
X168001579Y-115353982D01*
X168270930Y-115085865D01*
X168525295Y-114802808D01*
X168764365Y-114505110D01*
X168950852Y-114246525D01*
X169151622Y-113934794D01*
X169333919Y-113612950D01*
X169497572Y-113281437D01*
X169642410Y-112940700D01*
X169768258Y-112591183D01*
X169874946Y-112233330D01*
X169962301Y-111867586D01*
X170030151Y-111494396D01*
X170078323Y-111114205D01*
X170082695Y-111068608D01*
X170093839Y-110933054D01*
X170103069Y-110790884D01*
X170110331Y-110645174D01*
X170115571Y-110498997D01*
X170118736Y-110355429D01*
X170119771Y-110217544D01*
X170118624Y-110088418D01*
X170115240Y-109971124D01*
X170109566Y-109868738D01*
X170101548Y-109784334D01*
X170070543Y-109574959D01*
X170011786Y-109293600D01*
X169934750Y-109022961D01*
X169839430Y-108763037D01*
X169725824Y-108513824D01*
X169593931Y-108275317D01*
X169443748Y-108047509D01*
X169275273Y-107830397D01*
X169088502Y-107623975D01*
X168938921Y-107477897D01*
X168764497Y-107325778D01*
X168581392Y-107185291D01*
X168386525Y-107054241D01*
X168176816Y-106930433D01*
X167949187Y-106811671D01*
X167932510Y-106803673D01*
X168112717Y-106803673D01*
X168226989Y-106866916D01*
X168244042Y-106876509D01*
X168299601Y-106909107D01*
X168363559Y-106948113D01*
X168429288Y-106989446D01*
X168490160Y-107029022D01*
X168494565Y-107031951D01*
X168730697Y-107200628D01*
X168948928Y-107380478D01*
X169149578Y-107571856D01*
X169332970Y-107775118D01*
X169499423Y-107990620D01*
X169649259Y-108218716D01*
X169782799Y-108459762D01*
X169804637Y-108503168D01*
X169833895Y-108562267D01*
X169860142Y-108616321D01*
X169881152Y-108660728D01*
X169894697Y-108690888D01*
X169920673Y-108752470D01*
X169964372Y-108669695D01*
X169970887Y-108657200D01*
X170037841Y-108507553D01*
X170093533Y-108340904D01*
X170137711Y-108158284D01*
X170170122Y-107960723D01*
X170190512Y-107749250D01*
X170195162Y-107645828D01*
X170195197Y-107512502D01*
X170188914Y-107381454D01*
X170176729Y-107255347D01*
X170159054Y-107136842D01*
X170136303Y-107028603D01*
X170108891Y-106933291D01*
X170077231Y-106853571D01*
X170041737Y-106792102D01*
X170037505Y-106786516D01*
X169992127Y-106744160D01*
X169927374Y-106706509D01*
X169844452Y-106673845D01*
X169744569Y-106646451D01*
X169628933Y-106624610D01*
X169498752Y-106608603D01*
X169355233Y-106598713D01*
X169199583Y-106595223D01*
X169098319Y-106596315D01*
X168894286Y-106606967D01*
X168704235Y-106629352D01*
X168525359Y-106663963D01*
X168354851Y-106711290D01*
X168189901Y-106771825D01*
X168112717Y-106803673D01*
X167932510Y-106803673D01*
X167836879Y-106757811D01*
X167603473Y-106655260D01*
X167366899Y-106564349D01*
X167122848Y-106483600D01*
X167003740Y-106450048D01*
X167297498Y-106450048D01*
X167302475Y-106454788D01*
X167322681Y-106464923D01*
X167353130Y-106476743D01*
X167448978Y-106511455D01*
X167559447Y-106553821D01*
X167672280Y-106599166D01*
X167779927Y-106644452D01*
X167874838Y-106686642D01*
X168033614Y-106759783D01*
X168123858Y-106718139D01*
X168148013Y-106707333D01*
X168242025Y-106670012D01*
X168346487Y-106634565D01*
X168453116Y-106603653D01*
X168553632Y-106579939D01*
X168587903Y-106573207D01*
X168735470Y-106549060D01*
X168885553Y-106531812D01*
X169036052Y-106521294D01*
X169184868Y-106517338D01*
X169329899Y-106519774D01*
X169469046Y-106528432D01*
X169600208Y-106543143D01*
X169721286Y-106563738D01*
X169830178Y-106590048D01*
X169924786Y-106621904D01*
X170003008Y-106659136D01*
X170062744Y-106701574D01*
X170088418Y-106728267D01*
X170133129Y-106794756D01*
X170172129Y-106881512D01*
X170205383Y-106988432D01*
X170232855Y-107115411D01*
X170254511Y-107262348D01*
X170258686Y-107305885D01*
X170263122Y-107381424D01*
X170265894Y-107469044D01*
X170266403Y-107512502D01*
X170267000Y-107563462D01*
X170266438Y-107659393D01*
X170264207Y-107751556D01*
X170260304Y-107834666D01*
X170254727Y-107903441D01*
X170231523Y-108071682D01*
X170197823Y-108239445D01*
X170155067Y-108398867D01*
X170104186Y-108546906D01*
X170046109Y-108680519D01*
X169981767Y-108796664D01*
X169955515Y-108838250D01*
X169998706Y-108968132D01*
X170018540Y-109030340D01*
X170040580Y-109104377D01*
X170062356Y-109181877D01*
X170082617Y-109258114D01*
X170100107Y-109328362D01*
X170113575Y-109387899D01*
X170121765Y-109431998D01*
X170124716Y-109448805D01*
X170131216Y-109472875D01*
X170137369Y-109482331D01*
X170137483Y-109482328D01*
X170149657Y-109474332D01*
X170172045Y-109453187D01*
X170201654Y-109422210D01*
X170235491Y-109384715D01*
X170270561Y-109344019D01*
X170303872Y-109303438D01*
X170332428Y-109266286D01*
X170359752Y-109228154D01*
X170470892Y-109051753D01*
X170567236Y-108861182D01*
X170648893Y-108656138D01*
X170715972Y-108436316D01*
X170768584Y-108201413D01*
X170806838Y-107951126D01*
X170810692Y-107910707D01*
X170814741Y-107841323D01*
X170817465Y-107759343D01*
X170818870Y-107669588D01*
X170818959Y-107576880D01*
X170817736Y-107486041D01*
X170815206Y-107401891D01*
X170811373Y-107329252D01*
X170806242Y-107272945D01*
X170778825Y-107094758D01*
X170737413Y-106909660D01*
X170684952Y-106740707D01*
X170621657Y-106588345D01*
X170547742Y-106453017D01*
X170463423Y-106335168D01*
X170368915Y-106235243D01*
X170264433Y-106153687D01*
X170168190Y-106096097D01*
X170019991Y-106025938D01*
X169858037Y-105968053D01*
X169684390Y-105922448D01*
X169501110Y-105889134D01*
X169310259Y-105868117D01*
X169113897Y-105859407D01*
X168914087Y-105863011D01*
X168712890Y-105878937D01*
X168512366Y-105907194D01*
X168314577Y-105947790D01*
X168121585Y-106000733D01*
X167935450Y-106066032D01*
X167758233Y-106143694D01*
X167733149Y-106156197D01*
X167669637Y-106189957D01*
X167603794Y-106227501D01*
X167538237Y-106267088D01*
X167475585Y-106306978D01*
X167418454Y-106345430D01*
X167369462Y-106380704D01*
X167331227Y-106411058D01*
X167306366Y-106434753D01*
X167297498Y-106450048D01*
X167003740Y-106450048D01*
X166867011Y-106411532D01*
X166595077Y-106346665D01*
X166518361Y-106330199D01*
X166253926Y-106279189D01*
X165986959Y-106236809D01*
X165714542Y-106202777D01*
X165433760Y-106176809D01*
X165141698Y-106158622D01*
X164835440Y-106147932D01*
X164512071Y-106144458D01*
X164426934Y-106144646D01*
X164230236Y-106146709D01*
X164048630Y-106151245D01*
X163877856Y-106158503D01*
X163713650Y-106168730D01*
X163551749Y-106182174D01*
X163387892Y-106199083D01*
X163217815Y-106219705D01*
X163099962Y-106235817D01*
X162747583Y-106295044D01*
X162408930Y-106368979D01*
X162084234Y-106457480D01*
X162021464Y-106478286D01*
X161773726Y-106560403D01*
X161477636Y-106677606D01*
X161196196Y-106808946D01*
X161137444Y-106840979D01*
X160929637Y-106954280D01*
X160678189Y-107113466D01*
X160442084Y-107286361D01*
X160221552Y-107472822D01*
X160016824Y-107672707D01*
X159828132Y-107885872D01*
X159655706Y-108112175D01*
X159499777Y-108351473D01*
X159360576Y-108603624D01*
X159342733Y-108639279D01*
X159221849Y-108904552D01*
X159120034Y-109174089D01*
X159036813Y-109449649D01*
X158971710Y-109732991D01*
X158924250Y-110025875D01*
X158893956Y-110330058D01*
X158891873Y-110367334D01*
X158889617Y-110443744D01*
X158888756Y-110535505D01*
X158813598Y-110535505D01*
X158813964Y-110470049D01*
X158816204Y-110375442D01*
X158820140Y-110298268D01*
X158820460Y-110293855D01*
X158827225Y-110215575D01*
X158836608Y-110126553D01*
X158847908Y-110032103D01*
X158860424Y-109937538D01*
X158873456Y-109848168D01*
X158886301Y-109769308D01*
X158898259Y-109706269D01*
X158912523Y-109638800D01*
X158822736Y-109552618D01*
X158799133Y-109529537D01*
X158668663Y-109385065D01*
X158550753Y-109224654D01*
X158445852Y-109049591D01*
X158354409Y-108861162D01*
X158276874Y-108660655D01*
X158213697Y-108449356D01*
X158165325Y-108228550D01*
X158132210Y-107999526D01*
X158114799Y-107763568D01*
X158114015Y-107612868D01*
X158189629Y-107612868D01*
X158190747Y-107710011D01*
X158193275Y-107804160D01*
X158197180Y-107890981D01*
X158202431Y-107966139D01*
X158208996Y-108025302D01*
X158226313Y-108135164D01*
X158271252Y-108358717D01*
X158327227Y-108565988D01*
X158394929Y-108758607D01*
X158475048Y-108938208D01*
X158568273Y-109106419D01*
X158675294Y-109264874D01*
X158796802Y-109415202D01*
X158800060Y-109418890D01*
X158833665Y-109455073D01*
X158867386Y-109488666D01*
X158894382Y-109512824D01*
X158934567Y-109545118D01*
X158963222Y-109429615D01*
X158969810Y-109404253D01*
X158986398Y-109345337D01*
X159006971Y-109276586D01*
X159029535Y-109204594D01*
X159052092Y-109135957D01*
X159112307Y-108957801D01*
X159060336Y-108883625D01*
X159033239Y-108842631D01*
X158975388Y-108739442D01*
X158921215Y-108621789D01*
X158872557Y-108494277D01*
X158831246Y-108361509D01*
X158799120Y-108228091D01*
X158784250Y-108149124D01*
X158762596Y-108002680D01*
X158747716Y-107854213D01*
X158739431Y-107705786D01*
X158737609Y-107563269D01*
X158815330Y-107563269D01*
X158816025Y-107659619D01*
X158818323Y-107754741D01*
X158822185Y-107844065D01*
X158827576Y-107923017D01*
X158834457Y-107987024D01*
X158860653Y-108146166D01*
X158900635Y-108322830D01*
X158949821Y-108485166D01*
X159007645Y-108631345D01*
X159073541Y-108759535D01*
X159092029Y-108791093D01*
X159115579Y-108830096D01*
X159132254Y-108852173D01*
X159144890Y-108857912D01*
X159156328Y-108847898D01*
X159169406Y-108822718D01*
X159186961Y-108782957D01*
X159270788Y-108604979D01*
X159411511Y-108346850D01*
X159569406Y-108100689D01*
X159743941Y-107867193D01*
X159934581Y-107647060D01*
X160140791Y-107440988D01*
X160362037Y-107249673D01*
X160385993Y-107230667D01*
X160462512Y-107172362D01*
X160548002Y-107110097D01*
X160637410Y-107047374D01*
X160725684Y-106987697D01*
X160807771Y-106934568D01*
X160878620Y-106891492D01*
X160886792Y-106886690D01*
X160919008Y-106866468D01*
X160941617Y-106850178D01*
X160950147Y-106840979D01*
X160944778Y-106834473D01*
X160922494Y-106820821D01*
X160885973Y-106802829D01*
X160838541Y-106781948D01*
X160783524Y-106759623D01*
X160724248Y-106737304D01*
X160664039Y-106716437D01*
X160658037Y-106714465D01*
X160504345Y-106669933D01*
X160347340Y-106636304D01*
X160183009Y-106613004D01*
X160007338Y-106599457D01*
X159816313Y-106595090D01*
X159753748Y-106595577D01*
X159595568Y-106601535D01*
X159452107Y-106614107D01*
X159324328Y-106633092D01*
X159213192Y-106658286D01*
X159119663Y-106689488D01*
X159044704Y-106726494D01*
X158989275Y-106769103D01*
X158956126Y-106809757D01*
X158924459Y-106866759D01*
X158896342Y-106939062D01*
X158871300Y-107028123D01*
X158848858Y-107135400D01*
X158828541Y-107262348D01*
X158823233Y-107312586D01*
X158818896Y-107385180D01*
X158816275Y-107470266D01*
X158815330Y-107563269D01*
X158737609Y-107563269D01*
X158737560Y-107559457D01*
X158741922Y-107417289D01*
X158752338Y-107281341D01*
X158768627Y-107153675D01*
X158790608Y-107036350D01*
X158818101Y-106931428D01*
X158850927Y-106840968D01*
X158888904Y-106767032D01*
X158931852Y-106711679D01*
X158981973Y-106672319D01*
X159053505Y-106634669D01*
X159142090Y-106601553D01*
X159245773Y-106573350D01*
X159362601Y-106550441D01*
X159490619Y-106533203D01*
X159627874Y-106522017D01*
X159772412Y-106517262D01*
X159922278Y-106519319D01*
X159980340Y-106521889D01*
X160200892Y-106540178D01*
X160406875Y-106571340D01*
X160597613Y-106615226D01*
X160772429Y-106671687D01*
X160930649Y-106740576D01*
X161043608Y-106797210D01*
X161176776Y-106730468D01*
X161192576Y-106722609D01*
X161270582Y-106685160D01*
X161356607Y-106645682D01*
X161445276Y-106606515D01*
X161531213Y-106570000D01*
X161609043Y-106538476D01*
X161673391Y-106514283D01*
X161677503Y-106512809D01*
X161711100Y-106499085D01*
X161734009Y-106486739D01*
X161741473Y-106478286D01*
X161735580Y-106469751D01*
X161714700Y-106449021D01*
X161682200Y-106420718D01*
X161641447Y-106387560D01*
X161595808Y-106352264D01*
X161548651Y-106317547D01*
X161503343Y-106286127D01*
X161391362Y-106216798D01*
X161212625Y-106124847D01*
X161018077Y-106045083D01*
X160808904Y-105977922D01*
X160586296Y-105923780D01*
X160351440Y-105883072D01*
X160334803Y-105880907D01*
X160266277Y-105874384D01*
X160183556Y-105869313D01*
X160091054Y-105865726D01*
X159993187Y-105863657D01*
X159894369Y-105863140D01*
X159799016Y-105864207D01*
X159711542Y-105866891D01*
X159636361Y-105871227D01*
X159577890Y-105877246D01*
X159551461Y-105881073D01*
X159356017Y-105915839D01*
X159179223Y-105959532D01*
X159020425Y-106012479D01*
X158878971Y-106075004D01*
X158754206Y-106147434D01*
X158645478Y-106230094D01*
X158552132Y-106323309D01*
X158473515Y-106427405D01*
X158457976Y-106451868D01*
X158388559Y-106579217D01*
X158328739Y-106721802D01*
X158278162Y-106880700D01*
X158236475Y-107056990D01*
X158203324Y-107251752D01*
X158199886Y-107281035D01*
X158195049Y-107346814D01*
X158191748Y-107426936D01*
X158189952Y-107517065D01*
X158189629Y-107612868D01*
X158114015Y-107612868D01*
X158113542Y-107521964D01*
X158125046Y-107319080D01*
X158149417Y-107115759D01*
X158186055Y-106926682D01*
X158234739Y-106752427D01*
X158295247Y-106593570D01*
X158367356Y-106450690D01*
X158450845Y-106324363D01*
X158545492Y-106215166D01*
X158651076Y-106123678D01*
X158747548Y-106058889D01*
X158891968Y-105982339D01*
X159052667Y-105918035D01*
X159228922Y-105866181D01*
X159420008Y-105826981D01*
X159625200Y-105800641D01*
X159843773Y-105787364D01*
X159924896Y-105785902D01*
X160161776Y-105792504D01*
X160393947Y-105815017D01*
X160619811Y-105852950D01*
X160837771Y-105905809D01*
X161046229Y-105973101D01*
X161243587Y-106054332D01*
X161428247Y-106149009D01*
X161598611Y-106256640D01*
X161753082Y-106376730D01*
X161840508Y-106452278D01*
X161975490Y-106410004D01*
X162196084Y-106345206D01*
X162464439Y-106277506D01*
X162742860Y-106219161D01*
X163033783Y-106169718D01*
X163339641Y-106128724D01*
X163662871Y-106095725D01*
X163682170Y-106094144D01*
X163757084Y-106089364D01*
X163849169Y-106085077D01*
X163955358Y-106081319D01*
X164072585Y-106078120D01*
X164197785Y-106075515D01*
X164327892Y-106073537D01*
X164459841Y-106072219D01*
X164590565Y-106071593D01*
X164716999Y-106071693D01*
X164836077Y-106072553D01*
X164944734Y-106074204D01*
X165039903Y-106076680D01*
X165118519Y-106080015D01*
X165248858Y-106087810D01*
X165623092Y-106118454D01*
X165980423Y-106160496D01*
X166321648Y-106214056D01*
X166647564Y-106279255D01*
X166958966Y-106356210D01*
X166980317Y-106362055D01*
X167037663Y-106378061D01*
X167089509Y-106392945D01*
X167130862Y-106405260D01*
X167156730Y-106413559D01*
X167168798Y-106417726D01*
X167191653Y-106423467D01*
X167205925Y-106420231D01*
X167219750Y-106407195D01*
X167227793Y-106399210D01*
X167252101Y-106377761D01*
X167285744Y-106349809D01*
X167323989Y-106319343D01*
X167384152Y-106274123D01*
X167557195Y-106161103D01*
X167744398Y-106062479D01*
X167946185Y-105978087D01*
X168162977Y-105907766D01*
X168395195Y-105851350D01*
X168643263Y-105808677D01*
X168654479Y-105807181D01*
X168728495Y-105799862D01*
X168817677Y-105794415D01*
X168917490Y-105790841D01*
X169023400Y-105789140D01*
X169130872Y-105789311D01*
X169235371Y-105791354D01*
X169332364Y-105795269D01*
X169417315Y-105801055D01*
X169485691Y-105808713D01*
X169527539Y-105815138D01*
X169719742Y-105852603D01*
X169896798Y-105900760D01*
X170058018Y-105959290D01*
X170202709Y-106027874D01*
X170330183Y-106106195D01*
X170439749Y-106193933D01*
X170530717Y-106290771D01*
X170602764Y-106391652D01*
X170677496Y-106525585D01*
X170742480Y-106676873D01*
X170797361Y-106844556D01*
X170841785Y-107027672D01*
X170875397Y-107225260D01*
X170877020Y-107237687D01*
X170884609Y-107317057D01*
X170889959Y-107411558D01*
X170893072Y-107516160D01*
X170893558Y-107576880D01*
X170893950Y-107625836D01*
G37*
%TD*%
M02*
