M48
; DRILL file {KiCad 9.0.7-9.0.7~ubuntu24.04.1} date 2026-02-22T00:32:14-0800
; FORMAT={-:-/ absolute / metric / decimal}
; #@! TF.CreationDate,2026-02-22T00:32:14-08:00
; #@! TF.GenerationSoftware,Kicad,Pcbnew,9.0.7-9.0.7~ubuntu24.04.1
; #@! TF.FileFunction,MixedPlating,1,2
FMAT,2
METRIC
; #@! TA.AperFunction,Plated,PTH,ViaDrill
T1C0.300
; #@! TA.AperFunction,Plated,PTH,ComponentDrill
T2C1.000
; #@! TA.AperFunction,NonPlated,NPTH,ComponentDrill
T3C3.200
%
G90
G05
T1
X137.0Y-96.0
X137.0Y-100.0
X137.0Y-104.0
X137.0Y-108.0
X137.0Y-112.0
X137.0Y-116.0
X140.4Y-114.4
X142.8Y-100.7
X143.0Y-103.0
X143.0Y-105.5
X143.0Y-108.0
X143.0Y-111.0
X144.5Y-114.0
X145.5Y-111.0
X146.0Y-88.0
X146.0Y-94.0
X146.0Y-105.5
X146.0Y-108.0
X146.0Y-116.0
X146.0Y-123.0
X146.8Y-103.1
X146.9Y-100.7
X148.0Y-108.5
X148.0Y-112.5
X150.0Y-88.0
X150.0Y-94.0
X150.0Y-103.5
X150.0Y-106.5
X150.0Y-116.0
X150.0Y-123.0
X150.5Y-100.6
X151.3Y-110.1
X152.5Y-102.3
X154.0Y-88.0
X154.0Y-94.0
X154.0Y-112.0
X154.0Y-116.0
X154.0Y-123.0
X154.5Y-100.5
X154.75Y-103.75
X154.75Y-105.75
X154.75Y-107.75
X155.9Y-110.1
X157.0Y-101.0
X157.25Y-103.75
X157.25Y-105.75
X157.25Y-107.75
X158.0Y-88.0
X158.0Y-94.0
X158.0Y-112.0
X158.0Y-116.0
X158.0Y-123.0
X162.0Y-88.0
X162.0Y-94.0
X162.0Y-101.0
X162.0Y-112.0
X162.0Y-116.0
X162.0Y-123.0
X162.6Y-103.8
X163.0Y-108.0
X166.0Y-88.0
X166.0Y-94.0
X166.0Y-116.0
X166.0Y-123.0
X167.0Y-97.0
X167.0Y-101.0
X167.0Y-105.0
X167.0Y-109.0
X167.0Y-113.0
X173.0Y-94.0
X173.0Y-98.0
X173.0Y-102.0
X173.0Y-107.0
X173.0Y-112.0
X173.0Y-117.0
T2
X140.4Y-99.3
X140.4Y-101.84
X140.4Y-104.38
X140.4Y-106.92
X140.4Y-109.46
X140.4Y-112.0
T3
X140.4Y-90.15
X140.4Y-121.15
X171.4Y-90.15
X171.4Y-121.15
M30
