%TF.GenerationSoftware,KiCad,Pcbnew,9.0.7-9.0.7~ubuntu24.04.1*%
%TF.CreationDate,2026-02-22T00:32:16-08:00*%
%TF.ProjectId,AS5047-Devboard,41533530-3437-42d4-9465-76626f617264,rev?*%
%TF.SameCoordinates,Original*%
%TF.FileFunction,Copper,L2,Bot*%
%TF.FilePolarity,Positive*%
%FSLAX46Y46*%
G04 Gerber Fmt 4.6, Leading zero omitted, Abs format (unit mm)*
G04 Created by KiCad (PCBNEW 9.0.7-9.0.7~ubuntu24.04.1) date 2026-02-22 00:32:16*
%MOMM*%
%LPD*%
G01*
G04 APERTURE LIST*
%TA.AperFunction,ComponentPad*%
%ADD10R,1.700000X1.700000*%
%TD*%
%TA.AperFunction,ComponentPad*%
%ADD11C,1.700000*%
%TD*%
%TA.AperFunction,ViaPad*%
%ADD12C,0.600000*%
%TD*%
%TA.AperFunction,ViaPad*%
%ADD13C,0.700000*%
%TD*%
G04 APERTURE END LIST*
D10*
%TO.P,J1,1,Pin_1*%
%TO.N,+3.3V*%
X140400000Y-99300000D03*
D11*
%TO.P,J1,2,Pin_2*%
%TO.N,/SPI_CS*%
X140400000Y-101840000D03*
%TO.P,J1,3,Pin_3*%
%TO.N,/SPI_CLK*%
X140400000Y-104380000D03*
%TO.P,J1,4,Pin_4*%
%TO.N,/SPI_MISO*%
X140400000Y-106920000D03*
%TO.P,J1,5,Pin_5*%
%TO.N,/SPI_MOSI*%
X140400000Y-109460000D03*
%TO.P,J1,6,Pin_6*%
%TO.N,GND*%
X140400000Y-112000000D03*
%TD*%
D12*
%TO.N,GND*%
X157250000Y-105750000D03*
X154750000Y-105750000D03*
X157250000Y-107750000D03*
X154750000Y-107750000D03*
X157250000Y-103750000D03*
X154750000Y-103750000D03*
D13*
X146000000Y-108000000D03*
X154000000Y-116000000D03*
X167000000Y-113000000D03*
X146800000Y-103100000D03*
X162000000Y-112000000D03*
X163000000Y-108000000D03*
X142800000Y-100700000D03*
X166000000Y-123000000D03*
X152500000Y-102300000D03*
X173000000Y-102000000D03*
X146000000Y-94000000D03*
X166000000Y-94000000D03*
X162000000Y-116000000D03*
X137000000Y-108000000D03*
X150000000Y-123000000D03*
X158000000Y-94000000D03*
X146000000Y-123000000D03*
X143000000Y-103000000D03*
X137000000Y-100000000D03*
X150000000Y-88000000D03*
X151300000Y-110100000D03*
X166000000Y-88000000D03*
X150000000Y-116000000D03*
X140400000Y-114400000D03*
X162000000Y-101000000D03*
X150500000Y-100600000D03*
X173000000Y-107000000D03*
X154000000Y-123000000D03*
X137000000Y-112000000D03*
X137000000Y-104000000D03*
X148000000Y-112500000D03*
X162000000Y-88000000D03*
X166000000Y-116000000D03*
X146900000Y-100700000D03*
X158000000Y-88000000D03*
X150000000Y-103500000D03*
X167000000Y-97000000D03*
X148000000Y-108500000D03*
X167000000Y-109000000D03*
X173000000Y-112000000D03*
X146000000Y-88000000D03*
X162000000Y-123000000D03*
X143000000Y-108000000D03*
X145500000Y-111000000D03*
X137000000Y-116000000D03*
X173000000Y-117000000D03*
X155900000Y-110100000D03*
X158000000Y-116000000D03*
X162600000Y-103800000D03*
X158000000Y-123000000D03*
X167000000Y-105000000D03*
X158000000Y-112000000D03*
X146000000Y-116000000D03*
X167000000Y-101000000D03*
X150000000Y-94000000D03*
X173000000Y-94000000D03*
X146000000Y-105500000D03*
X157000000Y-101000000D03*
X154500000Y-100500000D03*
X137000000Y-96000000D03*
X144500000Y-114000000D03*
X150000000Y-106500000D03*
X143000000Y-105500000D03*
X162000000Y-94000000D03*
X154000000Y-88000000D03*
X154000000Y-94000000D03*
X143000000Y-111000000D03*
X173000000Y-98000000D03*
X154000000Y-112000000D03*
%TD*%
%TA.AperFunction,Conductor*%
%TO.N,GND*%
G36*
X172508363Y-85170185D02*
G01*
X172529005Y-85186819D01*
X176363181Y-89020995D01*
X176396666Y-89082318D01*
X176399500Y-89108676D01*
X176399500Y-122191324D01*
X176379815Y-122258363D01*
X176363181Y-122279005D01*
X172529005Y-126113181D01*
X172467682Y-126146666D01*
X172441324Y-126149500D01*
X139358676Y-126149500D01*
X139291637Y-126129815D01*
X139270995Y-126113181D01*
X135436819Y-122279005D01*
X135403334Y-122217682D01*
X135400500Y-122191324D01*
X135400500Y-121028711D01*
X138549500Y-121028711D01*
X138549500Y-121271288D01*
X138581161Y-121511785D01*
X138643947Y-121746104D01*
X138736773Y-121970205D01*
X138736776Y-121970212D01*
X138858064Y-122180289D01*
X138858066Y-122180292D01*
X138858067Y-122180293D01*
X139005733Y-122372736D01*
X139005739Y-122372743D01*
X139177256Y-122544260D01*
X139177262Y-122544265D01*
X139369711Y-122691936D01*
X139579788Y-122813224D01*
X139803900Y-122906054D01*
X140038211Y-122968838D01*
X140218586Y-122992584D01*
X140278711Y-123000500D01*
X140278712Y-123000500D01*
X140521289Y-123000500D01*
X140569388Y-122994167D01*
X140761789Y-122968838D01*
X140996100Y-122906054D01*
X141220212Y-122813224D01*
X141430289Y-122691936D01*
X141622738Y-122544265D01*
X141794265Y-122372738D01*
X141941936Y-122180289D01*
X142063224Y-121970212D01*
X142156054Y-121746100D01*
X142218838Y-121511789D01*
X142250500Y-121271288D01*
X142250500Y-121028712D01*
X142250500Y-121028711D01*
X169549500Y-121028711D01*
X169549500Y-121271288D01*
X169581161Y-121511785D01*
X169643947Y-121746104D01*
X169736773Y-121970205D01*
X169736776Y-121970212D01*
X169858064Y-122180289D01*
X169858066Y-122180292D01*
X169858067Y-122180293D01*
X170005733Y-122372736D01*
X170005739Y-122372743D01*
X170177256Y-122544260D01*
X170177262Y-122544265D01*
X170369711Y-122691936D01*
X170579788Y-122813224D01*
X170803900Y-122906054D01*
X171038211Y-122968838D01*
X171218586Y-122992584D01*
X171278711Y-123000500D01*
X171278712Y-123000500D01*
X171521289Y-123000500D01*
X171569388Y-122994167D01*
X171761789Y-122968838D01*
X171996100Y-122906054D01*
X172220212Y-122813224D01*
X172430289Y-122691936D01*
X172622738Y-122544265D01*
X172794265Y-122372738D01*
X172941936Y-122180289D01*
X173063224Y-121970212D01*
X173156054Y-121746100D01*
X173218838Y-121511789D01*
X173250500Y-121271288D01*
X173250500Y-121028712D01*
X173218838Y-120788211D01*
X173156054Y-120553900D01*
X173063224Y-120329788D01*
X172941936Y-120119711D01*
X172794265Y-119927262D01*
X172794260Y-119927256D01*
X172622743Y-119755739D01*
X172622736Y-119755733D01*
X172430293Y-119608067D01*
X172430292Y-119608066D01*
X172430289Y-119608064D01*
X172220212Y-119486776D01*
X172220205Y-119486773D01*
X171996104Y-119393947D01*
X171761785Y-119331161D01*
X171521289Y-119299500D01*
X171521288Y-119299500D01*
X171278712Y-119299500D01*
X171278711Y-119299500D01*
X171038214Y-119331161D01*
X170803895Y-119393947D01*
X170579794Y-119486773D01*
X170579785Y-119486777D01*
X170369706Y-119608067D01*
X170177263Y-119755733D01*
X170177256Y-119755739D01*
X170005739Y-119927256D01*
X170005733Y-119927263D01*
X169858067Y-120119706D01*
X169736777Y-120329785D01*
X169736773Y-120329794D01*
X169643947Y-120553895D01*
X169581161Y-120788214D01*
X169549500Y-121028711D01*
X142250500Y-121028711D01*
X142218838Y-120788211D01*
X142156054Y-120553900D01*
X142063224Y-120329788D01*
X141941936Y-120119711D01*
X141794265Y-119927262D01*
X141794260Y-119927256D01*
X141622743Y-119755739D01*
X141622736Y-119755733D01*
X141430293Y-119608067D01*
X141430292Y-119608066D01*
X141430289Y-119608064D01*
X141220212Y-119486776D01*
X141220205Y-119486773D01*
X140996104Y-119393947D01*
X140761785Y-119331161D01*
X140521289Y-119299500D01*
X140521288Y-119299500D01*
X140278712Y-119299500D01*
X140278711Y-119299500D01*
X140038214Y-119331161D01*
X139803895Y-119393947D01*
X139579794Y-119486773D01*
X139579785Y-119486777D01*
X139369706Y-119608067D01*
X139177263Y-119755733D01*
X139177256Y-119755739D01*
X139005739Y-119927256D01*
X139005733Y-119927263D01*
X138858067Y-120119706D01*
X138736777Y-120329785D01*
X138736773Y-120329794D01*
X138643947Y-120553895D01*
X138581161Y-120788214D01*
X138549500Y-121028711D01*
X135400500Y-121028711D01*
X135400500Y-111893753D01*
X139050000Y-111893753D01*
X139050000Y-112106246D01*
X139083242Y-112316127D01*
X139083242Y-112316130D01*
X139148904Y-112518217D01*
X139245375Y-112707550D01*
X139284728Y-112761716D01*
X139917037Y-112129408D01*
X139934075Y-112192993D01*
X139999901Y-112307007D01*
X140092993Y-112400099D01*
X140207007Y-112465925D01*
X140270590Y-112482962D01*
X139638282Y-113115269D01*
X139638282Y-113115270D01*
X139692449Y-113154624D01*
X139881782Y-113251095D01*
X140083870Y-113316757D01*
X140293754Y-113350000D01*
X140506246Y-113350000D01*
X140716127Y-113316757D01*
X140716130Y-113316757D01*
X140918217Y-113251095D01*
X141107554Y-113154622D01*
X141161716Y-113115270D01*
X141161717Y-113115270D01*
X140529408Y-112482962D01*
X140592993Y-112465925D01*
X140707007Y-112400099D01*
X140800099Y-112307007D01*
X140865925Y-112192993D01*
X140882962Y-112129408D01*
X141515270Y-112761717D01*
X141515270Y-112761716D01*
X141554622Y-112707554D01*
X141651095Y-112518217D01*
X141716757Y-112316130D01*
X141716757Y-112316127D01*
X141750000Y-112106246D01*
X141750000Y-111893753D01*
X141716757Y-111683872D01*
X141716757Y-111683869D01*
X141651095Y-111481782D01*
X141554624Y-111292449D01*
X141515270Y-111238282D01*
X141515269Y-111238282D01*
X140882962Y-111870590D01*
X140865925Y-111807007D01*
X140800099Y-111692993D01*
X140707007Y-111599901D01*
X140592993Y-111534075D01*
X140529409Y-111517037D01*
X141161716Y-110884728D01*
X141107550Y-110845375D01*
X140918217Y-110748904D01*
X140819287Y-110716760D01*
X140761611Y-110677323D01*
X140734413Y-110612964D01*
X140746328Y-110544118D01*
X140793572Y-110492642D01*
X140819290Y-110480897D01*
X140822445Y-110479873D01*
X140976788Y-110401232D01*
X141116928Y-110299414D01*
X141239414Y-110176928D01*
X141341232Y-110036788D01*
X141419873Y-109882445D01*
X141473402Y-109717701D01*
X141500500Y-109546611D01*
X141500500Y-109373389D01*
X141473402Y-109202299D01*
X141419873Y-109037555D01*
X141341232Y-108883212D01*
X141239414Y-108743072D01*
X141116928Y-108620586D01*
X140976788Y-108518768D01*
X140822445Y-108440127D01*
X140657701Y-108386598D01*
X140657699Y-108386597D01*
X140657698Y-108386597D01*
X140526271Y-108365781D01*
X140486611Y-108359500D01*
X140313389Y-108359500D01*
X140273728Y-108365781D01*
X140142302Y-108386597D01*
X139977552Y-108440128D01*
X139823211Y-108518768D01*
X139743256Y-108576859D01*
X139683072Y-108620586D01*
X139683070Y-108620588D01*
X139683069Y-108620588D01*
X139560588Y-108743069D01*
X139560588Y-108743070D01*
X139560586Y-108743072D01*
X139516859Y-108803256D01*
X139458768Y-108883211D01*
X139380128Y-109037552D01*
X139326597Y-109202302D01*
X139299500Y-109373389D01*
X139299500Y-109546611D01*
X139326598Y-109717701D01*
X139380127Y-109882445D01*
X139458768Y-110036788D01*
X139560586Y-110176928D01*
X139683072Y-110299414D01*
X139823212Y-110401232D01*
X139977555Y-110479873D01*
X139980708Y-110480897D01*
X139981752Y-110481611D01*
X139982048Y-110481734D01*
X139982022Y-110481795D01*
X140038383Y-110520330D01*
X140065585Y-110584688D01*
X140053674Y-110653535D01*
X140006433Y-110705013D01*
X139980712Y-110716760D01*
X139881783Y-110748904D01*
X139692439Y-110845380D01*
X139638282Y-110884727D01*
X139638282Y-110884728D01*
X140270591Y-111517037D01*
X140207007Y-111534075D01*
X140092993Y-111599901D01*
X139999901Y-111692993D01*
X139934075Y-111807007D01*
X139917037Y-111870591D01*
X139284728Y-111238282D01*
X139284727Y-111238282D01*
X139245380Y-111292439D01*
X139148904Y-111481782D01*
X139083242Y-111683869D01*
X139083242Y-111683872D01*
X139050000Y-111893753D01*
X135400500Y-111893753D01*
X135400500Y-106833389D01*
X139299500Y-106833389D01*
X139299500Y-107006611D01*
X139326598Y-107177701D01*
X139380127Y-107342445D01*
X139458768Y-107496788D01*
X139560586Y-107636928D01*
X139683072Y-107759414D01*
X139823212Y-107861232D01*
X139977555Y-107939873D01*
X140142299Y-107993402D01*
X140313389Y-108020500D01*
X140313390Y-108020500D01*
X140486610Y-108020500D01*
X140486611Y-108020500D01*
X140657701Y-107993402D01*
X140822445Y-107939873D01*
X140976788Y-107861232D01*
X141116928Y-107759414D01*
X141239414Y-107636928D01*
X141341232Y-107496788D01*
X141419873Y-107342445D01*
X141473402Y-107177701D01*
X141500500Y-107006611D01*
X141500500Y-106833389D01*
X141473402Y-106662299D01*
X141419873Y-106497555D01*
X141341232Y-106343212D01*
X141239414Y-106203072D01*
X141116928Y-106080586D01*
X140976788Y-105978768D01*
X140822445Y-105900127D01*
X140657701Y-105846598D01*
X140657699Y-105846597D01*
X140657698Y-105846597D01*
X140526271Y-105825781D01*
X140486611Y-105819500D01*
X140313389Y-105819500D01*
X140273728Y-105825781D01*
X140142302Y-105846597D01*
X139977552Y-105900128D01*
X139823211Y-105978768D01*
X139743256Y-106036859D01*
X139683072Y-106080586D01*
X139683070Y-106080588D01*
X139683069Y-106080588D01*
X139560588Y-106203069D01*
X139560588Y-106203070D01*
X139560586Y-106203072D01*
X139516859Y-106263256D01*
X139458768Y-106343211D01*
X139380128Y-106497552D01*
X139326597Y-106662302D01*
X139299500Y-106833389D01*
X135400500Y-106833389D01*
X135400500Y-104293389D01*
X139299500Y-104293389D01*
X139299500Y-104466611D01*
X139326598Y-104637701D01*
X139380127Y-104802445D01*
X139458768Y-104956788D01*
X139560586Y-105096928D01*
X139683072Y-105219414D01*
X139823212Y-105321232D01*
X139977555Y-105399873D01*
X140142299Y-105453402D01*
X140313389Y-105480500D01*
X140313390Y-105480500D01*
X140486610Y-105480500D01*
X140486611Y-105480500D01*
X140657701Y-105453402D01*
X140822445Y-105399873D01*
X140976788Y-105321232D01*
X141116928Y-105219414D01*
X141239414Y-105096928D01*
X141341232Y-104956788D01*
X141419873Y-104802445D01*
X141473402Y-104637701D01*
X141500500Y-104466611D01*
X141500500Y-104293389D01*
X141473402Y-104122299D01*
X141419873Y-103957555D01*
X141341232Y-103803212D01*
X141239414Y-103663072D01*
X141116928Y-103540586D01*
X140976788Y-103438768D01*
X140822445Y-103360127D01*
X140657701Y-103306598D01*
X140657699Y-103306597D01*
X140657698Y-103306597D01*
X140526271Y-103285781D01*
X140486611Y-103279500D01*
X140313389Y-103279500D01*
X140273728Y-103285781D01*
X140142302Y-103306597D01*
X139977552Y-103360128D01*
X139823211Y-103438768D01*
X139743256Y-103496859D01*
X139683072Y-103540586D01*
X139683070Y-103540588D01*
X139683069Y-103540588D01*
X139560588Y-103663069D01*
X139560588Y-103663070D01*
X139560586Y-103663072D01*
X139516859Y-103723256D01*
X139458768Y-103803211D01*
X139380128Y-103957552D01*
X139326597Y-104122302D01*
X139299500Y-104293389D01*
X135400500Y-104293389D01*
X135400500Y-101753389D01*
X139299500Y-101753389D01*
X139299500Y-101926611D01*
X139326598Y-102097701D01*
X139380127Y-102262445D01*
X139458768Y-102416788D01*
X139560586Y-102556928D01*
X139683072Y-102679414D01*
X139823212Y-102781232D01*
X139977555Y-102859873D01*
X140142299Y-102913402D01*
X140313389Y-102940500D01*
X140313390Y-102940500D01*
X140486610Y-102940500D01*
X140486611Y-102940500D01*
X140657701Y-102913402D01*
X140822445Y-102859873D01*
X140976788Y-102781232D01*
X141116928Y-102679414D01*
X141239414Y-102556928D01*
X141341232Y-102416788D01*
X141419873Y-102262445D01*
X141473402Y-102097701D01*
X141500500Y-101926611D01*
X141500500Y-101753389D01*
X141473402Y-101582299D01*
X141419873Y-101417555D01*
X141341232Y-101263212D01*
X141239414Y-101123072D01*
X141116928Y-101000586D01*
X140976788Y-100898768D01*
X140822445Y-100820127D01*
X140657701Y-100766598D01*
X140657699Y-100766597D01*
X140657698Y-100766597D01*
X140526271Y-100745781D01*
X140486611Y-100739500D01*
X140313389Y-100739500D01*
X140273728Y-100745781D01*
X140142302Y-100766597D01*
X139977552Y-100820128D01*
X139823211Y-100898768D01*
X139743256Y-100956859D01*
X139683072Y-101000586D01*
X139683070Y-101000588D01*
X139683069Y-101000588D01*
X139560588Y-101123069D01*
X139560588Y-101123070D01*
X139560586Y-101123072D01*
X139516859Y-101183256D01*
X139458768Y-101263211D01*
X139380128Y-101417552D01*
X139326597Y-101582302D01*
X139299500Y-101753389D01*
X135400500Y-101753389D01*
X135400500Y-98425321D01*
X139299500Y-98425321D01*
X139299500Y-100174678D01*
X139314032Y-100247735D01*
X139314033Y-100247739D01*
X139314034Y-100247740D01*
X139369399Y-100330601D01*
X139452260Y-100385966D01*
X139452264Y-100385967D01*
X139525321Y-100400499D01*
X139525324Y-100400500D01*
X139525326Y-100400500D01*
X141274676Y-100400500D01*
X141274677Y-100400499D01*
X141347740Y-100385966D01*
X141430601Y-100330601D01*
X141485966Y-100247740D01*
X141500500Y-100174674D01*
X141500500Y-98425326D01*
X141500500Y-98425323D01*
X141500499Y-98425321D01*
X141485967Y-98352264D01*
X141485966Y-98352260D01*
X141430601Y-98269399D01*
X141347740Y-98214034D01*
X141347739Y-98214033D01*
X141347735Y-98214032D01*
X141274677Y-98199500D01*
X141274674Y-98199500D01*
X139525326Y-98199500D01*
X139525323Y-98199500D01*
X139452264Y-98214032D01*
X139452260Y-98214033D01*
X139369399Y-98269399D01*
X139314033Y-98352260D01*
X139314032Y-98352264D01*
X139299500Y-98425321D01*
X135400500Y-98425321D01*
X135400500Y-90028711D01*
X138549500Y-90028711D01*
X138549500Y-90271288D01*
X138581161Y-90511785D01*
X138643947Y-90746104D01*
X138736773Y-90970205D01*
X138736776Y-90970212D01*
X138858064Y-91180289D01*
X138858066Y-91180292D01*
X138858067Y-91180293D01*
X139005733Y-91372736D01*
X139005739Y-91372743D01*
X139177256Y-91544260D01*
X139177262Y-91544265D01*
X139369711Y-91691936D01*
X139579788Y-91813224D01*
X139803900Y-91906054D01*
X140038211Y-91968838D01*
X140218586Y-91992584D01*
X140278711Y-92000500D01*
X140278712Y-92000500D01*
X140521289Y-92000500D01*
X140569388Y-91994167D01*
X140761789Y-91968838D01*
X140996100Y-91906054D01*
X141220212Y-91813224D01*
X141430289Y-91691936D01*
X141622738Y-91544265D01*
X141794265Y-91372738D01*
X141941936Y-91180289D01*
X142063224Y-90970212D01*
X142156054Y-90746100D01*
X142218838Y-90511789D01*
X142250500Y-90271288D01*
X142250500Y-90028712D01*
X142250500Y-90028711D01*
X169549500Y-90028711D01*
X169549500Y-90271288D01*
X169581161Y-90511785D01*
X169643947Y-90746104D01*
X169736773Y-90970205D01*
X169736776Y-90970212D01*
X169858064Y-91180289D01*
X169858066Y-91180292D01*
X169858067Y-91180293D01*
X170005733Y-91372736D01*
X170005739Y-91372743D01*
X170177256Y-91544260D01*
X170177262Y-91544265D01*
X170369711Y-91691936D01*
X170579788Y-91813224D01*
X170803900Y-91906054D01*
X171038211Y-91968838D01*
X171218586Y-91992584D01*
X171278711Y-92000500D01*
X171278712Y-92000500D01*
X171521289Y-92000500D01*
X171569388Y-91994167D01*
X171761789Y-91968838D01*
X171996100Y-91906054D01*
X172220212Y-91813224D01*
X172430289Y-91691936D01*
X172622738Y-91544265D01*
X172794265Y-91372738D01*
X172941936Y-91180289D01*
X173063224Y-90970212D01*
X173156054Y-90746100D01*
X173218838Y-90511789D01*
X173250500Y-90271288D01*
X173250500Y-90028712D01*
X173218838Y-89788211D01*
X173156054Y-89553900D01*
X173063224Y-89329788D01*
X172941936Y-89119711D01*
X172794265Y-88927262D01*
X172794260Y-88927256D01*
X172622743Y-88755739D01*
X172622736Y-88755733D01*
X172430293Y-88608067D01*
X172430292Y-88608066D01*
X172430289Y-88608064D01*
X172220212Y-88486776D01*
X172130220Y-88449500D01*
X171996104Y-88393947D01*
X171761785Y-88331161D01*
X171521289Y-88299500D01*
X171521288Y-88299500D01*
X171278712Y-88299500D01*
X171278711Y-88299500D01*
X171038214Y-88331161D01*
X170803895Y-88393947D01*
X170579794Y-88486773D01*
X170579785Y-88486777D01*
X170369706Y-88608067D01*
X170177263Y-88755733D01*
X170177256Y-88755739D01*
X170005739Y-88927256D01*
X170005733Y-88927263D01*
X169858067Y-89119706D01*
X169736777Y-89329785D01*
X169736773Y-89329794D01*
X169643947Y-89553895D01*
X169581161Y-89788214D01*
X169549500Y-90028711D01*
X142250500Y-90028711D01*
X142218838Y-89788211D01*
X142156054Y-89553900D01*
X142063224Y-89329788D01*
X141941936Y-89119711D01*
X141794265Y-88927262D01*
X141794260Y-88927256D01*
X141622743Y-88755739D01*
X141622736Y-88755733D01*
X141430293Y-88608067D01*
X141430292Y-88608066D01*
X141430289Y-88608064D01*
X141220212Y-88486776D01*
X141130220Y-88449500D01*
X140996104Y-88393947D01*
X140761785Y-88331161D01*
X140521289Y-88299500D01*
X140521288Y-88299500D01*
X140278712Y-88299500D01*
X140278711Y-88299500D01*
X140038214Y-88331161D01*
X139803895Y-88393947D01*
X139579794Y-88486773D01*
X139579785Y-88486777D01*
X139369706Y-88608067D01*
X139177263Y-88755733D01*
X139177256Y-88755739D01*
X139005739Y-88927256D01*
X139005733Y-88927263D01*
X138858067Y-89119706D01*
X138736777Y-89329785D01*
X138736773Y-89329794D01*
X138643947Y-89553895D01*
X138581161Y-89788214D01*
X138549500Y-90028711D01*
X135400500Y-90028711D01*
X135400500Y-89108676D01*
X135420185Y-89041637D01*
X135436819Y-89020995D01*
X139270995Y-85186819D01*
X139332318Y-85153334D01*
X139358676Y-85150500D01*
X172441324Y-85150500D01*
X172508363Y-85170185D01*
G37*
%TD.AperFunction*%
%TD*%
M02*
