%TF.GenerationSoftware,KiCad,Pcbnew,9.0.7-9.0.7~ubuntu24.04.1*%
%TF.CreationDate,2026-02-24T14:49:21-08:00*%
%TF.ProjectId,AS5047-Devboard,41533530-3437-42d4-9465-76626f617264,rev?*%
%TF.SameCoordinates,Original*%
%TF.FileFunction,Copper,L1,Top*%
%TF.FilePolarity,Positive*%
%FSLAX46Y46*%
G04 Gerber Fmt 4.6, Leading zero omitted, Abs format (unit mm)*
G04 Created by KiCad (PCBNEW 9.0.7-9.0.7~ubuntu24.04.1) date 2026-02-24 14:49:21*
%MOMM*%
%LPD*%
G01*
G04 APERTURE LIST*
G04 Aperture macros list*
%AMRoundRect*
0 Rectangle with rounded corners*
0 $1 Rounding radius*
0 $2 $3 $4 $5 $6 $7 $8 $9 X,Y pos of 4 corners*
0 Add a 4 corners polygon primitive as box body*
4,1,4,$2,$3,$4,$5,$6,$7,$8,$9,$2,$3,0*
0 Add four circle primitives for the rounded corners*
1,1,$1+$1,$2,$3*
1,1,$1+$1,$4,$5*
1,1,$1+$1,$6,$7*
1,1,$1+$1,$8,$9*
0 Add four rect primitives between the rounded corners*
20,1,$1+$1,$2,$3,$4,$5,0*
20,1,$1+$1,$4,$5,$6,$7,0*
20,1,$1+$1,$6,$7,$8,$9,0*
20,1,$1+$1,$8,$9,$2,$3,0*%
G04 Aperture macros list end*
%TA.AperFunction,SMDPad,CuDef*%
%ADD10RoundRect,0.225000X0.250000X-0.225000X0.250000X0.225000X-0.250000X0.225000X-0.250000X-0.225000X0*%
%TD*%
%TA.AperFunction,ComponentPad*%
%ADD11R,1.700000X1.700000*%
%TD*%
%TA.AperFunction,ComponentPad*%
%ADD12C,1.700000*%
%TD*%
%TA.AperFunction,SMDPad,CuDef*%
%ADD13RoundRect,0.100000X-0.637500X-0.100000X0.637500X-0.100000X0.637500X0.100000X-0.637500X0.100000X0*%
%TD*%
%TA.AperFunction,ViaPad*%
%ADD14C,0.700000*%
%TD*%
%TA.AperFunction,ViaPad*%
%ADD15C,0.600000*%
%TD*%
%TA.AperFunction,Conductor*%
%ADD16C,0.300000*%
%TD*%
%TA.AperFunction,Conductor*%
%ADD17C,0.500000*%
%TD*%
G04 APERTURE END LIST*
D10*
%TO.P,C1,1*%
%TO.N,+3.3V*%
X160650000Y-105475000D03*
%TO.P,C1,2*%
%TO.N,GND*%
X160650000Y-103925000D03*
%TD*%
D11*
%TO.P,J1,1,Pin_1*%
%TO.N,+3.3V*%
X140400000Y-99300000D03*
D12*
%TO.P,J1,2,Pin_2*%
%TO.N,/SPI_CS*%
X140400000Y-101840000D03*
%TO.P,J1,3,Pin_3*%
%TO.N,/SPI_CLK*%
X140400000Y-104380000D03*
%TO.P,J1,4,Pin_4*%
%TO.N,/SPI_MISO*%
X140400000Y-106920000D03*
%TO.P,J1,5,Pin_5*%
%TO.N,/SPI_MOSI*%
X140400000Y-109460000D03*
%TO.P,J1,6,Pin_6*%
%TO.N,GND*%
X140400000Y-112000000D03*
%TD*%
D13*
%TO.P,U1,1,~{CS}*%
%TO.N,/SPI_CS*%
X153037500Y-103700000D03*
%TO.P,U1,2,CLK*%
%TO.N,/SPI_CLK*%
X153037500Y-104350000D03*
%TO.P,U1,3,MISO*%
%TO.N,/SPI_MISO*%
X153037500Y-105000000D03*
%TO.P,U1,4,MOSI*%
%TO.N,/SPI_MOSI*%
X153037500Y-105650000D03*
%TO.P,U1,5,TST*%
%TO.N,GND*%
X153037500Y-106300000D03*
%TO.P,U1,6,B*%
%TO.N,unconnected-(U1-B-Pad6)*%
X153037500Y-106950000D03*
%TO.P,U1,7,A*%
%TO.N,unconnected-(U1-A-Pad7)*%
X153037500Y-107600000D03*
%TO.P,U1,8,W/PWM*%
%TO.N,unconnected-(U1-W{slash}PWM-Pad8)*%
X158762500Y-107600000D03*
%TO.P,U1,9,V*%
%TO.N,unconnected-(U1-V-Pad9)*%
X158762500Y-106950000D03*
%TO.P,U1,10,U*%
%TO.N,unconnected-(U1-U-Pad10)*%
X158762500Y-106300000D03*
%TO.P,U1,11,VDD*%
%TO.N,unconnected-(U1-VDD-Pad11)*%
X158762500Y-105650000D03*
%TO.P,U1,12,VDD3V3*%
%TO.N,+3.3V*%
X158762500Y-105000000D03*
%TO.P,U1,13,GND*%
%TO.N,GND*%
X158762500Y-104350000D03*
%TO.P,U1,14,I/PWM*%
%TO.N,unconnected-(U1-I{slash}PWM-Pad14)*%
X158762500Y-103700000D03*
%TD*%
D14*
%TO.N,GND*%
X146000000Y-108000000D03*
X154000000Y-116000000D03*
X167000000Y-113000000D03*
X146800000Y-103100000D03*
X162000000Y-112000000D03*
X163000000Y-108000000D03*
X142800000Y-100700000D03*
D15*
X157250000Y-107750000D03*
D14*
X166000000Y-123000000D03*
X152500000Y-102300000D03*
X173000000Y-102000000D03*
X146000000Y-94000000D03*
D15*
X157250000Y-103750000D03*
D14*
X166000000Y-94000000D03*
X162000000Y-116000000D03*
X137000000Y-108000000D03*
X150000000Y-123000000D03*
X158000000Y-94000000D03*
X146000000Y-123000000D03*
X143000000Y-103000000D03*
X137000000Y-100000000D03*
D15*
X154750000Y-103750000D03*
D14*
X150000000Y-88000000D03*
X151300000Y-110100000D03*
X166000000Y-88000000D03*
X150000000Y-116000000D03*
X140400000Y-114400000D03*
D15*
X154750000Y-107750000D03*
D14*
X162000000Y-101000000D03*
X150500000Y-100600000D03*
X173000000Y-107000000D03*
X154000000Y-123000000D03*
X137000000Y-112000000D03*
X137000000Y-104000000D03*
X148000000Y-112500000D03*
X162000000Y-88000000D03*
X166000000Y-116000000D03*
X146900000Y-100700000D03*
X158000000Y-88000000D03*
X150000000Y-103500000D03*
X167000000Y-97000000D03*
X148000000Y-108500000D03*
X167000000Y-109000000D03*
X173000000Y-112000000D03*
X146000000Y-88000000D03*
X162000000Y-123000000D03*
X143000000Y-108000000D03*
X145500000Y-111000000D03*
X137000000Y-116000000D03*
D15*
X157250000Y-105750000D03*
D14*
X173000000Y-117000000D03*
X155900000Y-110100000D03*
X158000000Y-116000000D03*
X161700000Y-103900000D03*
X158000000Y-123000000D03*
X167000000Y-105000000D03*
X158000000Y-112000000D03*
X146000000Y-116000000D03*
X167000000Y-101000000D03*
X150000000Y-94000000D03*
X173000000Y-94000000D03*
X146000000Y-105500000D03*
X157000000Y-101000000D03*
X154500000Y-100500000D03*
X137000000Y-96000000D03*
X144500000Y-114000000D03*
X150000000Y-106500000D03*
X143000000Y-105500000D03*
X162000000Y-94000000D03*
X154000000Y-88000000D03*
X154000000Y-94000000D03*
D15*
X154750000Y-105750000D03*
D14*
X143000000Y-111000000D03*
X173000000Y-98000000D03*
X154000000Y-112000000D03*
%TD*%
D16*
%TO.N,+3.3V*%
X158762500Y-105000000D02*
X160175000Y-105000000D01*
X160175000Y-105000000D02*
X160650000Y-105475000D01*
%TO.N,GND*%
X158762500Y-104350000D02*
X160225000Y-104350000D01*
X160225000Y-104350000D02*
X160650000Y-103925000D01*
D17*
X161700000Y-103900000D02*
X160675000Y-103900000D01*
X160675000Y-103900000D02*
X160650000Y-103925000D01*
%TO.N,+3.3V*%
X140400000Y-99300000D02*
X162800000Y-99300000D01*
X162800000Y-99300000D02*
X165050000Y-101550000D01*
X165050000Y-101550000D02*
X165050000Y-104350000D01*
X165050000Y-104350000D02*
X163925000Y-105475000D01*
X163925000Y-105475000D02*
X160650000Y-105475000D01*
D16*
%TO.N,GND*%
X140400000Y-112000000D02*
X146250000Y-112000000D01*
X146250000Y-112000000D02*
X151950000Y-106300000D01*
X151950000Y-106300000D02*
X152955000Y-106300000D01*
%TO.N,/SPI_MOSI*%
X149800000Y-105650000D02*
X145990000Y-109460000D01*
X152955000Y-105650000D02*
X149800000Y-105650000D01*
X145990000Y-109460000D02*
X140400000Y-109460000D01*
%TO.N,/SPI_MISO*%
X152955000Y-105000000D02*
X148400000Y-105000000D01*
X148400000Y-105000000D02*
X146480000Y-106920000D01*
X146480000Y-106920000D02*
X140400000Y-106920000D01*
%TO.N,/SPI_CLK*%
X153037500Y-104350000D02*
X140430000Y-104350000D01*
X140430000Y-104350000D02*
X140400000Y-104380000D01*
%TO.N,/SPI_CS*%
X152955000Y-103700000D02*
X151500000Y-103700000D01*
X149640000Y-101840000D02*
X140400000Y-101840000D01*
X151500000Y-103700000D02*
X149640000Y-101840000D01*
D17*
%TO.N,GND*%
X140400000Y-112000000D02*
X140400000Y-114400000D01*
D16*
%TO.N,/SPI_CLK*%
X140452500Y-104432500D02*
X140400000Y-104380000D01*
%TD*%
%TA.AperFunction,Conductor*%
%TO.N,GND*%
G36*
X172508363Y-85170185D02*
G01*
X172529005Y-85186819D01*
X176363181Y-89020995D01*
X176396666Y-89082318D01*
X176399500Y-89108676D01*
X176399500Y-122191324D01*
X176379815Y-122258363D01*
X176363181Y-122279005D01*
X172529005Y-126113181D01*
X172467682Y-126146666D01*
X172441324Y-126149500D01*
X139358676Y-126149500D01*
X139291637Y-126129815D01*
X139270995Y-126113181D01*
X135436819Y-122279005D01*
X135403334Y-122217682D01*
X135400500Y-122191324D01*
X135400500Y-121028711D01*
X138549500Y-121028711D01*
X138549500Y-121271288D01*
X138581161Y-121511785D01*
X138643947Y-121746104D01*
X138736773Y-121970205D01*
X138736776Y-121970212D01*
X138858064Y-122180289D01*
X138858066Y-122180292D01*
X138858067Y-122180293D01*
X139005733Y-122372736D01*
X139005739Y-122372743D01*
X139177256Y-122544260D01*
X139177262Y-122544265D01*
X139369711Y-122691936D01*
X139579788Y-122813224D01*
X139803900Y-122906054D01*
X140038211Y-122968838D01*
X140218586Y-122992584D01*
X140278711Y-123000500D01*
X140278712Y-123000500D01*
X140521289Y-123000500D01*
X140569388Y-122994167D01*
X140761789Y-122968838D01*
X140996100Y-122906054D01*
X141220212Y-122813224D01*
X141430289Y-122691936D01*
X141622738Y-122544265D01*
X141794265Y-122372738D01*
X141941936Y-122180289D01*
X142063224Y-121970212D01*
X142156054Y-121746100D01*
X142218838Y-121511789D01*
X142250500Y-121271288D01*
X142250500Y-121028712D01*
X142250500Y-121028711D01*
X169549500Y-121028711D01*
X169549500Y-121271288D01*
X169581161Y-121511785D01*
X169643947Y-121746104D01*
X169736773Y-121970205D01*
X169736776Y-121970212D01*
X169858064Y-122180289D01*
X169858066Y-122180292D01*
X169858067Y-122180293D01*
X170005733Y-122372736D01*
X170005739Y-122372743D01*
X170177256Y-122544260D01*
X170177262Y-122544265D01*
X170369711Y-122691936D01*
X170579788Y-122813224D01*
X170803900Y-122906054D01*
X171038211Y-122968838D01*
X171218586Y-122992584D01*
X171278711Y-123000500D01*
X171278712Y-123000500D01*
X171521289Y-123000500D01*
X171569388Y-122994167D01*
X171761789Y-122968838D01*
X171996100Y-122906054D01*
X172220212Y-122813224D01*
X172430289Y-122691936D01*
X172622738Y-122544265D01*
X172794265Y-122372738D01*
X172941936Y-122180289D01*
X173063224Y-121970212D01*
X173156054Y-121746100D01*
X173218838Y-121511789D01*
X173250500Y-121271288D01*
X173250500Y-121028712D01*
X173218838Y-120788211D01*
X173156054Y-120553900D01*
X173063224Y-120329788D01*
X172941936Y-120119711D01*
X172794265Y-119927262D01*
X172794260Y-119927256D01*
X172622743Y-119755739D01*
X172622736Y-119755733D01*
X172430293Y-119608067D01*
X172430292Y-119608066D01*
X172430289Y-119608064D01*
X172220212Y-119486776D01*
X172220205Y-119486773D01*
X171996104Y-119393947D01*
X171761785Y-119331161D01*
X171521289Y-119299500D01*
X171521288Y-119299500D01*
X171278712Y-119299500D01*
X171278711Y-119299500D01*
X171038214Y-119331161D01*
X170803895Y-119393947D01*
X170579794Y-119486773D01*
X170579785Y-119486777D01*
X170369706Y-119608067D01*
X170177263Y-119755733D01*
X170177256Y-119755739D01*
X170005739Y-119927256D01*
X170005733Y-119927263D01*
X169858067Y-120119706D01*
X169736777Y-120329785D01*
X169736773Y-120329794D01*
X169643947Y-120553895D01*
X169581161Y-120788214D01*
X169549500Y-121028711D01*
X142250500Y-121028711D01*
X142218838Y-120788211D01*
X142156054Y-120553900D01*
X142063224Y-120329788D01*
X141941936Y-120119711D01*
X141794265Y-119927262D01*
X141794260Y-119927256D01*
X141622743Y-119755739D01*
X141622736Y-119755733D01*
X141430293Y-119608067D01*
X141430292Y-119608066D01*
X141430289Y-119608064D01*
X141220212Y-119486776D01*
X141220205Y-119486773D01*
X140996104Y-119393947D01*
X140761785Y-119331161D01*
X140521289Y-119299500D01*
X140521288Y-119299500D01*
X140278712Y-119299500D01*
X140278711Y-119299500D01*
X140038214Y-119331161D01*
X139803895Y-119393947D01*
X139579794Y-119486773D01*
X139579785Y-119486777D01*
X139369706Y-119608067D01*
X139177263Y-119755733D01*
X139177256Y-119755739D01*
X139005739Y-119927256D01*
X139005733Y-119927263D01*
X138858067Y-120119706D01*
X138736777Y-120329785D01*
X138736773Y-120329794D01*
X138643947Y-120553895D01*
X138581161Y-120788214D01*
X138549500Y-121028711D01*
X135400500Y-121028711D01*
X135400500Y-111893753D01*
X139050000Y-111893753D01*
X139050000Y-112106246D01*
X139083242Y-112316127D01*
X139083242Y-112316130D01*
X139148904Y-112518217D01*
X139245375Y-112707550D01*
X139284728Y-112761716D01*
X139917037Y-112129408D01*
X139934075Y-112192993D01*
X139999901Y-112307007D01*
X140092993Y-112400099D01*
X140207007Y-112465925D01*
X140270590Y-112482962D01*
X139638282Y-113115269D01*
X139638282Y-113115270D01*
X139692449Y-113154624D01*
X139881782Y-113251095D01*
X140083870Y-113316757D01*
X140293754Y-113350000D01*
X140506246Y-113350000D01*
X140716127Y-113316757D01*
X140716130Y-113316757D01*
X140918217Y-113251095D01*
X141107554Y-113154622D01*
X141161716Y-113115270D01*
X141161717Y-113115270D01*
X140529408Y-112482962D01*
X140592993Y-112465925D01*
X140707007Y-112400099D01*
X140800099Y-112307007D01*
X140865925Y-112192993D01*
X140882962Y-112129408D01*
X141515270Y-112761717D01*
X141515270Y-112761716D01*
X141554622Y-112707554D01*
X141651095Y-112518217D01*
X141716757Y-112316130D01*
X141716757Y-112316127D01*
X141750000Y-112106246D01*
X141750000Y-111893753D01*
X141716757Y-111683872D01*
X141716757Y-111683869D01*
X141651095Y-111481782D01*
X141554624Y-111292449D01*
X141515270Y-111238282D01*
X141515269Y-111238282D01*
X140882962Y-111870590D01*
X140865925Y-111807007D01*
X140800099Y-111692993D01*
X140707007Y-111599901D01*
X140592993Y-111534075D01*
X140529409Y-111517037D01*
X141161716Y-110884728D01*
X141107550Y-110845375D01*
X140918217Y-110748904D01*
X140819287Y-110716760D01*
X140761611Y-110677323D01*
X140734413Y-110612964D01*
X140746328Y-110544118D01*
X140793572Y-110492642D01*
X140819290Y-110480897D01*
X140822445Y-110479873D01*
X140976788Y-110401232D01*
X141116928Y-110299414D01*
X141239414Y-110176928D01*
X141341232Y-110036788D01*
X141396557Y-109928206D01*
X141444531Y-109877409D01*
X141507042Y-109860500D01*
X146042725Y-109860500D01*
X146042727Y-109860500D01*
X146144588Y-109833207D01*
X146235913Y-109780480D01*
X149516390Y-106500001D01*
X151807988Y-106500001D01*
X151815442Y-106556627D01*
X151815444Y-106556633D01*
X151875899Y-106702585D01*
X151972076Y-106827925D01*
X152000985Y-106850107D01*
X152042189Y-106906534D01*
X152049500Y-106948484D01*
X152049500Y-107083260D01*
X152059426Y-107151392D01*
X152059426Y-107151393D01*
X152093230Y-107220541D01*
X152104988Y-107289414D01*
X152093230Y-107329459D01*
X152059426Y-107398606D01*
X152059426Y-107398607D01*
X152049500Y-107466739D01*
X152049500Y-107733260D01*
X152059426Y-107801391D01*
X152110803Y-107906485D01*
X152193514Y-107989196D01*
X152193515Y-107989196D01*
X152193517Y-107989198D01*
X152298607Y-108040573D01*
X152332673Y-108045536D01*
X152366739Y-108050500D01*
X152366740Y-108050500D01*
X153708261Y-108050500D01*
X153730971Y-108047191D01*
X153776393Y-108040573D01*
X153881483Y-107989198D01*
X153964198Y-107906483D01*
X154015573Y-107801393D01*
X154025500Y-107733260D01*
X154025500Y-107466740D01*
X154015573Y-107398607D01*
X153981768Y-107329458D01*
X153970010Y-107260587D01*
X153981769Y-107220540D01*
X154015573Y-107151393D01*
X154025500Y-107083260D01*
X154025500Y-106948484D01*
X154045185Y-106881445D01*
X154074015Y-106850107D01*
X154102923Y-106827925D01*
X154199100Y-106702586D01*
X154259555Y-106556631D01*
X154267012Y-106500000D01*
X153719642Y-106500000D01*
X153715548Y-106498798D01*
X153712747Y-106499302D01*
X153712747Y-106499500D01*
X153711647Y-106499500D01*
X153710674Y-106499675D01*
X153708261Y-106499500D01*
X153708260Y-106499500D01*
X152366740Y-106499500D01*
X152366739Y-106499500D01*
X152364326Y-106499675D01*
X152363518Y-106499500D01*
X152362253Y-106499500D01*
X152362253Y-106499226D01*
X152360579Y-106498863D01*
X152355358Y-106500000D01*
X151807990Y-106500000D01*
X151807988Y-106500001D01*
X149516390Y-106500001D01*
X149929573Y-106086818D01*
X149990896Y-106053334D01*
X150017254Y-106050500D01*
X151708394Y-106050500D01*
X151775433Y-106070185D01*
X151801622Y-106092741D01*
X151807988Y-106100000D01*
X152355358Y-106100000D01*
X152364326Y-106100325D01*
X152366739Y-106100500D01*
X152366740Y-106100500D01*
X153708261Y-106100500D01*
X153710674Y-106100325D01*
X153719642Y-106100000D01*
X154267010Y-106100000D01*
X154267011Y-106099998D01*
X154259557Y-106043372D01*
X154259555Y-106043366D01*
X154199100Y-105897414D01*
X154102921Y-105772071D01*
X154074013Y-105749889D01*
X154032811Y-105693461D01*
X154025500Y-105651514D01*
X154025500Y-105516739D01*
X154015573Y-105448608D01*
X154015572Y-105448606D01*
X153981768Y-105379458D01*
X153970010Y-105310587D01*
X153981769Y-105270540D01*
X154015573Y-105201393D01*
X154025500Y-105133260D01*
X154025500Y-104866740D01*
X154015573Y-104798607D01*
X153981768Y-104729458D01*
X153970010Y-104660587D01*
X153981769Y-104620540D01*
X154015573Y-104551393D01*
X154025500Y-104483260D01*
X154025500Y-104216740D01*
X154022816Y-104198322D01*
X154015951Y-104151201D01*
X154015573Y-104148607D01*
X153981768Y-104079458D01*
X153970010Y-104010587D01*
X153981769Y-103970540D01*
X153988117Y-103957555D01*
X154015573Y-103901393D01*
X154025500Y-103833260D01*
X154025500Y-103566740D01*
X154023409Y-103552392D01*
X154015573Y-103498608D01*
X154015573Y-103498607D01*
X153964198Y-103393517D01*
X153964196Y-103393515D01*
X153964196Y-103393514D01*
X153881485Y-103310803D01*
X153872883Y-103306598D01*
X153776393Y-103259427D01*
X153776391Y-103259426D01*
X153708261Y-103249500D01*
X153708260Y-103249500D01*
X152366740Y-103249500D01*
X152366739Y-103249500D01*
X152298608Y-103259426D01*
X152242408Y-103286901D01*
X152187948Y-103299500D01*
X151717255Y-103299500D01*
X151650216Y-103279815D01*
X151629574Y-103263181D01*
X149885915Y-101519522D01*
X149885913Y-101519520D01*
X149824582Y-101484110D01*
X149794589Y-101466793D01*
X149743657Y-101453146D01*
X149692727Y-101439500D01*
X149692726Y-101439500D01*
X141507042Y-101439500D01*
X141440003Y-101419815D01*
X141396557Y-101371794D01*
X141341233Y-101263213D01*
X141325937Y-101242160D01*
X141239414Y-101123072D01*
X141116928Y-101000586D01*
X140976788Y-100898768D01*
X140822445Y-100820127D01*
X140657701Y-100766598D01*
X140657699Y-100766597D01*
X140657698Y-100766597D01*
X140526271Y-100745781D01*
X140486611Y-100739500D01*
X140313389Y-100739500D01*
X140273728Y-100745781D01*
X140142302Y-100766597D01*
X139977552Y-100820128D01*
X139823211Y-100898768D01*
X139743256Y-100956859D01*
X139683072Y-101000586D01*
X139683070Y-101000588D01*
X139683069Y-101000588D01*
X139560588Y-101123069D01*
X139560588Y-101123070D01*
X139560586Y-101123072D01*
X139541385Y-101149500D01*
X139458768Y-101263211D01*
X139380128Y-101417552D01*
X139326597Y-101582302D01*
X139304631Y-101720995D01*
X139299500Y-101753389D01*
X139299500Y-101926611D01*
X139326598Y-102097701D01*
X139380127Y-102262445D01*
X139458768Y-102416788D01*
X139560586Y-102556928D01*
X139683072Y-102679414D01*
X139823212Y-102781232D01*
X139977555Y-102859873D01*
X140142299Y-102913402D01*
X140313389Y-102940500D01*
X140313390Y-102940500D01*
X140486610Y-102940500D01*
X140486611Y-102940500D01*
X140657701Y-102913402D01*
X140822445Y-102859873D01*
X140976788Y-102781232D01*
X141116928Y-102679414D01*
X141239414Y-102556928D01*
X141341232Y-102416788D01*
X141396557Y-102308206D01*
X141444531Y-102257409D01*
X141507042Y-102240500D01*
X149422745Y-102240500D01*
X149489784Y-102260185D01*
X149510426Y-102276819D01*
X150971426Y-103737819D01*
X151004911Y-103799142D01*
X150999927Y-103868834D01*
X150958055Y-103924767D01*
X150892591Y-103949184D01*
X150883745Y-103949500D01*
X141491757Y-103949500D01*
X141424718Y-103929815D01*
X141381272Y-103881795D01*
X141366351Y-103852511D01*
X141341232Y-103803212D01*
X141239414Y-103663072D01*
X141116928Y-103540586D01*
X140976788Y-103438768D01*
X140822445Y-103360127D01*
X140657701Y-103306598D01*
X140657699Y-103306597D01*
X140657698Y-103306597D01*
X140526271Y-103285781D01*
X140486611Y-103279500D01*
X140313389Y-103279500D01*
X140273728Y-103285781D01*
X140142302Y-103306597D01*
X139977552Y-103360128D01*
X139823211Y-103438768D01*
X139743256Y-103496859D01*
X139683072Y-103540586D01*
X139683070Y-103540588D01*
X139683069Y-103540588D01*
X139560588Y-103663069D01*
X139560588Y-103663070D01*
X139560586Y-103663072D01*
X139551920Y-103675000D01*
X139458768Y-103803211D01*
X139380128Y-103957552D01*
X139326597Y-104122302D01*
X139299500Y-104293389D01*
X139299500Y-104466610D01*
X139322337Y-104610802D01*
X139326598Y-104637701D01*
X139378880Y-104798608D01*
X139380128Y-104802447D01*
X139412886Y-104866739D01*
X139458768Y-104956788D01*
X139560586Y-105096928D01*
X139683072Y-105219414D01*
X139823212Y-105321232D01*
X139977555Y-105399873D01*
X140142299Y-105453402D01*
X140313389Y-105480500D01*
X140313390Y-105480500D01*
X140486610Y-105480500D01*
X140486611Y-105480500D01*
X140657701Y-105453402D01*
X140822445Y-105399873D01*
X140976788Y-105321232D01*
X141116928Y-105219414D01*
X141239414Y-105096928D01*
X141341232Y-104956788D01*
X141411843Y-104818205D01*
X141459817Y-104767409D01*
X141522328Y-104750500D01*
X147783745Y-104750500D01*
X147850784Y-104770185D01*
X147896539Y-104822989D01*
X147906483Y-104892147D01*
X147877458Y-104955703D01*
X147871426Y-104962181D01*
X146350426Y-106483181D01*
X146289103Y-106516666D01*
X146262745Y-106519500D01*
X141507042Y-106519500D01*
X141440003Y-106499815D01*
X141396557Y-106451794D01*
X141341233Y-106343213D01*
X141325937Y-106322160D01*
X141239414Y-106203072D01*
X141116928Y-106080586D01*
X140976788Y-105978768D01*
X140822445Y-105900127D01*
X140657701Y-105846598D01*
X140657699Y-105846597D01*
X140657698Y-105846597D01*
X140526271Y-105825781D01*
X140486611Y-105819500D01*
X140313389Y-105819500D01*
X140273728Y-105825781D01*
X140142302Y-105846597D01*
X139977552Y-105900128D01*
X139823211Y-105978768D01*
X139753442Y-106029459D01*
X139683072Y-106080586D01*
X139683070Y-106080588D01*
X139683069Y-106080588D01*
X139560588Y-106203069D01*
X139560588Y-106203070D01*
X139560586Y-106203072D01*
X139516859Y-106263256D01*
X139458768Y-106343211D01*
X139380128Y-106497552D01*
X139326597Y-106662302D01*
X139320217Y-106702585D01*
X139299500Y-106833389D01*
X139299500Y-107006611D01*
X139326598Y-107177701D01*
X139380127Y-107342445D01*
X139458768Y-107496788D01*
X139560586Y-107636928D01*
X139683072Y-107759414D01*
X139823212Y-107861232D01*
X139977555Y-107939873D01*
X140142299Y-107993402D01*
X140313389Y-108020500D01*
X140313390Y-108020500D01*
X140486610Y-108020500D01*
X140486611Y-108020500D01*
X140657701Y-107993402D01*
X140822445Y-107939873D01*
X140976788Y-107861232D01*
X141116928Y-107759414D01*
X141239414Y-107636928D01*
X141341232Y-107496788D01*
X141377089Y-107426414D01*
X141396557Y-107388206D01*
X141444531Y-107337409D01*
X141507042Y-107320500D01*
X146540855Y-107320500D01*
X146540855Y-107322381D01*
X146599623Y-107331541D01*
X146649957Y-107374936D01*
X146937053Y-107805581D01*
X146957861Y-107872281D01*
X146939306Y-107939641D01*
X146921560Y-107962045D01*
X145860426Y-109023181D01*
X145799103Y-109056666D01*
X145772745Y-109059500D01*
X141507042Y-109059500D01*
X141440003Y-109039815D01*
X141396557Y-108991794D01*
X141341233Y-108883213D01*
X141325937Y-108862160D01*
X141239414Y-108743072D01*
X141116928Y-108620586D01*
X140976788Y-108518768D01*
X140822445Y-108440127D01*
X140657701Y-108386598D01*
X140657699Y-108386597D01*
X140657698Y-108386597D01*
X140526271Y-108365781D01*
X140486611Y-108359500D01*
X140313389Y-108359500D01*
X140273728Y-108365781D01*
X140142302Y-108386597D01*
X139977552Y-108440128D01*
X139823211Y-108518768D01*
X139743256Y-108576859D01*
X139683072Y-108620586D01*
X139683070Y-108620588D01*
X139683069Y-108620588D01*
X139560588Y-108743069D01*
X139560588Y-108743070D01*
X139560586Y-108743072D01*
X139516859Y-108803256D01*
X139458768Y-108883211D01*
X139380128Y-109037552D01*
X139326597Y-109202302D01*
X139299500Y-109373389D01*
X139299500Y-109546611D01*
X139326598Y-109717701D01*
X139380127Y-109882445D01*
X139458768Y-110036788D01*
X139560586Y-110176928D01*
X139683072Y-110299414D01*
X139823212Y-110401232D01*
X139977555Y-110479873D01*
X139980708Y-110480897D01*
X139981752Y-110481611D01*
X139982048Y-110481734D01*
X139982022Y-110481795D01*
X140038383Y-110520330D01*
X140065585Y-110584688D01*
X140053674Y-110653535D01*
X140006433Y-110705013D01*
X139980712Y-110716760D01*
X139881783Y-110748904D01*
X139692439Y-110845380D01*
X139638282Y-110884727D01*
X139638282Y-110884728D01*
X140270591Y-111517037D01*
X140207007Y-111534075D01*
X140092993Y-111599901D01*
X139999901Y-111692993D01*
X139934075Y-111807007D01*
X139917037Y-111870591D01*
X139284728Y-111238282D01*
X139284727Y-111238282D01*
X139245380Y-111292439D01*
X139148904Y-111481782D01*
X139083242Y-111683869D01*
X139083242Y-111683872D01*
X139050000Y-111893753D01*
X135400500Y-111893753D01*
X135400500Y-98425321D01*
X139299500Y-98425321D01*
X139299500Y-100174678D01*
X139314032Y-100247735D01*
X139314033Y-100247739D01*
X139314034Y-100247740D01*
X139369399Y-100330601D01*
X139452260Y-100385966D01*
X139452264Y-100385967D01*
X139525321Y-100400499D01*
X139525324Y-100400500D01*
X139525326Y-100400500D01*
X141274676Y-100400500D01*
X141274677Y-100400499D01*
X141347740Y-100385966D01*
X141430601Y-100330601D01*
X141485966Y-100247740D01*
X141500500Y-100174674D01*
X141500500Y-99924500D01*
X141520185Y-99857461D01*
X141572989Y-99811706D01*
X141624500Y-99800500D01*
X162541324Y-99800500D01*
X162608363Y-99820185D01*
X162629005Y-99836819D01*
X164513181Y-101720995D01*
X164546666Y-101782318D01*
X164549500Y-101808676D01*
X164549500Y-104091324D01*
X164529815Y-104158363D01*
X164513181Y-104179005D01*
X163754005Y-104938181D01*
X163692682Y-104971666D01*
X163666324Y-104974500D01*
X161381532Y-104974500D01*
X161314493Y-104954815D01*
X161268738Y-104902011D01*
X161258794Y-104832853D01*
X161287819Y-104769297D01*
X161316435Y-104744962D01*
X161352728Y-104722575D01*
X161352732Y-104722572D01*
X161472572Y-104602732D01*
X161472575Y-104602728D01*
X161561542Y-104458492D01*
X161561547Y-104458481D01*
X161614855Y-104297606D01*
X161624999Y-104198322D01*
X161625000Y-104198309D01*
X161625000Y-104175000D01*
X160774000Y-104175000D01*
X160706961Y-104155315D01*
X160661206Y-104102511D01*
X160650000Y-104051000D01*
X160650000Y-103925000D01*
X160524000Y-103925000D01*
X160456961Y-103905315D01*
X160411206Y-103852511D01*
X160400000Y-103801000D01*
X160400000Y-103675000D01*
X160900000Y-103675000D01*
X161624999Y-103675000D01*
X161624999Y-103651692D01*
X161624998Y-103651677D01*
X161614855Y-103552392D01*
X161561547Y-103391518D01*
X161561542Y-103391507D01*
X161472575Y-103247271D01*
X161472572Y-103247267D01*
X161352732Y-103127427D01*
X161352728Y-103127424D01*
X161208492Y-103038457D01*
X161208481Y-103038452D01*
X161047606Y-102985144D01*
X160948322Y-102975000D01*
X160900000Y-102975000D01*
X160900000Y-103675000D01*
X160400000Y-103675000D01*
X160400000Y-102975000D01*
X160399999Y-102974999D01*
X160351693Y-102975000D01*
X160351675Y-102975001D01*
X160252392Y-102985144D01*
X160091518Y-103038452D01*
X160091507Y-103038457D01*
X159947271Y-103127424D01*
X159947267Y-103127427D01*
X159827424Y-103247270D01*
X159801226Y-103289744D01*
X159749278Y-103336467D01*
X159680315Y-103347688D01*
X159616233Y-103319844D01*
X159608008Y-103312326D01*
X159606485Y-103310803D01*
X159597883Y-103306598D01*
X159501393Y-103259427D01*
X159501391Y-103259426D01*
X159433261Y-103249500D01*
X159433260Y-103249500D01*
X158091740Y-103249500D01*
X158091739Y-103249500D01*
X158023608Y-103259426D01*
X157918514Y-103310803D01*
X157835803Y-103393514D01*
X157784426Y-103498608D01*
X157774500Y-103566739D01*
X157774500Y-103701514D01*
X157754815Y-103768553D01*
X157725987Y-103799889D01*
X157697078Y-103822071D01*
X157600899Y-103947413D01*
X157540444Y-104093368D01*
X157532987Y-104150000D01*
X158080358Y-104150000D01*
X158084451Y-104151201D01*
X158087253Y-104150697D01*
X158087253Y-104150500D01*
X158088353Y-104150500D01*
X158089326Y-104150325D01*
X158091739Y-104150500D01*
X158091740Y-104150500D01*
X158638500Y-104150500D01*
X158705539Y-104170185D01*
X158751294Y-104222989D01*
X158762500Y-104274500D01*
X158762500Y-104425500D01*
X158742815Y-104492539D01*
X158690011Y-104538294D01*
X158638500Y-104549500D01*
X158091739Y-104549500D01*
X158089326Y-104549675D01*
X158080358Y-104550000D01*
X157532990Y-104550000D01*
X157532988Y-104550001D01*
X157540442Y-104606627D01*
X157540444Y-104606633D01*
X157600899Y-104752585D01*
X157697076Y-104877925D01*
X157725985Y-104900107D01*
X157767189Y-104956534D01*
X157774500Y-104998484D01*
X157774500Y-105133260D01*
X157784426Y-105201392D01*
X157784426Y-105201393D01*
X157818230Y-105270541D01*
X157829988Y-105339414D01*
X157818230Y-105379459D01*
X157784426Y-105448606D01*
X157784426Y-105448607D01*
X157774500Y-105516739D01*
X157774500Y-105783260D01*
X157784426Y-105851392D01*
X157784426Y-105851393D01*
X157818230Y-105920541D01*
X157829988Y-105989414D01*
X157818230Y-106029459D01*
X157784426Y-106098606D01*
X157784426Y-106098607D01*
X157774500Y-106166739D01*
X157774500Y-106433260D01*
X157784426Y-106501392D01*
X157784426Y-106501393D01*
X157818230Y-106570541D01*
X157829988Y-106639414D01*
X157818230Y-106679459D01*
X157784426Y-106748606D01*
X157784426Y-106748607D01*
X157774500Y-106816739D01*
X157774500Y-107083260D01*
X157784426Y-107151392D01*
X157784426Y-107151393D01*
X157818230Y-107220541D01*
X157829988Y-107289414D01*
X157818230Y-107329459D01*
X157784426Y-107398606D01*
X157784426Y-107398607D01*
X157774500Y-107466739D01*
X157774500Y-107733260D01*
X157784426Y-107801391D01*
X157835803Y-107906485D01*
X157918514Y-107989196D01*
X157918515Y-107989196D01*
X157918517Y-107989198D01*
X158023607Y-108040573D01*
X158057673Y-108045536D01*
X158091739Y-108050500D01*
X158091740Y-108050500D01*
X159433261Y-108050500D01*
X159455971Y-108047191D01*
X159501393Y-108040573D01*
X159606483Y-107989198D01*
X159689198Y-107906483D01*
X159740573Y-107801393D01*
X159750500Y-107733260D01*
X159750500Y-107466740D01*
X159740573Y-107398607D01*
X159706768Y-107329458D01*
X159695010Y-107260587D01*
X159706769Y-107220540D01*
X159740573Y-107151393D01*
X159750500Y-107083260D01*
X159750500Y-106816740D01*
X159740573Y-106748607D01*
X159706768Y-106679458D01*
X159695010Y-106610587D01*
X159706769Y-106570540D01*
X159740573Y-106501393D01*
X159750500Y-106433260D01*
X159750500Y-106166740D01*
X159740573Y-106098607D01*
X159706768Y-106029458D01*
X159706201Y-106026134D01*
X159704060Y-106023528D01*
X159700364Y-105991947D01*
X159695010Y-105960587D01*
X159696214Y-105956485D01*
X159695939Y-105954132D01*
X159706769Y-105920541D01*
X159732043Y-105868841D01*
X159779170Y-105817258D01*
X159846704Y-105799343D01*
X159913203Y-105820783D01*
X159957554Y-105874772D01*
X159959625Y-105879965D01*
X159967145Y-105900127D01*
X159978372Y-105930226D01*
X160060313Y-106039687D01*
X160169774Y-106121628D01*
X160297886Y-106169412D01*
X160354515Y-106175500D01*
X160945484Y-106175499D01*
X161002114Y-106169412D01*
X161130226Y-106121628D01*
X161130229Y-106121626D01*
X161239681Y-106039692D01*
X161239683Y-106039689D01*
X161239687Y-106039687D01*
X161250541Y-106025188D01*
X161306476Y-105983317D01*
X161349807Y-105975500D01*
X163990890Y-105975500D01*
X163990892Y-105975500D01*
X164118186Y-105941392D01*
X164232314Y-105875500D01*
X165347104Y-104760707D01*
X165347109Y-104760704D01*
X165357312Y-104750500D01*
X165357314Y-104750500D01*
X165450500Y-104657314D01*
X165516392Y-104543186D01*
X165526734Y-104504588D01*
X165550500Y-104415893D01*
X165550500Y-104284108D01*
X165550500Y-101484108D01*
X165516392Y-101356814D01*
X165450500Y-101242686D01*
X165357314Y-101149500D01*
X163107314Y-98899500D01*
X163050250Y-98866554D01*
X162993187Y-98833608D01*
X162929539Y-98816554D01*
X162865892Y-98799500D01*
X162865891Y-98799500D01*
X141624500Y-98799500D01*
X141557461Y-98779815D01*
X141511706Y-98727011D01*
X141500500Y-98675500D01*
X141500500Y-98425323D01*
X141500499Y-98425321D01*
X141485967Y-98352264D01*
X141485966Y-98352260D01*
X141430601Y-98269399D01*
X141347740Y-98214034D01*
X141347739Y-98214033D01*
X141347735Y-98214032D01*
X141274677Y-98199500D01*
X141274674Y-98199500D01*
X139525326Y-98199500D01*
X139525323Y-98199500D01*
X139452264Y-98214032D01*
X139452260Y-98214033D01*
X139369399Y-98269399D01*
X139314033Y-98352260D01*
X139314032Y-98352264D01*
X139299500Y-98425321D01*
X135400500Y-98425321D01*
X135400500Y-90028711D01*
X138549500Y-90028711D01*
X138549500Y-90271288D01*
X138581161Y-90511785D01*
X138643947Y-90746104D01*
X138736773Y-90970205D01*
X138736776Y-90970212D01*
X138858064Y-91180289D01*
X138858066Y-91180292D01*
X138858067Y-91180293D01*
X139005733Y-91372736D01*
X139005739Y-91372743D01*
X139177256Y-91544260D01*
X139177262Y-91544265D01*
X139369711Y-91691936D01*
X139579788Y-91813224D01*
X139803900Y-91906054D01*
X140038211Y-91968838D01*
X140218586Y-91992584D01*
X140278711Y-92000500D01*
X140278712Y-92000500D01*
X140521289Y-92000500D01*
X140569388Y-91994167D01*
X140761789Y-91968838D01*
X140996100Y-91906054D01*
X141220212Y-91813224D01*
X141430289Y-91691936D01*
X141622738Y-91544265D01*
X141794265Y-91372738D01*
X141941936Y-91180289D01*
X142063224Y-90970212D01*
X142156054Y-90746100D01*
X142218838Y-90511789D01*
X142250500Y-90271288D01*
X142250500Y-90028712D01*
X142250500Y-90028711D01*
X169549500Y-90028711D01*
X169549500Y-90271288D01*
X169581161Y-90511785D01*
X169643947Y-90746104D01*
X169736773Y-90970205D01*
X169736776Y-90970212D01*
X169858064Y-91180289D01*
X169858066Y-91180292D01*
X169858067Y-91180293D01*
X170005733Y-91372736D01*
X170005739Y-91372743D01*
X170177256Y-91544260D01*
X170177262Y-91544265D01*
X170369711Y-91691936D01*
X170579788Y-91813224D01*
X170803900Y-91906054D01*
X171038211Y-91968838D01*
X171218586Y-91992584D01*
X171278711Y-92000500D01*
X171278712Y-92000500D01*
X171521289Y-92000500D01*
X171569388Y-91994167D01*
X171761789Y-91968838D01*
X171996100Y-91906054D01*
X172220212Y-91813224D01*
X172430289Y-91691936D01*
X172622738Y-91544265D01*
X172794265Y-91372738D01*
X172941936Y-91180289D01*
X173063224Y-90970212D01*
X173156054Y-90746100D01*
X173218838Y-90511789D01*
X173250500Y-90271288D01*
X173250500Y-90028712D01*
X173218838Y-89788211D01*
X173156054Y-89553900D01*
X173063224Y-89329788D01*
X172941936Y-89119711D01*
X172794265Y-88927262D01*
X172794260Y-88927256D01*
X172622743Y-88755739D01*
X172622736Y-88755733D01*
X172430293Y-88608067D01*
X172430292Y-88608066D01*
X172430289Y-88608064D01*
X172220212Y-88486776D01*
X172130220Y-88449500D01*
X171996104Y-88393947D01*
X171761785Y-88331161D01*
X171521289Y-88299500D01*
X171521288Y-88299500D01*
X171278712Y-88299500D01*
X171278711Y-88299500D01*
X171038214Y-88331161D01*
X170803895Y-88393947D01*
X170579794Y-88486773D01*
X170579785Y-88486777D01*
X170369706Y-88608067D01*
X170177263Y-88755733D01*
X170177256Y-88755739D01*
X170005739Y-88927256D01*
X170005733Y-88927263D01*
X169858067Y-89119706D01*
X169736777Y-89329785D01*
X169736773Y-89329794D01*
X169643947Y-89553895D01*
X169581161Y-89788214D01*
X169549500Y-90028711D01*
X142250500Y-90028711D01*
X142218838Y-89788211D01*
X142156054Y-89553900D01*
X142063224Y-89329788D01*
X141941936Y-89119711D01*
X141794265Y-88927262D01*
X141794260Y-88927256D01*
X141622743Y-88755739D01*
X141622736Y-88755733D01*
X141430293Y-88608067D01*
X141430292Y-88608066D01*
X141430289Y-88608064D01*
X141220212Y-88486776D01*
X141130220Y-88449500D01*
X140996104Y-88393947D01*
X140761785Y-88331161D01*
X140521289Y-88299500D01*
X140521288Y-88299500D01*
X140278712Y-88299500D01*
X140278711Y-88299500D01*
X140038214Y-88331161D01*
X139803895Y-88393947D01*
X139579794Y-88486773D01*
X139579785Y-88486777D01*
X139369706Y-88608067D01*
X139177263Y-88755733D01*
X139177256Y-88755739D01*
X139005739Y-88927256D01*
X139005733Y-88927263D01*
X138858067Y-89119706D01*
X138736777Y-89329785D01*
X138736773Y-89329794D01*
X138643947Y-89553895D01*
X138581161Y-89788214D01*
X138549500Y-90028711D01*
X135400500Y-90028711D01*
X135400500Y-89108676D01*
X135420185Y-89041637D01*
X135436819Y-89020995D01*
X139270995Y-85186819D01*
X139332318Y-85153334D01*
X139358676Y-85150500D01*
X172441324Y-85150500D01*
X172508363Y-85170185D01*
G37*
%TD.AperFunction*%
%TD*%
M02*
