%TF.GenerationSoftware,KiCad,Pcbnew,9.0.7-9.0.7~ubuntu24.04.1*%
%TF.CreationDate,2026-02-24T14:49:22-08:00*%
%TF.ProjectId,AS5047-Devboard,41533530-3437-42d4-9465-76626f617264,rev?*%
%TF.SameCoordinates,Original*%
%TF.FileFunction,Legend,Top*%
%TF.FilePolarity,Positive*%
%FSLAX46Y46*%
G04 Gerber Fmt 4.6, Leading zero omitted, Abs format (unit mm)*
G04 Created by KiCad (PCBNEW 9.0.7-9.0.7~ubuntu24.04.1) date 2026-02-24 14:49:22*
%MOMM*%
%LPD*%
G01*
G04 APERTURE LIST*
%ADD10C,0.100000*%
%ADD11C,0.125000*%
%ADD12C,0.150000*%
%ADD13C,0.120000*%
G04 APERTURE END LIST*
D10*
X151450000Y-101000000D02*
X159850000Y-101000000D01*
X159850000Y-110000000D01*
X151450000Y-110000000D01*
X151450000Y-101000000D01*
D11*
G36*
X154826167Y-99970105D02*
G01*
X154859440Y-100003378D01*
X154899456Y-100083411D01*
X154943545Y-100259765D01*
X154943545Y-100482472D01*
X154899456Y-100658826D01*
X154859440Y-100738857D01*
X154826164Y-100772134D01*
X154753195Y-100808619D01*
X154687467Y-100808619D01*
X154614497Y-100772134D01*
X154581221Y-100738857D01*
X154541205Y-100658826D01*
X154497117Y-100482471D01*
X154497117Y-100259765D01*
X154541205Y-100083410D01*
X154581222Y-100003378D01*
X154614495Y-99970105D01*
X154687467Y-99933619D01*
X154753195Y-99933619D01*
X154826167Y-99970105D01*
G37*
G36*
X152062187Y-100522904D02*
G01*
X151759427Y-100522904D01*
X151910807Y-100068762D01*
X152062187Y-100522904D01*
G37*
G36*
X157778548Y-99970105D02*
G01*
X157811821Y-100003378D01*
X157848307Y-100076350D01*
X157848307Y-100189697D01*
X157811821Y-100262669D01*
X157778548Y-100295942D01*
X157705576Y-100332428D01*
X157401879Y-100332428D01*
X157401879Y-99933619D01*
X157705576Y-99933619D01*
X157778548Y-99970105D01*
G37*
G36*
X158084418Y-101044730D02*
G01*
X151404021Y-101044730D01*
X151404021Y-100875550D01*
X151515132Y-100875550D01*
X151536524Y-100918334D01*
X151581905Y-100933461D01*
X151624689Y-100912069D01*
X151636767Y-100890883D01*
X151717760Y-100647904D01*
X152103854Y-100647904D01*
X152184847Y-100890883D01*
X152196925Y-100912069D01*
X152239709Y-100933461D01*
X152285090Y-100918334D01*
X152306482Y-100875550D01*
X152303433Y-100851354D01*
X152040180Y-100061595D01*
X152467355Y-100061595D01*
X152467355Y-100156833D01*
X152467965Y-100159904D01*
X152467513Y-100161263D01*
X152470158Y-100170923D01*
X152472113Y-100180751D01*
X152473126Y-100181764D01*
X152473953Y-100184784D01*
X152521572Y-100280022D01*
X152527719Y-100287943D01*
X152533280Y-100296265D01*
X152580899Y-100343884D01*
X152589220Y-100349444D01*
X152597142Y-100355592D01*
X152692380Y-100403211D01*
X152698984Y-100405019D01*
X152705173Y-100407943D01*
X152888991Y-100453897D01*
X152969024Y-100493914D01*
X153002297Y-100527187D01*
X153038783Y-100600159D01*
X153038783Y-100665887D01*
X153002297Y-100738857D01*
X152969021Y-100772134D01*
X152896052Y-100808619D01*
X152682855Y-100808619D01*
X152549619Y-100764207D01*
X152525424Y-100761158D01*
X152482640Y-100782550D01*
X152467513Y-100827931D01*
X152488905Y-100870715D01*
X152510091Y-100882793D01*
X152652947Y-100930412D01*
X152662887Y-100931664D01*
X152672712Y-100933619D01*
X152910807Y-100933619D01*
X152913878Y-100933008D01*
X152915237Y-100933461D01*
X152924897Y-100930815D01*
X152934725Y-100928861D01*
X152935738Y-100927847D01*
X152938758Y-100927021D01*
X153033996Y-100879402D01*
X153041911Y-100873258D01*
X153050240Y-100867694D01*
X153097859Y-100820074D01*
X153103422Y-100811746D01*
X153109566Y-100803831D01*
X153157185Y-100708593D01*
X153158011Y-100705573D01*
X153159025Y-100704560D01*
X153160979Y-100694732D01*
X153163625Y-100685072D01*
X153163172Y-100683713D01*
X153163783Y-100680642D01*
X153163783Y-100585404D01*
X153163172Y-100582332D01*
X153163625Y-100580974D01*
X153160979Y-100571313D01*
X153159025Y-100561486D01*
X153158011Y-100560472D01*
X153157185Y-100557453D01*
X153109566Y-100462215D01*
X153103418Y-100454293D01*
X153097858Y-100445972D01*
X153050239Y-100398353D01*
X153041917Y-100392792D01*
X153033996Y-100386645D01*
X152942886Y-100341090D01*
X153420046Y-100341090D01*
X153422401Y-100365363D01*
X153424494Y-100367921D01*
X153424494Y-100371226D01*
X153439363Y-100386095D01*
X153452691Y-100402385D01*
X153455982Y-100402714D01*
X153458319Y-100405051D01*
X153479356Y-100405051D01*
X153500290Y-100407144D01*
X153502848Y-100405051D01*
X153506153Y-100405051D01*
X153526430Y-100391503D01*
X153566876Y-100351057D01*
X153639848Y-100314571D01*
X153848433Y-100314571D01*
X153921405Y-100351057D01*
X153954678Y-100384330D01*
X153991164Y-100457302D01*
X153991164Y-100665887D01*
X153954678Y-100738857D01*
X153921402Y-100772134D01*
X153848433Y-100808619D01*
X153639848Y-100808619D01*
X153566878Y-100772134D01*
X153526431Y-100731686D01*
X153506154Y-100718138D01*
X153458319Y-100718137D01*
X153424494Y-100751962D01*
X153424493Y-100799797D01*
X153438041Y-100820074D01*
X153485660Y-100867694D01*
X153493988Y-100873258D01*
X153501904Y-100879402D01*
X153597142Y-100927021D01*
X153600161Y-100927847D01*
X153601175Y-100928861D01*
X153611002Y-100930815D01*
X153620663Y-100933461D01*
X153622021Y-100933008D01*
X153625093Y-100933619D01*
X153863188Y-100933619D01*
X153866259Y-100933008D01*
X153867618Y-100933461D01*
X153877278Y-100930815D01*
X153887106Y-100928861D01*
X153888119Y-100927847D01*
X153891139Y-100927021D01*
X153986377Y-100879402D01*
X153994292Y-100873258D01*
X154002621Y-100867694D01*
X154050240Y-100820074D01*
X154055803Y-100811746D01*
X154061947Y-100803831D01*
X154109566Y-100708593D01*
X154110392Y-100705573D01*
X154111406Y-100704560D01*
X154113360Y-100694732D01*
X154116006Y-100685072D01*
X154115553Y-100683713D01*
X154116164Y-100680642D01*
X154116164Y-100442547D01*
X154115553Y-100439475D01*
X154116006Y-100438117D01*
X154113360Y-100428456D01*
X154111406Y-100418629D01*
X154110392Y-100417615D01*
X154109566Y-100414596D01*
X154061947Y-100319358D01*
X154055799Y-100311436D01*
X154050239Y-100303115D01*
X154002620Y-100255496D01*
X153997495Y-100252071D01*
X154372117Y-100252071D01*
X154372117Y-100490166D01*
X154373610Y-100497675D01*
X154373983Y-100505324D01*
X154421602Y-100695800D01*
X154424525Y-100701988D01*
X154426334Y-100708593D01*
X154473953Y-100803831D01*
X154480093Y-100811742D01*
X154485660Y-100820074D01*
X154533279Y-100867694D01*
X154541607Y-100873258D01*
X154549523Y-100879402D01*
X154644761Y-100927021D01*
X154647780Y-100927847D01*
X154648794Y-100928861D01*
X154658621Y-100930815D01*
X154668282Y-100933461D01*
X154669640Y-100933008D01*
X154672712Y-100933619D01*
X154767950Y-100933619D01*
X154771021Y-100933008D01*
X154772380Y-100933461D01*
X154782040Y-100930815D01*
X154791868Y-100928861D01*
X154792881Y-100927847D01*
X154795901Y-100927021D01*
X154891139Y-100879402D01*
X154899054Y-100873258D01*
X154907383Y-100867694D01*
X154955002Y-100820074D01*
X154960565Y-100811746D01*
X154966709Y-100803831D01*
X155014328Y-100708593D01*
X155016136Y-100701988D01*
X155019060Y-100695800D01*
X155057456Y-100542216D01*
X155324656Y-100542216D01*
X155329256Y-100551416D01*
X155329256Y-100561703D01*
X155339543Y-100571990D01*
X155346048Y-100585000D01*
X155355805Y-100588252D01*
X155363080Y-100595527D01*
X155386998Y-100600285D01*
X155800688Y-100600285D01*
X155800688Y-100871119D01*
X155805446Y-100895037D01*
X155839270Y-100928861D01*
X155887106Y-100928861D01*
X155920930Y-100895037D01*
X155925688Y-100871119D01*
X155925688Y-100600285D01*
X156006045Y-100600285D01*
X156029963Y-100595527D01*
X156063787Y-100561703D01*
X156063787Y-100513867D01*
X156029963Y-100480043D01*
X156006045Y-100475285D01*
X155925688Y-100475285D01*
X155925688Y-100204452D01*
X155920930Y-100180534D01*
X155887106Y-100146710D01*
X155839270Y-100146710D01*
X155805446Y-100180534D01*
X155800688Y-100204452D01*
X155800688Y-100475285D01*
X155473712Y-100475285D01*
X155683074Y-99847201D01*
X156234018Y-99847201D01*
X156234018Y-99895037D01*
X156267842Y-99928861D01*
X156291760Y-99933619D01*
X156863642Y-99933619D01*
X156472408Y-100846499D01*
X156467360Y-100870357D01*
X156485125Y-100914771D01*
X156529093Y-100933614D01*
X156573507Y-100915849D01*
X156587302Y-100895739D01*
X157015872Y-99895739D01*
X157015980Y-99895224D01*
X157016168Y-99895037D01*
X157016168Y-99894340D01*
X157020921Y-99871881D01*
X157020616Y-99871119D01*
X157276879Y-99871119D01*
X157276879Y-100871119D01*
X157281637Y-100895037D01*
X157315461Y-100928861D01*
X157363297Y-100928861D01*
X157397121Y-100895037D01*
X157401879Y-100871119D01*
X157401879Y-100457428D01*
X157720331Y-100457428D01*
X157723402Y-100456817D01*
X157724761Y-100457270D01*
X157734421Y-100454624D01*
X157744249Y-100452670D01*
X157745262Y-100451656D01*
X157748282Y-100450830D01*
X157843520Y-100403211D01*
X157851441Y-100397063D01*
X157859763Y-100391503D01*
X157907382Y-100343884D01*
X157912942Y-100335562D01*
X157919090Y-100327641D01*
X157966709Y-100232403D01*
X157967535Y-100229383D01*
X157968549Y-100228370D01*
X157970503Y-100218542D01*
X157973149Y-100208882D01*
X157972696Y-100207523D01*
X157973307Y-100204452D01*
X157973307Y-100061595D01*
X157972696Y-100058523D01*
X157973149Y-100057165D01*
X157970503Y-100047504D01*
X157968549Y-100037677D01*
X157967535Y-100036663D01*
X157966709Y-100033644D01*
X157919090Y-99938406D01*
X157912942Y-99930484D01*
X157907382Y-99922163D01*
X157859763Y-99874544D01*
X157851441Y-99868983D01*
X157843520Y-99862836D01*
X157748282Y-99815217D01*
X157745262Y-99814390D01*
X157744249Y-99813377D01*
X157734421Y-99811422D01*
X157724761Y-99808777D01*
X157723402Y-99809229D01*
X157720331Y-99808619D01*
X157339379Y-99808619D01*
X157315461Y-99813377D01*
X157281637Y-99847201D01*
X157276879Y-99871119D01*
X157020616Y-99871119D01*
X157016168Y-99859998D01*
X157016168Y-99847201D01*
X157007636Y-99838669D01*
X157003156Y-99827468D01*
X156991394Y-99822427D01*
X156982344Y-99813377D01*
X156959824Y-99808897D01*
X156959187Y-99808624D01*
X156958942Y-99808721D01*
X156958426Y-99808619D01*
X156291760Y-99808619D01*
X156267842Y-99813377D01*
X156234018Y-99847201D01*
X155683074Y-99847201D01*
X155684386Y-99843265D01*
X155687435Y-99819069D01*
X155666043Y-99776285D01*
X155620662Y-99761158D01*
X155577878Y-99782550D01*
X155565800Y-99803736D01*
X155327705Y-100518021D01*
X155324656Y-100542216D01*
X155057456Y-100542216D01*
X155066679Y-100505325D01*
X155067051Y-100497675D01*
X155068545Y-100490166D01*
X155068545Y-100252071D01*
X155067051Y-100244561D01*
X155066679Y-100236912D01*
X155019060Y-100046437D01*
X155016136Y-100040248D01*
X155014328Y-100033644D01*
X154966709Y-99938406D01*
X154960561Y-99930484D01*
X154955001Y-99922163D01*
X154907382Y-99874544D01*
X154899060Y-99868983D01*
X154891139Y-99862836D01*
X154795901Y-99815217D01*
X154792881Y-99814390D01*
X154791868Y-99813377D01*
X154782040Y-99811422D01*
X154772380Y-99808777D01*
X154771021Y-99809229D01*
X154767950Y-99808619D01*
X154672712Y-99808619D01*
X154669640Y-99809229D01*
X154668282Y-99808777D01*
X154658621Y-99811422D01*
X154648794Y-99813377D01*
X154647780Y-99814390D01*
X154644761Y-99815217D01*
X154549523Y-99862836D01*
X154541601Y-99868983D01*
X154533280Y-99874544D01*
X154485661Y-99922163D01*
X154480100Y-99930484D01*
X154473953Y-99938406D01*
X154426334Y-100033644D01*
X154424525Y-100040248D01*
X154421602Y-100046437D01*
X154373983Y-100236913D01*
X154373610Y-100244561D01*
X154372117Y-100252071D01*
X153997495Y-100252071D01*
X153994298Y-100249935D01*
X153986377Y-100243788D01*
X153891139Y-100196169D01*
X153888119Y-100195342D01*
X153887106Y-100194329D01*
X153877278Y-100192374D01*
X153867618Y-100189729D01*
X153866259Y-100190181D01*
X153863188Y-100189571D01*
X153625093Y-100189571D01*
X153622021Y-100190181D01*
X153620663Y-100189729D01*
X153611002Y-100192374D01*
X153601175Y-100194329D01*
X153600161Y-100195342D01*
X153597142Y-100196169D01*
X153558215Y-100215632D01*
X153586417Y-99933619D01*
X154006045Y-99933619D01*
X154029963Y-99928861D01*
X154063787Y-99895037D01*
X154063787Y-99847201D01*
X154029963Y-99813377D01*
X154006045Y-99808619D01*
X153529855Y-99808619D01*
X153514900Y-99811593D01*
X153511801Y-99811284D01*
X153510304Y-99812508D01*
X153505937Y-99813377D01*
X153491062Y-99828251D01*
X153474779Y-99841574D01*
X153473479Y-99845834D01*
X153472113Y-99847201D01*
X153472113Y-99850315D01*
X153467665Y-99864900D01*
X153420046Y-100341090D01*
X152942886Y-100341090D01*
X152938758Y-100339026D01*
X152932153Y-100337217D01*
X152925965Y-100334294D01*
X152742147Y-100288339D01*
X152662114Y-100248323D01*
X152628841Y-100215050D01*
X152592355Y-100142078D01*
X152592355Y-100076350D01*
X152628841Y-100003378D01*
X152662114Y-99970105D01*
X152735086Y-99933619D01*
X152948283Y-99933619D01*
X153081518Y-99978031D01*
X153105714Y-99981080D01*
X153148498Y-99959688D01*
X153163625Y-99914307D01*
X153142233Y-99871523D01*
X153121047Y-99859445D01*
X152978190Y-99811826D01*
X152968251Y-99810573D01*
X152958426Y-99808619D01*
X152720331Y-99808619D01*
X152717259Y-99809229D01*
X152715901Y-99808777D01*
X152706240Y-99811422D01*
X152696413Y-99813377D01*
X152695399Y-99814390D01*
X152692380Y-99815217D01*
X152597142Y-99862836D01*
X152589220Y-99868983D01*
X152580899Y-99874544D01*
X152533280Y-99922163D01*
X152527719Y-99930484D01*
X152521572Y-99938406D01*
X152473953Y-100033644D01*
X152473126Y-100036663D01*
X152472113Y-100037677D01*
X152470158Y-100047504D01*
X152467513Y-100057165D01*
X152467965Y-100058523D01*
X152467355Y-100061595D01*
X152040180Y-100061595D01*
X151970100Y-99851355D01*
X151958022Y-99830169D01*
X151953845Y-99828080D01*
X151951757Y-99823904D01*
X151932962Y-99817639D01*
X151915238Y-99808777D01*
X151910807Y-99810254D01*
X151906376Y-99808777D01*
X151888652Y-99817639D01*
X151869857Y-99823904D01*
X151867768Y-99828080D01*
X151863592Y-99830169D01*
X151851514Y-99851355D01*
X151518181Y-100851355D01*
X151515132Y-100875550D01*
X151404021Y-100875550D01*
X151404021Y-99650047D01*
X158084418Y-99650047D01*
X158084418Y-101044730D01*
G37*
D12*
X161033333Y-107609580D02*
X160985714Y-107657200D01*
X160985714Y-107657200D02*
X160842857Y-107704819D01*
X160842857Y-107704819D02*
X160747619Y-107704819D01*
X160747619Y-107704819D02*
X160604762Y-107657200D01*
X160604762Y-107657200D02*
X160509524Y-107561961D01*
X160509524Y-107561961D02*
X160461905Y-107466723D01*
X160461905Y-107466723D02*
X160414286Y-107276247D01*
X160414286Y-107276247D02*
X160414286Y-107133390D01*
X160414286Y-107133390D02*
X160461905Y-106942914D01*
X160461905Y-106942914D02*
X160509524Y-106847676D01*
X160509524Y-106847676D02*
X160604762Y-106752438D01*
X160604762Y-106752438D02*
X160747619Y-106704819D01*
X160747619Y-106704819D02*
X160842857Y-106704819D01*
X160842857Y-106704819D02*
X160985714Y-106752438D01*
X160985714Y-106752438D02*
X161033333Y-106800057D01*
X161985714Y-107704819D02*
X161414286Y-107704819D01*
X161700000Y-107704819D02*
X161700000Y-106704819D01*
X161700000Y-106704819D02*
X161604762Y-106847676D01*
X161604762Y-106847676D02*
X161509524Y-106942914D01*
X161509524Y-106942914D02*
X161414286Y-106990533D01*
X155138095Y-101654819D02*
X155138095Y-102464342D01*
X155138095Y-102464342D02*
X155185714Y-102559580D01*
X155185714Y-102559580D02*
X155233333Y-102607200D01*
X155233333Y-102607200D02*
X155328571Y-102654819D01*
X155328571Y-102654819D02*
X155519047Y-102654819D01*
X155519047Y-102654819D02*
X155614285Y-102607200D01*
X155614285Y-102607200D02*
X155661904Y-102559580D01*
X155661904Y-102559580D02*
X155709523Y-102464342D01*
X155709523Y-102464342D02*
X155709523Y-101654819D01*
X156709523Y-102654819D02*
X156138095Y-102654819D01*
X156423809Y-102654819D02*
X156423809Y-101654819D01*
X156423809Y-101654819D02*
X156328571Y-101797676D01*
X156328571Y-101797676D02*
X156233333Y-101892914D01*
X156233333Y-101892914D02*
X156138095Y-101940533D01*
D13*
%TO.C,C1*%
X161160000Y-104840580D02*
X161160000Y-104559420D01*
X160140000Y-104840580D02*
X160140000Y-104559420D01*
%TO.C,U1*%
X153590000Y-103040000D02*
X158210000Y-103040000D01*
X153590000Y-103240000D02*
X153590000Y-103040000D01*
X153590000Y-108260000D02*
X153590000Y-108060000D01*
X158210000Y-103040000D02*
X158210000Y-103240000D01*
X158210000Y-108060000D02*
X158210000Y-108260000D01*
X158210000Y-108260000D02*
X153590000Y-108260000D01*
X152950000Y-103240000D02*
X152610000Y-102770000D01*
X153290000Y-102770000D01*
X152950000Y-103240000D01*
G36*
X152950000Y-103240000D02*
G01*
X152610000Y-102770000D01*
X153290000Y-102770000D01*
X152950000Y-103240000D01*
G37*
%TD*%
M02*
